<svg width="1143" height="668" viewBox="0 0 1143 668" fill="none" xmlns="http://www.w3.org/2000/svg">
<mask id="path-1-inside-1_154_78" fill="white">
<path d="M1143 0V668H0V0H1143ZM5 663H22.5H291.5H361.5H592H689.5H927.5H969.5H1120.5H1138V585.5V446V373V200V110V46.5V5H1112.5H1063H1004H839.5H791.5H711H669H496H439.5H184.5H122.5H52H42.5H5V97.5V61V130.5V185V265V299.5V356.5V419V503.5V543V638.5V663Z"/>
<path d="M26 17C6.38635 43.5544 5 61 5 61V130.5C13.7432 109.5 26.077 79.4469 52 50C78.2994 20.1256 103.84 10 122.5 5H52C52 5 37.667 1.20439 26 17Z"/>
<path d="M127.5 22.5C98.1961 44.2416 42.5 73.5 5 185V265C30.5 184.5 86.9433 128.407 122.5 97.5C187.5 41 262 5 316.5 5C371 5 400.349 7.5 422 45C443.651 82.5 490.5 147 537 152C583.5 157 640 145.5 687 107C711.654 86.8046 763.5 5 791.5 5H711C681 36 649.5 66.5 562 66.5C485.39 66.5 487.5 55 475.5 45C455.63 28.4414 448.778 11 439.5 5H184.5C169.5 5 143 11 127.5 22.5Z"/>
<path d="M52 234.5C41.0701 248.673 11.1667 288.776 5 299.5V356.5C26 286 78.1105 242.09 100.5 221.5C156.5 170 218.278 146.147 257 141.5C307 135.5 346.69 163.55 358 185C387 240 402.694 315.05 407 327C427 382.5 441.5 419.5 497.5 423.5C553.5 427.5 596.5 391 640 348C676.133 312.282 695 291.5 747.5 208C765.324 179.651 804.5 83 868 54C909.906 34.8616 963.5 49 985 70.5C1006.5 92 1017 118.5 1022.5 141.5C1026.92 160 1038.5 195 1048 225C1063.09 272.667 1108.5 380.905 1138 373V200C1114.5 200 1103.5 188.5 1096.5 182C1087.64 173.775 1078.5 151.5 1075 134C1069.58 106.888 1072 101.5 1056 54C1047.61 29.1014 1016.5 12.5925 1004 5H839.5C828 5 822 9.5 797.5 34C773 58.5 756.5 84 731.5 121.5C651.919 240.871 636.5 246.406 589.5 259C542.5 271.594 513 265 487.5 248.5C462.045 232.029 445.5 185.5 439.5 160C433.659 135.178 427 83 382 52.5C351.868 32.0774 306 39 278 45C217.179 58.033 97.5 175.5 52 234.5Z"/>
<path d="M1063 5C1070 23.5 1068.37 26.8117 1075 40C1083.55 57 1110 110 1138 110V46.5C1133 44 1124.04 37 1120 30C1113.36 18.5 1112.5 8.5 1112.5 5H1063Z"/>
<path d="M120 244C86 276.5 61.5 289 5 419V503.5C80 398 161.368 377.087 226 368.5C297.5 359 332.5 403 348.5 419C363 433.5 388.259 480.092 394.5 506.5C398.163 522 412.432 569.156 431.5 585.5C452.5 603.5 519.76 599.296 549 585.5C620 552 681.587 467.596 717.5 423.5C757 375 772.031 353.18 810 299.5C839 258.5 870.652 235.03 899.5 238C933.5 241.5 960.567 298.13 967 318.5C982 366 980.279 387.5 985 419.5C989.233 448.189 1000.26 500.112 1006 522C1025 594.5 1047.85 609.269 1081 619C1106.55 626.5 1128 606 1138 585.5V446C1133.5 453 1124.76 460.47 1096.5 457C1068 453.5 1047.08 425 1039 411C1030.92 397 1020 373 1007.5 318.5C1002.13 295.107 990.788 178.136 973.5 128C958.5 84.5 928 54 872 107C840.107 137.184 782.344 250.188 759.5 279C722 326.297 713 360 645 423.5C623.294 443.77 553 506.5 513 506.5C473 506.5 470 509.5 426 473.5C400.083 452.295 394.5 437 375 368.5C368.519 345.733 368 231 288.5 203C226.493 181.161 162.732 203.153 120 244Z"/>
<path d="M100.5 454C69.1917 477.822 22.8333 527.805 5 543V638.5C35.5 585.5 103.826 536.419 156.5 526.5C233.5 512 268.5 519 304 543C338.307 566.193 345.285 604 348.5 616C351.715 628 351.5 660.321 361.5 663H592C629.335 637.833 701.636 575.508 724.5 552C760 515.5 801 500.5 853 505.5C905 510.5 915.919 546.5 919 558C924.627 579 930.009 601.326 934.5 622.5C941.5 655.5 953.5 658.5 969.5 663H1120.5C1092.5 663 1038 660.5 1007.5 629C996.187 617.316 963.073 588.403 967 529.5C971.367 464 967.912 433.941 962.5 408C948 338.5 928.5 318.5 880.5 318.5C832.5 318.5 795.5 373.5 766.5 413C724.5 470.207 697 523.5 657 558C620.644 589.357 579.5 624.715 543.5 645.5C507.5 666.285 449.337 666.035 420.5 654.5C385.5 640.5 375.5 597 369 556C362.5 515 351.494 494.704 345 476C332.5 440 285.5 409 234 409C182.5 409 146.5 419 100.5 454Z"/>
<path d="M833 542.5C786.621 541.111 716.833 637.333 689.5 663H927.5C910 658.5 916.5 545 833 542.5Z"/>
<path d="M216 565.5C144.8 565.5 87 565.5 22.5 663H291.5C266.5 641 287.2 565.5 216 565.5Z"/>
<path d="M496 5C512 17.5 534.1 30 568.5 30C602.9 30 649.333 19.6667 669 5H496Z"/>
</mask>
<path d="M1143 0V668H0V0H1143ZM5 663H22.5H291.5H361.5H592H689.5H927.5H969.5H1120.5H1138V585.5V446V373V200V110V46.5V5H1112.5H1063H1004H839.5H791.5H711H669H496H439.5H184.5H122.5H52H42.5H5V97.5V61V130.5V185V265V299.5V356.5V419V503.5V543V638.5V663Z" fill="#1F1E1E"/>
<path d="M26 17C6.38635 43.5544 5 61 5 61V130.5C13.7432 109.5 26.077 79.4469 52 50C78.2994 20.1256 103.84 10 122.5 5H52C52 5 37.667 1.20439 26 17Z" fill="#1F1E1E"/>
<path d="M127.5 22.5C98.1961 44.2416 42.5 73.5 5 185V265C30.5 184.5 86.9433 128.407 122.5 97.5C187.5 41 262 5 316.5 5C371 5 400.349 7.5 422 45C443.651 82.5 490.5 147 537 152C583.5 157 640 145.5 687 107C711.654 86.8046 763.5 5 791.5 5H711C681 36 649.5 66.5 562 66.5C485.39 66.5 487.5 55 475.5 45C455.63 28.4414 448.778 11 439.5 5H184.5C169.5 5 143 11 127.5 22.5Z" fill="#1F1E1E"/>
<path d="M52 234.5C41.0701 248.673 11.1667 288.776 5 299.5V356.5C26 286 78.1105 242.09 100.5 221.5C156.5 170 218.278 146.147 257 141.5C307 135.5 346.69 163.55 358 185C387 240 402.694 315.05 407 327C427 382.5 441.5 419.5 497.5 423.5C553.5 427.5 596.5 391 640 348C676.133 312.282 695 291.5 747.5 208C765.324 179.651 804.5 83 868 54C909.906 34.8616 963.5 49 985 70.5C1006.5 92 1017 118.5 1022.5 141.5C1026.92 160 1038.5 195 1048 225C1063.09 272.667 1108.5 380.905 1138 373V200C1114.5 200 1103.5 188.5 1096.5 182C1087.64 173.775 1078.5 151.5 1075 134C1069.58 106.888 1072 101.5 1056 54C1047.61 29.1014 1016.5 12.5925 1004 5H839.5C828 5 822 9.5 797.5 34C773 58.5 756.5 84 731.5 121.5C651.919 240.871 636.5 246.406 589.5 259C542.5 271.594 513 265 487.5 248.5C462.045 232.029 445.5 185.5 439.5 160C433.659 135.178 427 83 382 52.5C351.868 32.0774 306 39 278 45C217.179 58.033 97.5 175.5 52 234.5Z" fill="#1F1E1E"/>
<path d="M1063 5C1070 23.5 1068.37 26.8117 1075 40C1083.55 57 1110 110 1138 110V46.5C1133 44 1124.04 37 1120 30C1113.36 18.5 1112.5 8.5 1112.5 5H1063Z" fill="#1F1E1E"/>
<path d="M120 244C86 276.5 61.5 289 5 419V503.5C80 398 161.368 377.087 226 368.5C297.5 359 332.5 403 348.5 419C363 433.5 388.259 480.092 394.5 506.5C398.163 522 412.432 569.156 431.5 585.5C452.5 603.5 519.76 599.296 549 585.5C620 552 681.587 467.596 717.5 423.5C757 375 772.031 353.18 810 299.5C839 258.5 870.652 235.03 899.5 238C933.5 241.5 960.567 298.13 967 318.5C982 366 980.279 387.5 985 419.5C989.233 448.189 1000.26 500.112 1006 522C1025 594.5 1047.85 609.269 1081 619C1106.55 626.5 1128 606 1138 585.5V446C1133.5 453 1124.76 460.47 1096.5 457C1068 453.5 1047.08 425 1039 411C1030.92 397 1020 373 1007.5 318.5C1002.13 295.107 990.788 178.136 973.5 128C958.5 84.5 928 54 872 107C840.107 137.184 782.344 250.188 759.5 279C722 326.297 713 360 645 423.5C623.294 443.77 553 506.5 513 506.5C473 506.5 470 509.5 426 473.5C400.083 452.295 394.5 437 375 368.5C368.519 345.733 368 231 288.5 203C226.493 181.161 162.732 203.153 120 244Z" fill="#1F1E1E"/>
<path d="M100.5 454C69.1917 477.822 22.8333 527.805 5 543V638.5C35.5 585.5 103.826 536.419 156.5 526.5C233.5 512 268.5 519 304 543C338.307 566.193 345.285 604 348.5 616C351.715 628 351.5 660.321 361.5 663H592C629.335 637.833 701.636 575.508 724.5 552C760 515.5 801 500.5 853 505.5C905 510.5 915.919 546.5 919 558C924.627 579 930.009 601.326 934.5 622.5C941.5 655.5 953.5 658.5 969.5 663H1120.5C1092.5 663 1038 660.5 1007.5 629C996.187 617.316 963.073 588.403 967 529.5C971.367 464 967.912 433.941 962.5 408C948 338.5 928.5 318.5 880.5 318.5C832.5 318.5 795.5 373.5 766.5 413C724.5 470.207 697 523.5 657 558C620.644 589.357 579.5 624.715 543.5 645.5C507.5 666.285 449.337 666.035 420.5 654.5C385.5 640.5 375.5 597 369 556C362.5 515 351.494 494.704 345 476C332.5 440 285.5 409 234 409C182.5 409 146.5 419 100.5 454Z" fill="#1F1E1E"/>
<path d="M833 542.5C786.621 541.111 716.833 637.333 689.5 663H927.5C910 658.5 916.5 545 833 542.5Z" fill="#1F1E1E"/>
<path d="M216 565.5C144.8 565.5 87 565.5 22.5 663H291.5C266.5 641 287.2 565.5 216 565.5Z" fill="#1F1E1E"/>
<path d="M496 5C512 17.5 534.1 30 568.5 30C602.9 30 649.333 19.6667 669 5H496Z" fill="#1F1E1E"/>
<path d="M5 61H4.5V130.5H5H5.5V61H5ZM122.5 5V4.5H52V5V5.5H122.5V5ZM439.5 5V4.5H184.5V5V5.5H439.5V5ZM669 5V4.5H496V5V5.5H669V5ZM5 185H4.5V265H5H5.5V185H5ZM791.5 5V4.5H711V5V5.5H791.5V5ZM1004 5V4.5H839.5V5V5.5H1004V5ZM5 299.5H4.5V356.5H5H5.5V299.5H5ZM1138 373H1138.5V200H1138H1137.5V373H1138ZM5 419H4.5V503.5H5H5.5V419H5ZM1138 585.5H1138.5V446H1138H1137.5V585.5H1138ZM5 543H4.5V638.5H5H5.5V543H5ZM361.5 663V663.5H592V663V662.5H361.5V663ZM969.5 663V663.5H1120.5V663V662.5H969.5V663ZM22.5 663V663.5H291.5V663V662.5H22.5V663ZM689.5 663V663.5H927.5V663V662.5H689.5V663ZM1112.5 5V4.5H1063V5V5.5H1112.5V5ZM1138 110H1138.5V46.5H1138H1137.5V110H1138ZM1143 0H1144V-1H1143V0ZM1143 668V669H1144V668H1143ZM0 668H-1V669H0V668ZM0 0V-1H-1V0H0ZM5 663H4V664H5V663ZM1138 663V664H1139V663H1138ZM1138 5H1139V4H1138V5ZM5 5V4H4V5H5ZM5 61L4.00314 60.9208L4 60.9603V61H5ZM26 17L26.8044 17.5941L26 17ZM52 5V6L52.256 4.03332L52 5ZM5 130.5L4.07682 130.116L4 130.3V130.5H5ZM52 50L52.7506 50.6608L52 50ZM122.5 5V4H122.368L122.241 4.03407L122.5 5ZM5 185H4L5.94783 185.319L5 185ZM127.5 22.5L128.096 23.3031L127.5 22.5ZM439.5 5V4H436.112L438.957 5.83971L439.5 5ZM475.5 45L476.14 44.2318L476.14 44.2318L475.5 45ZM711 5L711.719 5.69542L713.359 4H711V5ZM496 5L496.616 4.21198L496.344 4H496V5ZM669 5V4H668.668L668.402 4.19837L669 5ZM5 265L4.04669 264.698L4 264.845V265H5ZM122.5 97.5L121.844 96.7453L122.5 97.5ZM687 107L686.366 106.226L687 107ZM5 299.5H4V303.245L5.8669 299.998L5 299.5ZM52 234.5L52.7919 235.111L52 234.5ZM278 45L277.79 44.0222L278 45ZM382 52.5L382.561 51.6722L382 52.5ZM439.5 160L440.473 159.771L439.5 160ZM487.5 248.5L488.043 247.66L488.043 247.66L487.5 248.5ZM731.5 121.5L732.332 122.055L731.5 121.5ZM1063 5L1063.94 4.64611L1063.69 4H1063V5ZM1075 40L1075.89 39.5508L1075 40ZM1138 110H1139V109H1138V110ZM1004 5V4H1000.43L1003.48 5.85469L1004 5ZM1056 54L1055.05 54.3192L1056 54ZM1075 134L1074.02 134.196L1075 134ZM1096.5 182L1095.82 182.733L1095.82 182.733L1096.5 182ZM1138 200V201H1139V200H1138ZM5 356.5L4.04161 356.215L4 356.354V356.5H5ZM100.5 221.5L99.8231 220.764L100.5 221.5ZM257 141.5L257.119 142.493L257 141.5ZM358 185L357.115 185.466L358 185ZM407 327L407.941 326.661L407 327ZM640 348L639.297 347.289L640 348ZM747.5 208L748.347 208.532L747.5 208ZM868 54L867.585 53.0904L868 54ZM1022.5 141.5L1023.47 141.267L1022.5 141.5ZM1048 225L1047.05 225.302L1048 225ZM1138 373H1139V371.697L1137.74 372.034L1138 373ZM5 419H4L5.91713 419.399L5 419ZM120 244L120.691 244.723L120.691 244.723L120 244ZM288.5 203L288.832 202.057L288.5 203ZM375 368.5L375.962 368.226L375 368.5ZM426 473.5L425.367 474.274L426 473.5ZM645 423.5L645.683 424.231L645.683 424.231L645 423.5ZM759.5 279L760.284 279.621L759.5 279ZM872 107L872.687 107.726L872 107ZM973.5 128L974.445 127.674L973.5 128ZM1007.5 318.5L1006.53 318.724L1007.5 318.5ZM1096.5 457L1096.62 456.007L1096.5 457ZM1138 446L1138.84 446.541L1139 446.294V446H1138ZM5 503.5L4.18496 502.921L4 503.181V503.5H5ZM226 368.5L225.868 367.509L226 368.5ZM394.5 506.5L393.527 506.73L394.5 506.5ZM431.5 585.5L430.849 586.259L430.849 586.259L431.5 585.5ZM549 585.5L548.573 584.596L549 585.5ZM717.5 423.5L716.725 422.869L717.5 423.5ZM810 299.5L809.184 298.923L810 299.5ZM899.5 238L899.398 238.995L899.5 238ZM967 318.5L967.954 318.199L967 318.5ZM985 419.5L985.989 419.354L985 419.5ZM1006 522L1006.97 521.746L1006 522ZM1081 619L1081.28 618.04L1081 619ZM1138 585.5H1139L1137.1 585.062L1138 585.5ZM5 543H4V545.166L5.64855 543.761L5 543ZM100.5 454L101.106 454.796L100.5 454ZM345 476L345.945 475.672L345 476ZM420.5 654.5L420.129 655.428L420.5 654.5ZM657 558L656.347 557.243L657 558ZM766.5 413L765.694 412.408L766.5 413ZM962.5 408L963.479 407.796L962.5 408ZM967 529.5L966.002 529.433L967 529.5ZM1007.5 629L1008.22 628.304L1008.22 628.304L1007.5 629ZM5 638.5L4.13327 638.001L4 638.233V638.5H5ZM156.5 526.5L156.685 527.483L156.5 526.5ZM304 543L303.44 543.828L303.44 543.828L304 543ZM361.5 663V664L361.759 662.034L361.5 663ZM592 663L591.441 662.171L588.727 664H592V663ZM724.5 552L725.217 552.697L725.217 552.697L724.5 552ZM919 558L918.034 558.259L919 558ZM934.5 622.5L933.522 622.708L934.5 622.5ZM969.5 663V664L969.771 662.037L969.5 663ZM22.5 663V664H23.0375L23.334 663.552L22.5 663ZM291.5 663L290.839 663.751L291.123 664H291.5V663ZM689.5 663V664H689.896L690.185 663.729L689.5 663ZM833 542.5L832.97 543.5L833 542.5ZM927.5 663L927.251 663.968L927.373 664H927.5V663ZM1112.5 5V4H1111.5V5H1112.5ZM1120 30L1119.13 30.5L1120 30ZM1138 46.5L1137.55 47.3944L1139 48.118V46.5H1138ZM1143 0H1142V668H1143H1144V0H1143ZM1143 668V667H0V668V669H1143V668ZM0 668H1V0H0H-1V668H0ZM0 0V1H1143V0V-1H0V0ZM5 5H4V97.5H5H6V5H5ZM42.5 5V4H5V5V6H42.5V5ZM5 97.5H6V61H5H4V97.5H5ZM5 61C5.99686 61.0792 5.99682 61.0796 5.9968 61.08C5.99679 61.08 5.99677 61.0803 5.99677 61.0804C5.99676 61.0805 5.99677 61.0803 5.9968 61.0799C5.99687 61.0791 5.99703 61.0772 5.99729 61.0743C5.9978 61.0684 5.99871 61.0583 6.00007 61.044C6.00279 61.0154 6.00734 60.9701 6.01422 60.9082C6.02799 60.7845 6.0511 60.5948 6.08765 60.3412C6.16076 59.8338 6.28766 59.0705 6.50117 58.0674C6.92816 56.0613 7.70167 53.0957 9.08447 49.3002C11.8497 41.7104 17.0539 30.795 26.8044 17.5941L26 17L25.1956 16.4059C15.3325 29.7593 10.0367 40.844 7.2053 48.6156C5.7898 52.5008 4.99087 55.5562 4.54499 57.651C4.32206 58.6984 4.18742 59.5054 4.1081 60.0559C4.06844 60.3311 4.04261 60.5421 4.02649 60.687C4.01843 60.7594 4.0128 60.8153 4.00908 60.8543C4.00722 60.8738 4.00584 60.8892 4.00487 60.9003C4.00439 60.9058 4.00401 60.9103 4.00372 60.9137C4.00358 60.9154 4.00346 60.9169 4.00336 60.918C4.00332 60.9186 4.00326 60.9193 4.00324 60.9196C4.00319 60.9202 4.00314 60.9208 5 61ZM52 5V4H42.5V5V6H52V5ZM26 17L26.8044 17.5941C32.4833 9.90557 38.7625 7.0354 43.5745 6.05658C45.9913 5.56494 48.0549 5.54745 49.5069 5.6512C50.2325 5.70304 50.8038 5.78506 51.1881 5.85264C51.3802 5.88642 51.5253 5.91656 51.6194 5.93745C51.6664 5.94789 51.7007 5.95602 51.7216 5.96113C51.7321 5.96368 51.7392 5.96548 51.743 5.96643C51.7449 5.96691 51.7459 5.96718 51.7461 5.96722C51.7462 5.96724 51.746 5.96721 51.7457 5.96712C51.7455 5.96708 51.7451 5.96697 51.745 5.96694C51.7445 5.96682 51.744 5.96668 52 5C52.256 4.03332 52.2554 4.03315 52.2547 4.03297C52.2544 4.03289 52.2536 4.03269 52.253 4.03253C52.2518 4.03222 52.2504 4.03184 52.2487 4.03141C52.2454 4.03055 52.2412 4.02947 52.2361 4.02818C52.226 4.02561 52.2124 4.02221 52.1954 4.01806C52.1614 4.00977 52.1138 3.99851 52.053 3.98501C51.9314 3.95801 51.7572 3.92203 51.5346 3.88287C51.0894 3.80459 50.4498 3.71347 49.6494 3.65629C48.0494 3.54197 45.8005 3.5628 43.1758 4.09672C37.9044 5.16899 31.1837 8.29882 25.1956 16.4059L26 17ZM5 130.5L5.92318 130.884C14.6651 109.887 26.9467 79.9723 52.7506 50.6608L52 50L51.2494 49.3392C25.2072 78.9215 12.8212 109.113 4.07682 130.116L5 130.5ZM52 50L52.7506 50.6608C78.8899 20.9682 104.24 10.928 122.759 5.96593L122.5 5L122.241 4.03407C103.439 9.07203 77.7088 19.283 51.2494 49.3392L52 50ZM5 130.5H4V185H5H6V130.5H5ZM5 185L5.94783 185.319C24.6562 129.693 47.8857 94.6291 70.0561 70.7713C92.2476 46.8908 113.369 34.2296 128.096 23.3031L127.5 22.5L126.904 21.6969C112.327 32.512 90.9485 45.3508 68.591 69.4099C46.2124 93.4917 22.8438 128.807 4.05217 184.681L5 185ZM184.5 5V4H122.5V5V6H184.5V5ZM127.5 22.5L128.096 23.3031C135.711 17.6529 146.084 13.3199 156.458 10.4001C166.828 7.4816 177.111 6 184.5 6V5V4C176.889 4 166.422 5.5184 155.917 8.4749C145.416 11.4301 134.789 15.8471 126.904 21.6969L127.5 22.5ZM439.5 5L438.957 5.83971C441.148 7.25644 443.238 9.37838 445.473 12.0889C447.71 14.8016 450.032 18.0271 452.726 21.6385C458.097 28.8379 464.833 37.4129 474.86 45.7682L475.5 45L476.14 44.2318C466.296 36.0285 459.672 27.6036 454.329 20.4426C451.667 16.8738 449.295 13.579 447.016 10.8165C444.737 8.0518 442.491 5.74356 440.043 4.16029L439.5 5ZM475.5 45L474.86 45.7682C476.319 46.9842 477.569 48.2276 478.804 49.4932C480.031 50.7505 481.258 52.0474 482.626 53.3123C485.392 55.8706 488.752 58.3178 494.157 60.4313C504.895 64.6305 523.687 67.5 562 67.5V66.5V65.5C523.703 65.5 505.244 62.6195 494.885 58.5687C489.741 56.5572 486.591 54.2544 483.984 51.8439C482.665 50.6245 481.49 49.3823 480.236 48.0966C478.99 46.8193 477.681 45.5158 476.14 44.2318L475.5 45ZM562 66.5V67.5C605.87 67.5 635.783 59.853 658.517 48.2659C681.241 36.6836 696.715 21.199 711.719 5.69542L711 5L710.281 4.30458C695.285 19.801 680.009 35.0664 657.608 46.4841C635.217 57.897 605.63 65.5 562 65.5V66.5ZM496 5V4H439.5V5V6H496V5ZM496 5L495.384 5.78802C511.506 18.383 533.817 31 568.5 31V30V29C534.383 29 512.494 16.617 496.616 4.21198L496 5ZM711 5V4H669V5V6H711V5ZM568.5 30V31C585.788 31 606.076 28.4049 624.509 23.9723C642.914 19.5464 659.599 13.2584 669.598 5.80163L669 5L668.402 4.19837C658.734 11.4083 642.37 17.6203 624.041 22.0277C605.741 26.4284 585.612 29 568.5 29V30ZM5 265L5.95331 265.302C31.369 185.068 87.6426 129.124 123.156 98.2547L122.5 97.5L121.844 96.7453C86.244 127.69 29.631 183.932 4.04669 264.698L5 265ZM122.5 97.5L123.156 98.2547C188.08 41.8205 262.352 6 316.5 6V5V4C261.648 4 186.92 40.1795 121.844 96.7453L122.5 97.5ZM316.5 5V6C343.777 6 364.583 6.63269 381.268 11.8913C397.865 17.122 410.422 26.9469 421.134 45.5L422 45L422.866 44.5C411.927 25.5531 398.985 15.378 381.869 9.98375C364.842 4.61731 343.723 4 316.5 4V5ZM422 45L421.134 45.5C431.985 64.2941 449.154 89.8632 469.454 111.374C489.718 132.846 513.268 150.454 536.893 152.994L537 152L537.107 151.006C514.232 148.546 491.107 131.404 470.909 110.001C450.747 88.6368 433.666 63.2059 422.866 44.5L422 45ZM537 152L536.893 152.994C583.626 158.019 640.402 146.463 687.634 107.774L687 107L686.366 106.226C639.598 144.537 583.374 155.981 537.107 151.006L537 152ZM687 107L687.634 107.774C693.883 102.655 701.804 93.681 710.56 83.1831C719.351 72.6424 728.983 60.5658 738.757 49.0746C748.522 37.5945 758.358 26.7854 767.483 18.8522C772.044 14.886 776.403 11.6607 780.463 9.43103C784.532 7.19687 788.234 6 791.5 6V5V4C787.766 4 783.723 5.35952 779.501 7.67794C775.27 10.0009 770.792 13.3243 766.17 17.3429C756.928 25.3791 747.012 36.2833 737.234 47.7788C727.465 59.2633 717.762 71.4244 709.024 81.9021C700.249 92.4224 692.445 101.247 686.366 106.226L687 107ZM5 265H4V299.5H5H6V265H5ZM5 299.5L5.8669 299.998C8.91639 294.695 17.8946 282.04 27.5208 268.884C37.1297 255.751 47.333 242.189 52.7919 235.111L52 234.5L51.2081 233.889C45.7371 240.984 35.5237 254.559 25.9067 267.703C16.3071 280.823 7.25028 293.581 4.1331 299.002L5 299.5ZM52 234.5L52.7919 235.111C75.496 205.67 116.745 161.599 159.919 123.26C181.503 104.093 203.55 86.3749 223.985 72.6408C244.442 58.8913 263.197 49.1948 278.21 45.9778L278 45L277.79 44.0222C262.393 47.3217 243.38 57.1959 222.869 70.9808C202.336 84.7811 180.216 102.561 158.591 121.765C115.344 160.168 74.004 204.33 51.2081 233.889L52 234.5ZM278 45L278.21 45.9778C292.185 42.9831 310.57 39.7698 329.197 39.8415C347.835 39.9133 366.606 43.2745 381.439 53.3278L382 52.5L382.561 51.6722C367.262 41.3029 348.033 37.9141 329.204 37.8415C310.364 37.769 291.815 41.0169 277.79 44.0222L278 45ZM382 52.5L381.439 53.3278C426.045 83.561 432.651 135.259 438.527 160.229L439.5 160L440.473 159.771C434.668 135.097 427.955 82.439 382.561 51.6722L382 52.5ZM439.5 160L438.527 160.229C441.54 173.034 447.197 191.112 455.302 208.067C463.391 224.99 473.99 240.949 486.957 249.34L487.5 248.5L488.043 247.66C475.555 239.58 465.154 224.039 457.107 207.205C449.075 190.403 443.46 172.466 440.473 159.771L439.5 160ZM487.5 248.5L486.957 249.34C499.811 257.657 513.701 263.493 530.309 265.652C546.907 267.809 566.167 266.287 589.759 259.966L589.5 259L589.241 258.034C565.833 264.306 546.843 265.784 530.566 263.668C514.299 261.554 500.689 255.843 488.043 247.66L487.5 248.5ZM589.5 259L589.759 259.966C613.29 253.661 629.092 249.079 648.955 231.032C668.737 213.057 692.55 181.728 732.332 122.055L731.5 121.5L730.668 120.945C690.869 180.643 667.182 211.767 647.61 229.551C628.118 247.262 612.71 251.746 589.241 258.034L589.5 259ZM731.5 121.5L732.332 122.055C757.349 84.5293 773.792 59.1225 798.207 34.7071L797.5 34L796.793 33.2929C772.208 57.8775 755.651 83.4707 730.668 120.945L731.5 121.5ZM839.5 5V4H791.5V5V6H839.5V5ZM797.5 34L798.207 34.7071C810.474 22.4404 818.034 15.2596 823.947 11.1325C829.779 7.0625 833.954 6 839.5 6V5V4C833.546 4 828.971 5.1875 822.803 9.49247C816.716 13.7404 809.026 21.0596 796.793 33.2929L797.5 34ZM1063 5L1062.06 5.35389C1065.55 14.5525 1066.88 19.9614 1068.17 24.7531C1069.48 29.5823 1070.75 33.7758 1074.11 40.4492L1075 40L1075.89 39.5508C1072.62 33.0359 1071.39 28.9794 1070.1 24.2306C1068.81 19.4445 1067.45 13.9475 1063.94 4.64611L1063 5ZM1075 40L1074.11 40.4492C1078.38 48.9435 1087.16 66.5133 1098.4 81.9632C1104.01 89.6876 1110.27 96.9222 1116.92 102.234C1123.56 107.54 1130.68 111 1138 111V110V109C1131.32 109 1124.63 105.835 1118.17 100.672C1111.72 95.5153 1105.58 88.4374 1100.01 80.7868C1088.89 65.4867 1080.17 48.0565 1075.89 39.5508L1075 40ZM1063 5V4H1004V5V6H1063V5ZM1004 5L1003.48 5.85469C1009.77 9.67621 1020.6 15.6561 1030.92 23.7956C1041.26 31.9409 1050.95 42.1441 1055.05 54.3192L1056 54L1056.95 53.6808C1052.66 40.9573 1042.61 30.4567 1032.16 22.2248C1021.71 13.9871 1010.73 7.91632 1004.52 4.14531L1004 5ZM1056 54L1055.05 54.3192C1071.03 101.739 1068.58 106.985 1074.02 134.196L1075 134L1075.98 133.804C1070.58 106.79 1072.97 101.261 1056.95 53.6808L1056 54ZM1075 134L1074.02 134.196C1075.78 143.021 1078.97 153.033 1082.82 161.878C1086.67 170.692 1091.23 178.475 1095.82 182.733L1096.5 182L1097.18 181.267C1092.91 177.3 1088.47 169.833 1084.66 161.078C1080.85 152.355 1077.72 142.479 1075.98 133.804L1075 134ZM1138 200H1139V110H1138H1137V200H1138ZM1096.5 182L1095.82 182.733C1102.84 189.247 1114.09 201 1138 201V200V199C1114.91 199 1104.16 187.753 1097.18 181.267L1096.5 182ZM5 356.5L5.95839 356.785C26.8675 286.591 78.7548 242.856 101.177 222.236L100.5 221.5L99.8231 220.764C77.4662 241.324 25.1325 285.409 4.04161 356.215L5 356.5ZM100.5 221.5L101.177 222.236C157.036 170.866 218.622 147.112 257.119 142.493L257 141.5L256.881 140.507C217.933 145.181 155.964 169.134 99.8231 220.764L100.5 221.5ZM257 141.5L257.119 142.493C281.901 139.519 304.125 144.983 321.556 153.848C339.009 162.724 351.581 174.97 357.115 185.466L358 185L358.885 184.534C353.109 173.581 340.181 161.076 322.462 152.065C304.72 143.042 282.099 137.481 256.881 140.507L257 141.5ZM358 185L357.115 185.466C371.57 212.88 382.721 245.319 390.802 272.43C394.841 285.98 398.109 298.188 400.638 307.761C403.158 317.298 404.963 324.297 406.059 327.339L407 327L407.941 326.661C406.884 323.728 405.112 316.865 402.572 307.25C400.041 297.672 396.766 285.439 392.719 271.858C384.626 244.706 373.43 212.12 358.885 184.534L358 185ZM407 327L406.059 327.339C416.045 355.049 424.72 378.341 437.964 395.181C451.275 412.105 469.168 422.479 497.429 424.497L497.5 423.5L497.571 422.503C469.832 420.521 452.475 410.395 439.536 393.944C426.53 377.409 417.955 354.451 407.941 326.661L407 327ZM497.5 423.5L497.429 424.497C553.933 428.533 597.235 391.68 640.703 348.711L640 348L639.297 347.289C595.765 390.32 553.067 426.467 497.571 422.503L497.5 423.5ZM640 348L640.703 348.711C676.9 312.931 695.813 292.085 748.347 208.532L747.5 208L746.653 207.468C694.187 290.915 675.366 311.634 639.297 347.289L640 348ZM747.5 208L748.347 208.532C752.828 201.404 758.648 189.991 765.801 176.525C772.969 163.031 781.507 147.413 791.465 131.782C811.404 100.482 836.942 69.2831 868.415 54.9096L868 54L867.585 53.0904C835.558 67.7169 809.758 99.3433 789.778 130.707C779.777 146.407 771.21 162.08 764.035 175.587C756.845 189.122 751.084 200.422 746.653 207.468L747.5 208ZM868 54L868.415 54.9096C889.142 45.4437 912.802 44.1922 933.976 47.9949C955.167 51.8008 973.729 60.6436 984.293 71.2071L985 70.5L985.707 69.7929C974.771 58.8564 955.786 49.8801 934.329 46.0264C912.854 42.1694 888.764 43.4179 867.585 53.0904L868 54ZM985 70.5L984.293 71.2071C1005.62 92.5298 1016.05 118.835 1021.53 141.733L1022.5 141.5L1023.47 141.267C1017.95 118.165 1007.38 91.4702 985.707 69.7929L985 70.5ZM1022.5 141.5L1021.53 141.733C1025.96 160.279 1037.56 195.339 1047.05 225.302L1048 225L1048.95 224.698C1039.44 194.661 1027.89 159.721 1023.47 141.267L1022.5 141.5ZM1048 225L1047.05 225.302C1054.61 249.182 1069.76 288.215 1086.71 320.307C1095.19 336.346 1104.15 350.706 1112.87 360.575C1117.22 365.508 1121.56 369.365 1125.79 371.737C1130.03 374.114 1134.24 375.043 1138.26 373.966L1138 373L1137.74 372.034C1134.39 372.933 1130.72 372.209 1126.77 369.993C1122.81 367.773 1118.65 364.098 1114.36 359.251C1105.8 349.559 1096.93 335.363 1088.48 319.372C1071.59 287.405 1056.49 248.486 1048.95 224.698L1048 225ZM5 356.5H4V419H5H6V356.5H5ZM5 419L5.91713 419.399C34.1546 354.427 54.3689 318.882 71.7398 295.534C89.1107 272.186 103.63 261.032 120.691 244.723L120 244L119.309 243.277C102.37 259.468 87.6393 270.814 70.1352 294.341C52.6311 317.868 32.3454 353.573 4.08287 418.601L5 419ZM120 244L120.691 244.723C163.213 204.077 226.591 182.256 288.168 203.943L288.5 203L288.832 202.057C226.396 180.067 162.251 202.229 119.309 243.277L120 244ZM288.5 203L288.168 203.943C327.47 217.785 347.333 253.088 358.177 288.009C363.594 305.454 366.742 322.749 368.941 337.125C370.043 344.324 370.901 350.752 371.694 356.146C372.482 361.506 373.207 365.854 374.038 368.774L375 368.5L375.962 368.226C375.173 365.454 374.464 361.237 373.673 355.855C372.886 350.507 372.019 344.018 370.918 336.822C368.713 322.407 365.547 305 360.087 287.416C349.176 252.278 329.03 216.215 288.832 202.057L288.5 203ZM375 368.5L374.038 368.774C383.781 402.998 390.074 424.035 397.189 439.161C404.337 454.359 412.317 463.597 425.367 474.274L426 473.5L426.633 472.726C413.766 462.198 405.996 453.187 398.999 438.31C391.968 423.363 385.719 402.502 375.962 368.226L375 368.5ZM426 473.5L425.367 474.274C447.345 492.256 459.231 500.631 470.684 504.449C482.132 508.265 493.11 507.5 513 507.5V506.5V505.5C492.89 505.5 482.368 506.235 471.316 502.551C460.269 498.869 448.655 490.744 426.633 472.726L426 473.5ZM513 506.5V507.5C523.23 507.5 535.289 503.499 547.89 497.278C560.512 491.047 573.777 482.538 586.445 473.412C611.782 455.16 634.817 434.377 645.683 424.231L645 423.5L644.317 422.769C633.477 432.893 610.512 453.61 585.276 471.79C572.657 480.88 559.491 489.321 547.005 495.485C534.498 501.659 522.77 505.5 513 505.5V506.5ZM645 423.5L645.683 424.231C679.739 392.428 699.035 368.073 714.509 345.744C730.005 323.384 741.555 303.242 760.284 279.621L759.5 279L758.716 278.379C739.945 302.055 728.245 322.413 712.866 344.604C697.465 366.826 678.261 391.072 644.317 422.769L645 423.5ZM759.5 279L760.284 279.621C766.041 272.36 773.966 259.84 783.087 244.731C792.211 229.616 802.585 211.822 813.215 194.027C823.855 176.218 834.768 158.381 845.01 143.114C855.264 127.83 864.802 115.19 872.687 107.726L872 107L871.313 106.274C863.252 113.903 853.61 126.706 843.349 142C833.077 157.312 822.142 175.186 811.498 193.002C800.846 210.832 790.502 228.578 781.374 243.698C772.243 258.824 764.381 271.234 758.716 278.379L759.5 279ZM872 107L872.687 107.726C900.598 81.3112 921.816 76.0228 937.762 82.2441C953.823 88.5105 965.071 106.624 972.555 128.326L973.5 128L974.445 127.674C966.929 105.876 955.427 86.9895 938.488 80.3809C921.434 73.7272 899.402 79.6888 871.313 106.274L872 107ZM973.5 128L972.555 128.326C981.163 153.291 988.311 194.974 993.982 233.425C996.815 252.636 999.275 271.008 1001.36 286.054C1003.45 301.073 1005.17 312.822 1006.53 318.724L1007.5 318.5L1008.47 318.276C1007.15 312.482 1005.44 300.837 1003.35 285.778C1001.26 270.746 998.795 252.355 995.96 233.133C990.295 194.716 983.125 152.845 974.445 127.674L973.5 128ZM1007.5 318.5L1006.53 318.724C1019.04 373.284 1029.99 397.387 1038.13 411.5L1039 411L1039.87 410.5C1031.85 396.613 1020.96 372.716 1008.47 318.276L1007.5 318.5ZM1039 411L1038.13 411.5C1042.21 418.557 1049.51 429.266 1059.4 438.662C1069.29 448.053 1081.83 456.206 1096.38 457.993L1096.5 457L1096.62 456.007C1082.67 454.294 1070.5 446.447 1060.78 437.213C1051.07 427.984 1043.87 417.443 1039.87 410.5L1039 411ZM1138 446H1139V373H1138H1137V446H1138ZM1096.5 457L1096.38 457.993C1110.59 459.738 1120.02 458.749 1126.5 456.365C1133.03 453.965 1136.5 450.18 1138.84 446.541L1138 446L1137.16 445.459C1135 448.82 1131.85 452.27 1125.81 454.488C1119.74 456.721 1110.67 457.732 1096.62 456.007L1096.5 457ZM5 503.5L5.81504 504.079C43.2295 451.45 82.2025 419.957 119.846 400.547C157.497 381.133 193.868 373.778 226.132 369.491L226 368.5L225.868 367.509C193.5 371.809 156.871 379.205 118.93 398.769C80.9815 418.337 41.7705 450.05 4.18496 502.921L5 503.5ZM226 368.5L226.132 369.491C297.078 360.065 331.741 403.656 347.793 419.707L348.5 419L349.207 418.293C333.259 402.344 297.922 357.935 225.868 367.509L226 368.5ZM348.5 419L347.793 419.707C354.931 426.845 364.814 442.005 373.714 458.754C382.607 475.488 390.436 493.649 393.527 506.73L394.5 506.5L395.473 506.27C392.324 492.943 384.402 474.604 375.48 457.815C366.566 441.041 356.569 425.655 349.207 418.293L348.5 419ZM394.5 506.5L393.527 506.73C395.368 514.523 399.866 530.237 406.297 546.06C412.707 561.834 421.115 577.916 430.849 586.259L431.5 585.5L432.151 584.741C422.817 576.74 414.556 561.072 408.149 545.307C401.763 529.591 397.294 513.977 395.473 506.27L394.5 506.5ZM431.5 585.5L430.849 586.259C436.291 590.924 444.631 594.08 454.413 596.015C464.218 597.954 475.584 598.687 487.183 598.423C510.353 597.896 534.632 593.385 549.427 586.404L549 585.5L548.573 584.596C534.127 591.412 510.157 595.9 487.137 596.424C475.641 596.685 464.427 595.957 454.801 594.053C445.151 592.144 437.209 589.076 432.151 584.741L431.5 585.5ZM549 585.5L549.427 586.404C585.098 569.573 618.348 539.988 647.138 509.156C675.93 478.323 700.346 446.146 718.275 424.131L717.5 423.5L716.725 422.869C698.74 444.951 674.407 477.024 645.677 507.791C616.945 538.56 583.902 567.927 548.573 584.596L549 585.5ZM717.5 423.5L718.275 424.131C757.799 375.602 772.847 353.758 810.816 300.077L810 299.5L809.184 298.923C771.214 352.603 756.201 374.398 716.725 422.869L717.5 423.5ZM810 299.5L810.816 300.077C825.275 279.636 840.361 263.614 855.381 253.08C870.402 242.545 885.29 237.542 899.398 238.995L899.5 238L899.602 237.005C884.863 235.488 869.5 240.735 854.233 251.443C838.965 262.151 823.725 278.364 809.184 298.923L810 299.5ZM899.5 238L899.398 238.995C907.636 239.843 915.523 243.918 922.85 249.962C930.174 256.003 936.886 263.967 942.764 272.491C954.525 289.545 962.858 308.704 966.046 318.801L967 318.5L967.954 318.199C964.709 307.925 956.292 288.584 944.411 271.356C938.468 262.739 931.636 254.616 924.122 248.419C916.611 242.223 908.364 237.907 899.602 237.005L899.5 238ZM967 318.5L966.046 318.801C981.015 366.201 979.268 387.501 984.011 419.646L985 419.5L985.989 419.354C981.289 387.499 982.985 365.799 967.954 318.199L967 318.5ZM985 419.5L984.011 419.646C988.25 448.376 999.288 500.334 1005.03 522.254L1006 522L1006.97 521.746C1001.24 499.89 990.216 448.003 985.989 419.354L985 419.5ZM1006 522L1005.03 522.254C1014.55 558.562 1025.06 580.554 1037.44 594.697C1049.85 608.874 1064.06 615.07 1080.72 619.96L1081 619L1081.28 618.04C1064.79 613.199 1051 607.145 1038.95 593.379C1026.87 579.58 1016.45 557.938 1006.97 521.746L1006 522ZM1138 663H1139V585.5H1138H1137V663H1138ZM1081 619L1080.72 619.96C1093.84 623.812 1105.9 620.455 1115.9 613.574C1125.88 606.706 1133.84 596.307 1138.9 585.938L1138 585.5L1137.1 585.062C1132.16 595.193 1124.4 605.294 1114.76 611.926C1105.15 618.545 1093.71 621.688 1081.28 618.04L1081 619ZM5 503.5H4V543H5H6V503.5H5ZM5 543L5.64855 543.761C14.6005 536.134 30.6976 519.79 48.3967 502.449C66.1335 485.072 85.5082 466.663 101.106 454.796L100.5 454L99.8945 453.204C84.1835 465.158 64.7249 483.652 46.9971 501.021C29.2316 518.426 13.2328 534.671 4.35145 542.239L5 543ZM100.5 454L101.106 454.796C124.04 437.346 144.441 426.158 165.496 419.326C186.553 412.494 208.316 410 234 410V409V408C208.184 408 186.197 410.506 164.879 417.424C143.559 424.342 122.96 435.654 99.8945 453.204L100.5 454ZM234 409V410C259.554 410 283.997 417.693 303.598 429.85C323.209 442.013 337.9 458.599 344.055 476.328L345 476L345.945 475.672C339.6 457.401 324.541 440.487 304.652 428.15C284.753 415.807 259.946 408 234 408V409ZM345 476L344.055 476.328C350.59 495.147 361.531 515.273 368.012 556.157L369 556L369.988 555.843C363.469 514.727 352.399 494.26 345.945 475.672L345 476ZM369 556L368.012 556.157C371.263 576.662 375.403 597.897 383.145 615.772C390.893 633.662 402.296 648.296 420.129 655.428L420.5 654.5L420.871 653.572C403.704 646.704 392.607 632.588 384.98 614.978C377.347 597.353 373.237 576.338 369.988 555.843L369 556ZM420.5 654.5L420.129 655.428C434.722 661.266 456.626 664.217 479.362 663.119C502.103 662.02 525.816 656.865 544 646.366L543.5 645.5L543 644.634C525.184 654.92 501.816 660.032 479.266 661.121C456.711 662.21 435.115 659.269 420.871 653.572L420.5 654.5ZM543.5 645.5L544 646.366C580.099 625.524 621.32 590.095 657.653 558.757L657 558L656.347 557.243C619.969 588.619 578.901 623.906 543 644.634L543.5 645.5ZM657 558L657.653 558.757C677.753 541.421 694.687 519.386 711.823 494.584C728.984 469.744 746.312 442.187 767.306 413.592L766.5 413L765.694 412.408C744.688 441.02 727.266 468.713 710.177 493.447C693.063 518.218 676.247 540.079 656.347 557.243L657 558ZM766.5 413L767.306 413.592C781.831 393.808 798.274 370.266 817.079 351.648C835.888 333.025 856.896 319.5 880.5 319.5V318.5V317.5C856.104 317.5 834.612 331.475 815.671 350.227C796.726 368.984 780.169 392.692 765.694 412.408L766.5 413ZM880.5 318.5V319.5C904.361 319.5 920.908 324.468 933.329 337.867C945.817 351.339 954.275 373.474 961.521 408.204L962.5 408L963.479 407.796C956.225 373.026 947.683 350.411 934.796 336.508C921.842 322.532 904.639 317.5 880.5 317.5V318.5ZM962.5 408L961.521 408.204C966.91 434.036 970.364 464 966.002 529.433L967 529.5L967.998 529.567C972.369 464 968.914 433.847 963.479 407.796L962.5 408ZM967 529.5L966.002 529.433C962.043 588.817 995.475 618.019 1006.78 629.696L1007.5 629L1008.22 628.304C996.899 616.613 964.103 587.989 967.998 529.567L967 529.5ZM1120.5 663V664H1138V663V662H1120.5V663ZM1007.5 629L1006.78 629.696C1022.23 645.645 1043.69 654.207 1064.72 658.79C1085.77 663.375 1106.48 664 1120.5 664V663V662C1106.52 662 1085.98 661.375 1065.15 656.835C1044.31 652.293 1023.27 643.855 1008.22 628.304L1007.5 629ZM5 638.5H4V663H5H6V638.5H5ZM5 638.5L5.86673 638.999C21.0307 612.648 45.6296 587.226 73.0257 567.151C100.427 547.073 130.54 532.406 156.685 527.483L156.5 526.5L156.315 525.517C129.786 530.513 99.3991 545.346 71.8436 565.538C44.2833 585.733 19.4693 611.352 4.13327 638.001L5 638.5ZM156.5 526.5L156.685 527.483C195.141 520.241 223.023 518.386 245.685 521.304C268.316 524.218 285.795 531.899 303.44 543.828L304 543L304.56 542.172C286.705 530.101 268.934 522.282 245.94 519.321C222.977 516.364 194.859 518.259 156.315 525.517L156.5 526.5ZM304 543L303.44 543.828C337.385 566.777 344.297 604.177 347.534 616.259L348.5 616L349.466 615.741C346.272 603.823 339.229 565.609 304.56 542.172L304 543ZM348.5 616L347.534 616.259C348.317 619.18 348.899 623.379 349.489 628.152C350.075 632.895 350.666 638.173 351.469 643.154C352.27 648.129 353.295 652.884 354.774 656.584C356.227 660.223 358.248 663.164 361.241 663.966L361.5 663L361.759 662.034C359.752 661.496 358.05 659.393 356.631 655.842C355.237 652.354 354.239 647.777 353.443 642.836C352.648 637.902 352.064 632.683 351.474 627.907C350.887 623.161 350.291 618.82 349.466 615.741L348.5 616ZM592 663L592.559 663.829C629.957 638.62 702.311 576.249 725.217 552.697L724.5 552L723.783 551.303C700.961 574.768 628.712 637.047 591.441 662.171L592 663ZM724.5 552L725.217 552.697C760.502 516.419 801.201 501.524 852.904 506.495L853 505.5L853.096 504.505C800.799 499.476 759.498 514.581 723.783 551.303L724.5 552ZM853 505.5L852.904 506.495C878.657 508.972 894.148 519.106 903.59 529.968C913.053 540.857 916.505 552.553 918.034 558.259L919 558L919.966 557.741C918.413 551.947 914.866 539.893 905.099 528.657C895.311 517.394 879.343 507.028 853.096 504.505L853 505.5ZM919 558L918.034 558.259C923.657 579.243 929.034 601.552 933.522 622.708L934.5 622.5L935.478 622.292C930.983 601.101 925.597 578.757 919.966 557.741L919 558ZM934.5 622.5L933.522 622.708C937.04 639.295 941.851 648.531 947.946 654.171C954.028 659.801 961.277 661.726 969.229 663.963L969.5 663L969.771 662.037C961.723 659.774 954.972 657.949 949.304 652.704C943.649 647.469 938.96 638.705 935.478 622.292L934.5 622.5ZM5 663V664H22.5V663V662H5V663ZM22.5 663L23.334 663.552C55.505 614.921 85.9318 590.712 117.099 578.62C148.308 566.511 180.367 566.5 216 566.5V565.5V564.5C180.433 564.5 147.992 564.489 116.376 576.755C84.7182 589.038 53.995 613.579 21.666 662.448L22.5 663ZM291.5 663V664H361.5V663V662H291.5V663ZM216 565.5V566.5C233.613 566.5 245.417 571.164 253.659 578.392C261.924 585.64 266.721 595.565 270.122 606.302C271.821 611.667 273.165 617.213 274.424 622.706C275.679 628.186 276.853 633.633 278.202 638.74C280.892 648.923 284.344 658.035 290.839 663.751L291.5 663L292.161 662.249C286.156 656.965 282.82 648.39 280.136 638.229C278.797 633.164 277.637 627.775 276.373 622.259C275.113 616.756 273.754 611.145 272.028 605.698C268.579 594.81 263.639 584.485 254.978 576.889C246.296 569.274 233.987 564.5 216 564.5V565.5ZM592 663V664H689.5V663V662H592V663ZM689.5 663L690.185 663.729C697.062 657.271 706.588 646.398 717.681 633.81C728.793 621.2 741.512 606.829 754.821 593.306C768.133 579.779 782.006 567.132 795.42 557.958C808.861 548.766 821.699 543.162 832.97 543.5L833 542.5L833.03 541.5C821.111 541.144 807.833 547.046 794.291 556.307C780.721 565.587 766.744 578.339 753.395 591.903C740.043 605.47 727.291 619.88 716.181 632.487C705.052 645.116 695.605 655.895 688.815 662.271L689.5 663ZM927.5 663V664H969.5V663V662H927.5V663ZM833 542.5L832.97 543.5C853.59 544.117 868.604 551.575 879.835 562.468C891.091 573.384 898.588 587.792 904.064 602.352C909.543 616.922 912.96 631.529 916.131 642.894C917.709 648.55 919.235 653.435 920.935 657.058C922.6 660.608 924.581 663.282 927.251 663.968L927.5 663L927.749 662.032C926.044 661.593 924.4 659.735 922.745 656.208C921.124 652.753 919.635 648.013 918.057 642.356C914.915 631.096 911.457 616.328 905.936 601.648C900.412 586.958 892.784 572.241 881.227 561.032C869.646 549.8 854.16 542.133 833.03 541.5L833 542.5ZM1138 5V4H1112.5V5V6H1138V5ZM1112.5 5H1111.5C1111.5 8.6359 1112.39 18.817 1119.13 30.5L1120 30L1120.87 29.5C1114.33 18.183 1113.5 8.3641 1113.5 5H1112.5ZM1138 46.5H1139V5H1138H1137V46.5H1138ZM1120 30L1119.13 30.5C1121.23 34.1328 1124.57 37.7164 1127.98 40.6913C1131.4 43.6679 1134.96 46.0968 1137.55 47.3944L1138 46.5L1138.45 45.6056C1136.04 44.4032 1132.62 42.0821 1129.3 39.1837C1125.97 36.2836 1122.81 32.8672 1120.87 29.5L1120 30Z" fill="#1F1E1E" mask="url(#path-1-inside-1_154_78)"/>
</svg>
