<svg width="1143" height="668" viewBox="0 0 1143 668" fill="none" xmlns="http://www.w3.org/2000/svg">
<mask id="path-1-inside-1_153_72" fill="white">
<path d="M1143 0V668H0V0H1143ZM5 663H22.5H316H361.5H592H689.5H927.5H969.5H1120.5H1138V585.5V446V373V233.5V145.5V82V5H1091.5H1063H1004H839.5H791.5H747.5H669H496H439.5H220.5H136.5H77.5H42.5H5V97.5V117.5V153.5V185V240V299.5V356.5V419V471V543V603V663Z"/>
<path d="M44 42.5C24.3864 69.0544 5 117.5 5 117.5V153.5C13.7432 132.5 29.3065 95.9469 55.2295 66.5C81.5288 36.6256 117.84 10 136.5 5H77.5C77.5 5 55.667 26.7044 44 42.5Z"/>
<path d="M5 5V97.5L42.5 5H5Z"/>
<path d="M155.5 36C123.9 54.2443 41 150.768 5 185V240C31.8333 214.148 95.7 133.056 136.5 109.5C187.5 80.0551 269 36 323.5 36C378 36 410.849 46 432.5 83.5C454.151 121 466.5 209.5 513 214.5C559.5 219.5 593.5 204.919 628 185C655.6 169.065 748.5 58.3605 791.5 5H747.5C717.5 36 615.7 125.363 556.5 109.5C482.5 89.6718 491.666 69 475.5 41C462.567 18.6 448.778 11 439.5 5H220.5C194.5 11.9667 195 13.1947 155.5 36Z"/>
<path d="M108.5 204C94.7913 215.507 11.1667 288.776 5 299.5V356.5C36.8333 329.382 98.1105 269.09 120.5 248.5C176.5 197 213.778 189.147 252.5 184.5C302.5 178.5 343.625 187.615 361.5 204C397.5 237 402.387 315.166 407 327C418.5 356.5 441.5 419.5 497.5 423.5C553.5 427.5 596.5 391 640 348C676.133 312.282 730.757 237 747.5 208C764.243 179 825.5 104.924 870 93C914.5 81.0763 964.5 85.5 986 107C1007.5 128.5 1020 174 1025.5 197C1029.57 214.02 1036.33 287.645 1048 311.5C1071 358.5 1108.5 380.905 1138 373V233.5C1123.5 233.5 1120.5 233.5 1100.5 220.5C1090.37 213.912 1073.12 196.276 1068.5 152C1065.63 124.5 1061.5 104 1045.5 56.5C1037.11 31.6014 1016.5 12.5925 1004 5H839.5C828 5 837 5.5 812.5 30C788 54.5 744.779 151.321 726 174C634.5 284.5 603.5 286.906 556.5 299.5C509.5 312.094 475.624 291.5 463.5 284.5C451.376 277.5 437.5 238 431.5 212.5C425.659 187.678 420 133.5 375 103C344.868 82.5774 302.5 86 274.5 92C213.679 105.033 205 123 108.5 204Z"/>
<path d="M1063 5C1064.64 22.9842 1074.32 58.8117 1080.95 72C1089.5 89 1110 145.5 1138 145.5V82C1133.1 79.3333 1120.24 68.7 1108 47.5C1095.76 26.3 1091.9 10.3333 1091.5 5H1063Z"/>
<path d="M136.5 307C79.3507 346.674 20.8333 399.169 5 419V471C51.5 440.833 161.368 389.087 226 380.5C297.5 371 332.5 403 348.5 419C363 433.5 388.259 480.092 394.5 506.5C398.163 522 412.432 569.156 431.5 585.5C452.5 603.5 519.76 599.296 549 585.5C620 552 689.5 473 717.5 423.5C744.821 375.201 757.181 338.659 810 299.5C839 278 864.152 276.03 893 279C927 282.5 947.819 300 958.5 318.5C969.181 337 980.5 389 985 419.5C989.233 448.189 994.93 502.266 1006 522C1017.5 542.5 1047.8 571.769 1080.95 581.5C1106.5 589 1128.5 587 1138 585.5V446C1134 447.357 1128 452.369 1100.5 445C1055.45 432.93 1046.58 414.5 1038.5 400.5C1030.42 386.5 1012 349 1007.5 318.5C1004 294.757 993.5 186 972 164.5C950.5 143 925.5 135.5 882 141.5C838.5 147.5 786.344 260.188 763.5 289C726 336.297 713 360 645 423.5C623.294 443.77 553 506.5 513 506.5C473 506.5 453.5 494 416.5 452.5C394.216 427.505 391.337 403.5 375 368.5C364.988 347.05 340 275.182 302 265C238.5 247.985 197 265 136.5 307Z"/>
<path d="M100.5 471C66.5911 490.946 22.8333 527.805 5 543V603C34 583 106.326 552.919 159 543C236 528.5 256 539.782 296 550.5C336 561.218 345.285 604 348.5 616C351.715 628 351.5 660.321 361.5 663H592C629.335 637.833 701.636 575.508 724.5 552C760 515.5 805 476 857 481C909 486 927.873 516.5 933.5 537.5C939.127 558.5 941.009 589.326 945.5 610.5C952.5 643.5 961.5 651 969.5 663H1120.5C1092.5 663 1041.5 642 1011 610.5C999.687 598.816 985 581.5 967 529.5C961.766 514.38 960.476 437.288 958.5 419.5C952 361 928.5 318.5 880.5 318.5C832.5 318.5 795.5 373.5 766.5 413C724.5 470.207 682.981 521.813 657 558C629 597 579.5 624.715 543.5 645.5C507.5 666.285 449.337 666.035 420.5 654.5C385.5 640.5 375.5 597 369 556C362.5 515 351.494 494.704 345 476C332.5 440 277.5 423.5 226 423.5C174.5 423.5 151.5 441 100.5 471Z"/>
<path d="M838 558C791.621 556.611 716.833 637.333 689.5 663H927.5C910 658.5 921.5 560.5 838 558Z"/>
<path d="M230 585.5C158.8 585.5 85.5 610 22.5 663H316C303.167 648.833 301.2 585.5 230 585.5Z"/>
<path d="M496 5C505.333 19.6667 532.6 49 567 49C601.4 49 649.333 19.6667 669 5H496Z"/>
</mask>
<path d="M1143 0V668H0V0H1143ZM5 663H22.5H316H361.5H592H689.5H927.5H969.5H1120.5H1138V585.5V446V373V233.5V145.5V82V5H1091.5H1063H1004H839.5H791.5H747.5H669H496H439.5H220.5H136.5H77.5H42.5H5V97.5V117.5V153.5V185V240V299.5V356.5V419V471V543V603V663Z" fill="#1F1E1E"/>
<path d="M44 42.5C24.3864 69.0544 5 117.5 5 117.5V153.5C13.7432 132.5 29.3065 95.9469 55.2295 66.5C81.5288 36.6256 117.84 10 136.5 5H77.5C77.5 5 55.667 26.7044 44 42.5Z" fill="#1F1E1E"/>
<path d="M5 5V97.5L42.5 5H5Z" fill="#1F1E1E"/>
<path d="M155.5 36C123.9 54.2443 41 150.768 5 185V240C31.8333 214.148 95.7 133.056 136.5 109.5C187.5 80.0551 269 36 323.5 36C378 36 410.849 46 432.5 83.5C454.151 121 466.5 209.5 513 214.5C559.5 219.5 593.5 204.919 628 185C655.6 169.065 748.5 58.3605 791.5 5H747.5C717.5 36 615.7 125.363 556.5 109.5C482.5 89.6718 491.666 69 475.5 41C462.567 18.6 448.778 11 439.5 5H220.5C194.5 11.9667 195 13.1947 155.5 36Z" fill="#1F1E1E"/>
<path d="M108.5 204C94.7913 215.507 11.1667 288.776 5 299.5V356.5C36.8333 329.382 98.1105 269.09 120.5 248.5C176.5 197 213.778 189.147 252.5 184.5C302.5 178.5 343.625 187.615 361.5 204C397.5 237 402.387 315.166 407 327C418.5 356.5 441.5 419.5 497.5 423.5C553.5 427.5 596.5 391 640 348C676.133 312.282 730.757 237 747.5 208C764.243 179 825.5 104.924 870 93C914.5 81.0763 964.5 85.5 986 107C1007.5 128.5 1020 174 1025.5 197C1029.57 214.02 1036.33 287.645 1048 311.5C1071 358.5 1108.5 380.905 1138 373V233.5C1123.5 233.5 1120.5 233.5 1100.5 220.5C1090.37 213.912 1073.12 196.276 1068.5 152C1065.63 124.5 1061.5 104 1045.5 56.5C1037.11 31.6014 1016.5 12.5925 1004 5H839.5C828 5 837 5.5 812.5 30C788 54.5 744.779 151.321 726 174C634.5 284.5 603.5 286.906 556.5 299.5C509.5 312.094 475.624 291.5 463.5 284.5C451.376 277.5 437.5 238 431.5 212.5C425.659 187.678 420 133.5 375 103C344.868 82.5774 302.5 86 274.5 92C213.679 105.033 205 123 108.5 204Z" fill="#1F1E1E"/>
<path d="M1063 5C1064.64 22.9842 1074.32 58.8117 1080.95 72C1089.5 89 1110 145.5 1138 145.5V82C1133.1 79.3333 1120.24 68.7 1108 47.5C1095.76 26.3 1091.9 10.3333 1091.5 5H1063Z" fill="#1F1E1E"/>
<path d="M136.5 307C79.3507 346.674 20.8333 399.169 5 419V471C51.5 440.833 161.368 389.087 226 380.5C297.5 371 332.5 403 348.5 419C363 433.5 388.259 480.092 394.5 506.5C398.163 522 412.432 569.156 431.5 585.5C452.5 603.5 519.76 599.296 549 585.5C620 552 689.5 473 717.5 423.5C744.821 375.201 757.181 338.659 810 299.5C839 278 864.152 276.03 893 279C927 282.5 947.819 300 958.5 318.5C969.181 337 980.5 389 985 419.5C989.233 448.189 994.93 502.266 1006 522C1017.5 542.5 1047.8 571.769 1080.95 581.5C1106.5 589 1128.5 587 1138 585.5V446C1134 447.357 1128 452.369 1100.5 445C1055.45 432.93 1046.58 414.5 1038.5 400.5C1030.42 386.5 1012 349 1007.5 318.5C1004 294.757 993.5 186 972 164.5C950.5 143 925.5 135.5 882 141.5C838.5 147.5 786.344 260.188 763.5 289C726 336.297 713 360 645 423.5C623.294 443.77 553 506.5 513 506.5C473 506.5 453.5 494 416.5 452.5C394.216 427.505 391.337 403.5 375 368.5C364.988 347.05 340 275.182 302 265C238.5 247.985 197 265 136.5 307Z" fill="#1F1E1E"/>
<path d="M100.5 471C66.5911 490.946 22.8333 527.805 5 543V603C34 583 106.326 552.919 159 543C236 528.5 256 539.782 296 550.5C336 561.218 345.285 604 348.5 616C351.715 628 351.5 660.321 361.5 663H592C629.335 637.833 701.636 575.508 724.5 552C760 515.5 805 476 857 481C909 486 927.873 516.5 933.5 537.5C939.127 558.5 941.009 589.326 945.5 610.5C952.5 643.5 961.5 651 969.5 663H1120.5C1092.5 663 1041.5 642 1011 610.5C999.687 598.816 985 581.5 967 529.5C961.766 514.38 960.476 437.288 958.5 419.5C952 361 928.5 318.5 880.5 318.5C832.5 318.5 795.5 373.5 766.5 413C724.5 470.207 682.981 521.813 657 558C629 597 579.5 624.715 543.5 645.5C507.5 666.285 449.337 666.035 420.5 654.5C385.5 640.5 375.5 597 369 556C362.5 515 351.494 494.704 345 476C332.5 440 277.5 423.5 226 423.5C174.5 423.5 151.5 441 100.5 471Z" fill="#1F1E1E"/>
<path d="M838 558C791.621 556.611 716.833 637.333 689.5 663H927.5C910 658.5 921.5 560.5 838 558Z" fill="#1F1E1E"/>
<path d="M230 585.5C158.8 585.5 85.5 610 22.5 663H316C303.167 648.833 301.2 585.5 230 585.5Z" fill="#1F1E1E"/>
<path d="M496 5C505.333 19.6667 532.6 49 567 49C601.4 49 649.333 19.6667 669 5H496Z" fill="#1F1E1E"/>
<path d="M5 5V4.5H4.5V5H5ZM5 5H4.5V97.5H5H5.5V5H5ZM42.5 5V4.5H5V5V5.5H42.5V5ZM5 117.5H4.5V153.5H5H5.5V117.5H5ZM136.5 5V4.5H77.5V5V5.5H136.5V5ZM439.5 5V4.5H220.5V5V5.5H439.5V5ZM669 5V4.5H496V5V5.5H669V5ZM5 185H4.5V240H5H5.5V185H5ZM791.5 5V4.5H747.5V5V5.5H791.5V5ZM1004 5V4.5H839.5V5V5.5H1004V5ZM5 299.5H4.5V356.5H5H5.5V299.5H5ZM1138 373H1138.5V233.5H1138H1137.5V373H1138ZM5 419H4.5V471H5H5.5V419H5ZM1138 585.5H1138.5V446H1138H1137.5V585.5H1138ZM5 543H4.5V603H5H5.5V543H5ZM361.5 663V663.5H592V663V662.5H361.5V663ZM969.5 663V663.5H1120.5V663V662.5H969.5V663ZM22.5 663V663.5H316V663V662.5H22.5V663ZM689.5 663V663.5H927.5V663V662.5H689.5V663ZM1091.5 5V4.5H1063V5V5.5H1091.5V5ZM1138 145.5H1138.5V82H1138H1137.5V145.5H1138ZM1143 0H1144V-1H1143V0ZM1143 668V669H1144V668H1143ZM0 668H-1V669H0V668ZM0 0V-1H-1V0H0ZM5 663H4V664H5V663ZM1138 663V664H1139V663H1138ZM1138 5H1139V4H1138V5ZM5 97.5L4.07326 97.1243L4 97.305V97.5H5ZM42.5 5V4H41.8264L41.5733 4.62429L42.5 5ZM5 117.5H4L5.92842 117.872L5 117.5ZM44 42.5L44.8044 43.0941L44 42.5ZM77.5 5L78.205 5.70919L79.9243 4H77.5V5ZM5 153.5L4.07682 153.116L4 153.3V153.5H5ZM55.2295 66.5L55.9801 67.1608L55.2295 66.5ZM136.5 5V4H136.368L136.241 4.03407L136.5 5ZM5 185H4V187.331L5.68908 185.725L5 185ZM155.5 36L156 36.866L155.5 36ZM220.5 5L220.759 5.96593L220.5 4V5ZM439.5 5V4H436.112L438.957 5.83971L439.5 5ZM475.5 41L474.634 41.5L475.5 41ZM556.5 109.5L556.241 110.466L556.5 109.5ZM747.5 5L748.219 5.69542L749.859 4H747.5V5ZM496 5L496.844 4.46312L496.549 4H496V5ZM669 5V4H668.668L668.402 4.19837L669 5ZM5 240L4.30619 239.28L4 239.575V240H5ZM136.5 109.5L136 108.634L136.5 109.5ZM628 185L627.5 184.134L628 185ZM791.5 5V4H791.022L790.721 4.37254L791.5 5ZM5 299.5H4V303.245L5.8669 299.998L5 299.5ZM108.5 204L107.857 203.234L108.5 204ZM274.5 92L274.29 91.0222L274.5 92ZM375 103L375.561 102.172L375 103ZM431.5 212.5L432.473 212.271L431.5 212.5ZM726 174L725.23 173.362L726 174ZM1063 5L1064 4.90946L1063.91 4H1063V5ZM1080.95 72L1081.85 71.5508L1080.95 72ZM1138 145.5H1139V144.5H1138V145.5ZM1004 5V4H1000.43L1003.48 5.85469L1004 5ZM1045.5 56.5L1044.55 56.8192L1045.5 56.5ZM1068.5 152L1067.51 152.104L1068.5 152ZM1100.5 220.5L1101.04 219.662L1100.5 220.5ZM1138 233.5V234.5H1139V233.5H1138ZM5 356.5L4.35152 355.739L4 356.038V356.5H5ZM120.5 248.5L119.823 247.764L120.5 248.5ZM252.5 184.5L252.619 185.493L252.5 184.5ZM361.5 204L360.824 204.737L360.824 204.737L361.5 204ZM407 327L406.068 327.363L407 327ZM640 348L639.297 347.289L640 348ZM1025.5 197L1024.53 197.233L1025.5 197ZM1048 311.5L1048.9 311.06L1048 311.5ZM1138 373H1139V371.697L1137.74 372.034L1138 373ZM5 419H4V421.855L5.78147 419.624L5 419ZM136.5 307L137.07 307.821L136.5 307ZM302 265L302.259 264.034L302 265ZM375 368.5L375.906 368.077L375 368.5ZM416.5 452.5L415.754 453.165L416.5 452.5ZM645 423.5L645.683 424.231L645.683 424.231L645 423.5ZM763.5 289L764.284 289.621L763.5 289ZM1007.5 318.5L1006.51 318.646L1007.5 318.5ZM1100.5 445L1100.76 444.034L1100.5 445ZM1138 446L1138.32 446.947L1139 446.717V446H1138ZM5 471L4.45575 470.161L4 470.457V471H5ZM226 380.5L225.868 379.509L226 380.5ZM394.5 506.5L393.527 506.73L394.5 506.5ZM431.5 585.5L430.849 586.259L430.849 586.259L431.5 585.5ZM549 585.5L548.573 584.596L549 585.5ZM717.5 423.5L716.63 423.008L717.5 423.5ZM810 299.5L809.404 298.697L809.404 298.697L810 299.5ZM893 279L892.898 279.995L893 279ZM985 419.5L985.989 419.354L985 419.5ZM1006 522L1006.87 521.511L1006 522ZM1080.95 581.5L1081.23 580.54L1080.95 581.5ZM1138 585.5H1139V584.33L1137.84 584.512L1138 585.5ZM5 543H4V545.166L5.64855 543.761L5 543ZM100.5 471L101.007 471.862L101.007 471.862L100.5 471ZM345 476L345.945 475.672L345 476ZM420.5 654.5L420.129 655.428L420.5 654.5ZM657 558L656.188 557.417L656.188 557.417L657 558ZM766.5 413L765.694 412.408L766.5 413ZM958.5 419.5L957.506 419.61L958.5 419.5ZM967 529.5L967.945 529.173L967 529.5ZM1011 610.5L1011.72 609.804L1011.72 609.804L1011 610.5ZM5 603L4.43227 602.177L4 602.475V603H5ZM159 543L159.185 543.983L159 543ZM361.5 663V664L361.759 662.034L361.5 663ZM592 663L591.441 662.171L588.727 664H592V663ZM724.5 552L725.217 552.697L725.217 552.697L724.5 552ZM945.5 610.5L944.522 610.708L945.5 610.5ZM969.5 663V664H971.369L970.332 662.445L969.5 663ZM22.5 663V664H22.8647L23.1438 663.765L22.5 663ZM316 663L315.259 663.671L315.557 664H316V663ZM689.5 663V664H689.896L690.185 663.729L689.5 663ZM838 558L837.97 559L838 558ZM927.5 663L927.251 663.968L927.373 664H927.5V663ZM1091.5 5V4H1090.42L1090.5 5.0748L1091.5 5ZM1138 82L1137.52 82.8784L1139 83.6827V82H1138ZM1143 0H1142V668H1143H1144V0H1143ZM1143 668V667H0V668V669H1143V668ZM0 668H1V0H0H-1V668H0ZM0 0V1H1143V0V-1H0V0ZM5 97.5L5.92674 97.8757L43.4267 5.37571L42.5 5L41.5733 4.62429L4.07326 97.1243L5 97.5ZM5 97.5H4V117.5H5H6V97.5H5ZM5 117.5C5.92842 117.872 5.92847 117.871 5.92859 117.871C5.92872 117.871 5.92892 117.87 5.92919 117.87C5.92974 117.868 5.93059 117.866 5.93173 117.863C5.93401 117.858 5.93746 117.849 5.94208 117.837C5.95131 117.814 5.96521 117.78 5.98368 117.734C6.02064 117.642 6.07593 117.506 6.14898 117.326C6.29507 116.966 6.51218 116.435 6.79562 115.748C7.36251 114.375 8.19469 112.383 9.25475 109.909C11.375 104.961 14.4061 98.0872 18.0489 90.3855C25.3423 74.9651 35.0584 56.289 44.8044 43.0941L44 42.5L43.1956 41.9059C33.328 55.2654 23.5441 74.0893 16.2409 89.5303C12.5853 97.2593 9.544 104.156 7.41641 109.122C6.35254 111.604 5.51693 113.605 4.94701 114.985C4.66205 115.675 4.4435 116.21 4.29604 116.573C4.2223 116.755 4.16634 116.893 4.12874 116.986C4.10994 117.033 4.09572 117.068 4.08617 117.092C4.0814 117.104 4.07779 117.113 4.07535 117.119C4.07413 117.122 4.07321 117.124 4.07258 117.126C4.07226 117.127 4.07201 117.127 4.07186 117.128C4.07168 117.128 4.07158 117.128 5 117.5ZM77.5 5V4H42.5V5V6H77.5V5ZM44 42.5L44.8044 43.0941C50.6018 35.2451 58.9439 25.9049 65.8557 18.5095C69.3079 14.8158 72.3963 11.6145 74.6216 9.33695C75.7341 8.19824 76.6307 7.29061 77.2488 6.66798C77.5578 6.35667 77.7972 6.11662 77.9592 5.95457C78.0402 5.87355 78.1018 5.81203 78.1431 5.77085C78.1638 5.75026 78.1793 5.73476 78.1897 5.72445C78.1949 5.71929 78.1987 5.71543 78.2013 5.71289C78.2026 5.71161 78.2035 5.71067 78.2042 5.71005C78.2045 5.70974 78.2047 5.70953 78.2048 5.70937C78.205 5.70924 78.205 5.70919 77.5 5C76.795 4.29081 76.7949 4.29092 76.7947 4.29112C76.7945 4.2913 76.7942 4.29158 76.7939 4.29193C76.7931 4.29264 76.7921 4.29367 76.7907 4.29504C76.788 4.29776 76.7839 4.3018 76.7786 4.30714C76.7679 4.31781 76.7519 4.33368 76.7309 4.35464C76.6889 4.39656 76.6265 4.45884 76.5447 4.54064C76.3812 4.70424 76.1401 4.94592 75.8294 5.25894C75.2079 5.88497 74.3076 6.7964 73.191 7.93928C70.958 10.2249 67.859 13.437 64.3945 17.1438C57.4731 24.5495 49.0651 33.9593 43.1956 41.9059L44 42.5ZM5 153.5L5.92318 153.884C14.6675 132.882 30.1779 96.4704 55.9801 67.1608L55.2295 66.5L54.4789 65.8392C28.435 95.4235 12.8188 132.118 4.07682 153.116L5 153.5ZM55.2295 66.5L55.9801 67.1608C69.0806 52.2793 84.6817 38.2004 99.3291 27.2223C114.007 16.2212 127.623 8.41392 136.759 5.96593L136.5 5L136.241 4.03407C126.717 6.58608 112.847 14.5916 98.1297 25.6219C83.3818 36.6752 67.6777 50.8463 54.4789 65.8392L55.2295 66.5ZM5 153.5H4V185H5H6V153.5H5ZM5 185L5.68908 185.725C23.7131 168.586 53.4816 135.851 82.6248 105.194C97.2093 89.8517 111.645 75.0207 124.405 62.8889C137.186 50.7363 148.215 41.3607 156 36.866L155.5 36L155 35.134C146.985 39.7614 135.801 49.293 123.027 61.4395C110.23 73.607 95.7657 88.4674 81.1752 103.816C51.9684 134.54 22.2869 167.182 4.31092 184.275L5 185ZM220.5 5V4H136.5V5V6H220.5V5ZM155.5 36L156 36.866C175.79 25.4404 185.483 19.4656 193.509 15.4551C201.48 11.4727 207.776 9.44465 220.759 5.96593L220.5 5L220.241 4.03407C207.224 7.52203 200.77 9.59132 192.616 13.666C184.517 17.7124 174.71 23.7542 155 35.134L155.5 36ZM439.5 5L438.957 5.83971C448.227 11.8345 461.831 19.3251 474.634 41.5L475.5 41L476.366 40.5C463.303 17.8749 449.329 10.1655 440.043 4.16029L439.5 5ZM475.5 41L474.634 41.5C478.634 48.4284 481.062 54.8906 483.647 61.111C486.224 67.314 488.95 73.2526 493.533 78.9417C502.715 90.3397 519.179 100.535 556.241 110.466L556.5 109.5L556.759 108.534C519.821 98.6367 503.868 88.582 495.091 77.6871C490.695 72.2298 488.056 66.5111 485.493 60.3435C482.938 54.1934 480.449 47.5716 476.366 40.5L475.5 41ZM556.5 109.5L556.241 110.466C571.326 114.508 589.017 111.826 607.44 105.164C625.88 98.4953 645.166 87.7977 663.502 75.6573C700.174 51.3765 733.179 21.2359 748.219 5.69542L747.5 5L746.781 4.30458C731.821 19.7641 698.926 49.8048 662.398 73.9897C644.134 86.082 624.995 96.6884 606.76 103.283C588.508 109.883 571.274 112.424 556.759 108.534L556.5 109.5ZM496 5V4H439.5V5V6H496V5ZM496 5L495.156 5.53688C499.883 12.9646 509.114 24.0568 521.502 33.3014C533.89 42.5463 549.513 50 567 50V49V48C550.087 48 534.877 40.7871 522.698 31.6986C510.519 22.6099 501.45 11.7021 496.844 4.46312L496 5ZM747.5 5V4H669V5V6H747.5V5ZM567 49V50C584.436 50 605.189 42.5816 623.964 33.3983C642.768 24.2014 659.72 13.1678 669.598 5.80163L669 5L668.402 4.19837C658.613 11.4989 641.766 22.4652 623.086 31.6017C604.378 40.7517 583.964 48 567 48V49ZM5 240L5.69381 240.72C19.1349 227.771 41.8834 200.955 66.2472 174.567C90.6863 148.099 116.754 122.055 137 110.366L136.5 109.5L136 108.634C115.446 120.501 89.1804 146.781 64.7778 173.211C40.3 199.721 17.6985 226.377 4.30619 239.28L5 240ZM136.5 109.5L137 110.366C162.492 95.6484 195.578 77.2958 229.089 62.6242C262.629 47.9396 296.469 37 323.5 37V36V35C296.031 35 261.871 46.088 228.286 60.7921C194.672 75.5093 161.508 93.9067 136 108.634L136.5 109.5ZM323.5 36V37C350.708 37 372.391 39.4996 389.943 46.6143C407.453 53.7122 420.912 65.4289 431.634 84L432.5 83.5L433.366 83C422.437 64.0711 408.646 52.0378 390.694 44.7607C372.783 37.5004 350.792 35 323.5 35V36ZM432.5 83.5L431.634 84C436.996 93.2871 441.8 105.769 446.732 119.426C451.653 133.05 456.694 147.826 462.51 161.577C468.327 175.327 474.952 188.138 483.083 197.838C491.223 207.549 500.93 214.208 512.893 215.494L513 214.5L513.107 213.506C501.82 212.292 492.546 206.013 484.616 196.553C476.676 187.081 470.143 174.486 464.352 160.798C458.563 147.112 453.551 132.419 448.613 118.746C443.688 105.106 438.829 92.4629 433.366 83L432.5 83.5ZM513 214.5L512.893 215.494C559.701 220.527 593.924 205.828 628.5 185.866L628 185L627.5 184.134C593.076 204.009 559.299 218.473 513.107 213.506L513 214.5ZM628 185L628.5 185.866C635.536 181.804 646.608 171.797 659.856 158.358C673.137 144.886 688.694 127.871 704.725 109.696C736.787 73.3438 770.772 32.3156 792.279 5.62746L791.5 5L790.721 4.37254C769.228 31.0449 735.263 72.0492 703.225 108.373C687.206 126.536 671.676 143.52 658.432 156.954C645.155 170.422 634.264 180.229 627.5 184.134L628 185ZM5 240H4V299.5H5H6V240H5ZM5 299.5L5.8669 299.998C6.56764 298.78 8.46067 296.548 11.38 293.479C14.2684 290.442 18.082 286.668 22.5379 282.394C31.4482 273.847 42.899 263.332 54.5915 252.786C77.9778 231.694 102.301 210.509 109.143 204.766L108.5 204L107.857 203.234C100.99 208.998 76.6468 230.201 53.252 251.301C41.5539 261.852 30.0855 272.383 21.1534 280.95C16.6881 285.233 12.8497 289.032 9.93097 292.1C7.04323 295.136 4.97403 297.539 4.1331 299.002L5 299.5ZM108.5 204L109.143 204.766C157.458 164.211 183.669 139.54 205.477 123.315C227.185 107.163 244.424 99.4675 274.71 92.9778L274.5 92L274.29 91.0222C243.755 97.5655 226.245 105.37 204.283 121.71C182.421 137.976 156.042 162.789 107.857 203.234L108.5 204ZM274.5 92L274.71 92.9778C302.672 86.9859 344.672 83.6526 374.439 103.828L375 103L375.561 102.172C345.064 81.5022 302.328 85.0141 274.29 91.0222L274.5 92ZM375 103L374.439 103.828C419.037 134.055 424.641 187.717 430.527 212.729L431.5 212.5L432.473 212.271C426.678 187.638 420.963 132.945 375.561 102.172L375 103ZM431.5 212.5L430.527 212.729C433.537 225.524 438.521 241.825 444.279 255.818C447.157 262.813 450.238 269.256 453.375 274.403C456.49 279.515 459.739 283.483 463 285.366L463.5 284.5L464 283.634C461.199 282.017 458.167 278.423 455.083 273.362C452.02 268.338 448.984 261.999 446.128 255.057C440.416 241.175 435.463 224.976 432.473 212.271L431.5 212.5ZM463.5 284.5L463 285.366C475.146 292.378 509.339 313.172 556.759 300.466L556.5 299.5L556.241 298.534C509.661 311.015 476.103 290.622 464 283.634L463.5 284.5ZM556.5 299.5L556.759 300.466C580.212 294.182 599.881 290.396 625.1 274.308C650.294 258.236 680.998 229.914 726.77 174.638L726 174L725.23 173.362C679.502 228.586 648.956 256.717 624.025 272.622C599.119 288.51 579.788 292.225 556.241 298.534L556.5 299.5ZM726 174L726.77 174.638C731.532 168.887 737.796 158.503 744.866 145.866C751.946 133.208 759.883 118.198 767.985 103.157C776.092 88.1067 784.368 73.0178 792.145 60.1644C799.935 47.2889 807.176 36.738 813.207 30.7071L812.5 30L811.793 29.2929C805.574 35.512 798.225 46.2512 790.434 59.1291C782.629 72.029 774.332 87.1564 766.224 102.209C758.111 117.27 750.191 132.25 743.12 144.889C736.038 157.55 729.857 167.774 725.23 173.362L726 174ZM839.5 5V4H791.5V5V6H839.5V5ZM812.5 30L813.207 30.7071C825.519 18.395 829.434 12.0883 831.692 8.88918C832.82 7.2906 833.386 6.70964 834.223 6.3983C834.671 6.23182 835.25 6.12575 836.111 6.06702C836.974 6.00821 838.057 6 839.5 6V5V4C838.068 4 836.917 4.00742 835.975 4.07165C835.032 4.13597 834.235 4.26037 833.527 4.52357C832.052 5.07161 831.18 6.1469 830.058 7.73582C827.816 10.9117 823.981 17.105 811.793 29.2929L812.5 30ZM1063 5L1062 5.09054C1062.83 14.1676 1065.68 27.6852 1069.14 40.5581C1072.59 53.4208 1076.7 65.7584 1080.06 72.4492L1080.95 72L1081.85 71.5508C1078.58 65.0534 1074.52 52.8831 1071.07 40.0389C1067.62 27.2049 1064.81 13.8166 1064 4.90946L1063 5ZM1080.95 72L1080.06 72.4492C1084.26 80.813 1091.61 99.3624 1101.32 115.637C1106.19 123.799 1111.7 131.484 1117.8 137.139C1123.88 142.791 1130.65 146.5 1138 146.5V145.5V144.5C1131.35 144.5 1125.05 141.147 1119.16 135.673C1113.26 130.203 1107.87 122.701 1103.04 114.613C1093.36 98.3876 1086.19 80.187 1081.85 71.5508L1080.95 72ZM1063 5V4H1004V5V6H1063V5ZM1004 5L1003.48 5.85469C1015.84 13.3619 1036.26 32.2035 1044.55 56.8192L1045.5 56.5L1046.45 56.1808C1037.97 30.9993 1017.16 11.8232 1004.52 4.14531L1004 5ZM1045.5 56.5L1044.55 56.8192C1060.54 104.27 1064.65 124.696 1067.51 152.104L1068.5 152L1069.49 151.896C1066.62 124.304 1062.46 103.73 1046.45 56.1808L1045.5 56.5ZM1068.5 152L1067.51 152.104C1072.15 196.635 1089.53 214.563 1099.96 221.338L1100.5 220.5L1101.04 219.662C1091.2 213.262 1074.09 195.918 1069.49 151.896L1068.5 152ZM1138 233.5H1139V145.5H1138H1137V233.5H1138ZM1100.5 220.5L1099.96 221.338C1109.95 227.833 1115.8 231.156 1121.01 232.827C1126.24 234.508 1130.78 234.5 1138 234.5V233.5V232.5C1130.72 232.5 1126.51 232.492 1121.62 230.923C1116.7 229.344 1111.05 226.167 1101.04 219.662L1100.5 220.5ZM5 356.5L5.64848 357.261C37.4931 330.134 98.8476 269.771 121.177 249.236L120.5 248.5L119.823 247.764C97.3734 268.41 36.1735 328.63 4.35152 355.739L5 356.5ZM120.5 248.5L121.177 249.236C149.113 223.545 172.338 208.778 193.37 199.851C214.4 190.924 233.29 187.812 252.619 185.493L252.5 184.5L252.381 183.507C232.988 185.834 213.878 188.973 192.588 198.009C171.301 207.046 147.887 221.955 119.823 247.764L120.5 248.5ZM252.5 184.5L252.619 185.493C277.532 182.503 300.209 183.283 318.86 186.838C337.533 190.397 352.079 196.72 360.824 204.737L361.5 204L362.176 203.263C353.046 194.894 338.092 188.467 319.234 184.873C300.354 181.274 277.468 180.497 252.381 183.507L252.5 184.5ZM361.5 204L360.824 204.737C378.591 221.023 388.757 248.557 395.05 273.68C398.19 286.216 400.353 298.098 402.022 307.602C402.855 312.348 403.568 316.515 404.215 319.861C404.858 323.183 405.454 325.786 406.068 327.363L407 327L407.932 326.637C407.393 325.255 406.827 322.827 406.179 319.481C405.535 316.157 404.828 312.018 403.992 307.256C402.322 297.745 400.148 285.804 396.99 273.194C390.686 248.026 380.409 219.977 362.176 203.263L361.5 204ZM407 327L406.068 327.363C411.809 342.088 420.475 365.336 434.748 385.392C449.03 405.463 469.018 422.468 497.429 424.497L497.5 423.5L497.571 422.503C469.982 420.532 450.47 404.037 436.377 384.233C422.275 364.414 413.691 341.412 407.932 326.637L407 327ZM497.5 423.5L497.429 424.497C553.933 428.533 597.235 391.68 640.703 348.711L640 348L639.297 347.289C595.765 390.32 553.067 426.467 497.571 422.503L497.5 423.5ZM640 348L640.703 348.711C676.91 312.92 731.587 237.563 748.366 208.5L747.5 208L746.634 207.5C729.927 236.437 675.355 311.645 639.297 347.289L640 348ZM747.5 208L748.366 208.5C756.685 194.091 776.128 168.387 799.058 144.793C810.518 133.002 822.829 121.758 835.035 112.725C847.253 103.683 859.308 96.9002 870.259 93.9659L870 93L869.741 92.0341C858.442 95.0616 846.153 102.009 833.846 111.117C821.527 120.233 809.134 131.556 797.624 143.399C774.615 167.075 755.058 192.909 746.634 207.5L747.5 208ZM870 93L870.259 93.9659C892.397 88.034 915.897 86.1717 936.515 88.46C957.162 90.7516 974.773 97.1876 985.293 107.707L986 107L986.707 106.293C975.727 95.3124 957.588 88.7866 936.735 86.4722C915.853 84.1546 892.103 86.0422 869.741 92.0341L870 93ZM986 107L985.293 107.707C995.89 118.305 1004.33 134.893 1010.82 151.796C1017.29 168.674 1021.78 185.75 1024.53 197.233L1025.5 197L1026.47 196.767C1023.72 185.25 1019.21 168.076 1012.68 151.079C1006.17 134.107 997.61 117.195 986.707 106.293L986 107ZM1025.5 197L1024.53 197.233C1025.53 201.432 1026.71 209.172 1028.1 218.859C1029.49 228.52 1031.08 240.075 1032.91 251.841C1034.74 263.606 1036.81 275.602 1039.16 286.156C1041.5 296.689 1044.13 305.862 1047.1 311.94L1048 311.5L1048.9 311.06C1046.04 305.21 1043.44 296.235 1041.11 285.722C1038.78 275.23 1036.71 263.283 1034.89 251.533C1033.06 239.783 1031.47 228.25 1030.08 218.574C1028.7 208.924 1027.5 201.078 1026.47 196.767L1025.5 197ZM1048 311.5L1047.1 311.94C1070.18 359.107 1108.06 382.057 1138.26 373.966L1138 373L1137.74 372.034C1108.94 379.752 1071.82 357.893 1048.9 311.06L1048 311.5ZM5 356.5H4V419H5H6V356.5H5ZM5 419L5.78147 419.624C13.6357 409.787 32.1614 391.757 55.911 371.197C79.642 350.654 108.53 327.634 137.07 307.821L136.5 307L135.93 306.179C107.32 326.04 78.3754 349.105 54.602 369.685C30.8473 390.249 12.1976 408.382 4.21853 418.376L5 419ZM136.5 307L137.07 307.821C167.298 286.837 192.688 272.161 218.399 264.831C244.077 257.511 270.141 257.499 301.741 265.966L302 265L302.259 264.034C270.359 255.487 243.923 255.475 217.851 262.908C191.812 270.331 166.202 285.163 135.93 306.179L136.5 307ZM302 265L301.741 265.966C310.988 268.444 319.52 274.698 327.294 283.129C335.064 291.554 342.018 302.088 348.122 313.012C360.352 334.9 369.036 358.088 374.094 368.923L375 368.5L375.906 368.077C370.952 357.463 362.136 333.991 349.868 312.037C343.724 301.04 336.681 290.358 328.765 281.773C320.854 273.195 312.012 266.647 302.259 264.034L302 265ZM375 368.5L374.094 368.923C382.255 386.407 387.008 401.036 392.595 414.632C398.166 428.191 404.509 440.553 415.754 453.165L416.5 452.5L417.246 451.835C406.207 439.452 399.968 427.314 394.445 413.872C388.937 400.467 384.082 385.593 375.906 368.077L375 368.5ZM416.5 452.5L415.754 453.165C434.262 473.925 448.477 487.531 463.128 495.93C477.821 504.353 492.881 507.5 513 507.5V506.5V505.5C493.119 505.5 478.429 502.397 464.122 494.195C449.773 485.969 435.738 472.575 417.246 451.835L416.5 452.5ZM513 506.5V507.5C523.23 507.5 535.289 503.499 547.89 497.278C560.512 491.047 573.777 482.538 586.445 473.412C611.782 455.16 634.817 434.377 645.683 424.231L645 423.5L644.317 422.769C633.477 432.893 610.512 453.61 585.276 471.79C572.657 480.88 559.491 489.321 547.005 495.485C534.498 501.659 522.77 505.5 513 505.5V506.5ZM645 423.5L645.683 424.231C713.752 360.666 726.81 336.885 764.284 289.621L763.5 289L762.716 288.379C725.19 335.71 712.248 359.334 644.317 422.769L645 423.5ZM763.5 289L764.284 289.621C770.045 282.354 777.626 269.841 786.394 255.154C795.18 240.437 805.188 223.484 815.84 207.244C826.495 191 837.767 175.511 849.067 163.718C860.4 151.892 871.615 143.942 882.137 142.491L882 141.5L881.863 140.509C870.635 142.058 859.018 150.444 847.623 162.335C836.196 174.259 824.845 189.868 814.168 206.147C803.488 222.43 793.455 239.426 784.677 254.129C775.882 268.862 768.377 281.24 762.716 288.379L763.5 289ZM882 141.5L882.137 142.491C903.813 139.501 920.793 139.888 934.994 143.654C949.174 147.415 960.649 154.563 971.293 165.207L972 164.5L972.707 163.793C961.851 152.937 950.076 145.585 935.506 141.721C920.957 137.862 903.687 137.499 881.863 140.509L882 141.5ZM972 164.5L971.293 165.207C973.86 167.775 976.317 171.704 978.647 176.736C980.972 181.756 983.143 187.812 985.166 194.58C989.212 208.116 992.642 224.425 995.514 240.831C1001.26 273.672 1004.75 306.7 1006.51 318.646L1007.5 318.5L1008.49 318.354C1006.75 306.557 1003.23 273.335 997.484 240.486C994.606 224.048 991.161 207.652 987.083 194.008C985.043 187.185 982.84 181.032 980.462 175.896C978.089 170.772 975.515 166.6 972.707 163.793L972 164.5ZM1007.5 318.5L1006.51 318.646C1011.04 349.336 1029.53 386.968 1037.63 401L1038.5 400.5L1039.37 400C1031.3 386.032 1012.96 348.664 1008.49 318.354L1007.5 318.5ZM1038.5 400.5L1037.63 401C1041.66 407.973 1045.97 416.229 1054.97 424.221C1063.98 432.217 1077.61 439.902 1100.24 445.966L1100.5 445L1100.76 444.034C1078.34 438.028 1065.02 430.463 1056.3 422.726C1047.59 414.986 1043.42 407.027 1039.37 400L1038.5 400.5ZM1138 446H1139V373H1138H1137V446H1138ZM1100.5 445L1100.24 445.966C1114.05 449.667 1122.56 450.284 1128.15 449.768C1133.75 449.252 1136.5 447.566 1138.32 446.947L1138 446L1137.68 445.053C1135.5 445.791 1133.25 447.289 1127.97 447.776C1122.69 448.263 1114.45 447.702 1100.76 444.034L1100.5 445ZM5 471L5.54425 471.839C28.7328 456.795 67.7708 436.343 109.095 418.576C150.434 400.804 193.956 385.766 226.132 381.491L226 380.5L225.868 379.509C193.412 383.821 149.684 398.95 108.306 416.739C66.9132 434.534 27.7672 455.038 4.45575 470.161L5 471ZM226 380.5L226.132 381.491C261.704 376.765 288.141 382.366 307.654 391.1C327.176 399.838 339.823 411.737 347.793 419.707L348.5 419L349.207 418.293C341.177 410.263 328.324 398.162 308.471 389.275C288.609 380.384 261.796 374.735 225.868 379.509L226 380.5ZM348.5 419L347.793 419.707C354.931 426.845 364.814 442.005 373.714 458.754C382.607 475.488 390.436 493.649 393.527 506.73L394.5 506.5L395.473 506.27C392.324 492.943 384.402 474.604 375.48 457.815C366.566 441.041 356.569 425.655 349.207 418.293L348.5 419ZM394.5 506.5L393.527 506.73C395.368 514.523 399.866 530.237 406.297 546.06C412.707 561.834 421.115 577.916 430.849 586.259L431.5 585.5L432.151 584.741C422.817 576.74 414.556 561.072 408.149 545.307C401.763 529.591 397.294 513.977 395.473 506.27L394.5 506.5ZM431.5 585.5L430.849 586.259C436.291 590.924 444.631 594.08 454.413 596.015C464.218 597.954 475.584 598.687 487.183 598.423C510.353 597.896 534.632 593.385 549.427 586.404L549 585.5L548.573 584.596C534.127 591.412 510.157 595.9 487.137 596.424C475.641 596.685 464.427 595.957 454.801 594.053C445.151 592.144 437.209 589.076 432.151 584.741L431.5 585.5ZM549 585.5L549.427 586.404C585.071 569.586 620.29 541.375 650.087 511.203C679.885 481.028 704.319 448.834 718.37 423.992L717.5 423.5L716.63 423.008C702.681 447.666 678.365 479.722 648.663 509.797C618.96 539.875 583.929 567.914 548.573 584.596L549 585.5ZM717.5 423.5L718.37 423.992C745.753 375.584 757.993 339.302 810.596 300.303L810 299.5L809.404 298.697C756.369 338.016 743.889 374.817 716.63 423.008L717.5 423.5ZM810 299.5L810.596 300.303C839.329 279.001 864.202 277.041 892.898 279.995L893 279L893.102 278.005C864.103 275.02 838.671 276.999 809.404 298.697L810 299.5ZM893 279L892.898 279.995C926.566 283.461 947.107 300.766 957.634 319L958.5 318.5L959.366 318C948.531 299.234 927.434 281.539 893.102 278.005L893 279ZM958.5 318.5L957.634 319C962.894 328.111 968.367 345.605 973.097 364.74C977.817 383.834 981.765 404.428 984.011 419.646L985 419.5L985.989 419.354C983.735 404.072 979.774 383.416 975.039 364.26C970.314 345.145 964.787 327.389 959.366 318L958.5 318.5ZM985 419.5L984.011 419.646C986.121 433.947 988.611 454.694 991.95 474.276C993.621 484.076 995.509 493.613 997.676 501.945C999.839 510.262 1002.3 517.442 1005.13 522.489L1006 522L1006.87 521.511C1004.17 516.691 1001.76 509.711 999.611 501.442C997.465 493.187 995.588 483.712 993.922 473.94C990.586 454.378 988.112 433.742 985.989 419.354L985 419.5ZM1006 522L1005.13 522.489C1010.95 532.866 1021.49 545.398 1034.71 556.553C1047.94 567.71 1063.93 577.544 1080.67 582.46L1080.95 581.5L1081.23 580.54C1064.83 575.725 1049.09 566.059 1036 555.024C1022.92 543.986 1012.55 531.634 1006.87 521.511L1006 522ZM1138 663H1139V585.5H1138H1137V663H1138ZM1080.95 581.5L1080.67 582.46C1106.41 590.015 1128.57 588.002 1138.16 586.488L1138 585.5L1137.84 584.512C1128.43 585.998 1106.59 587.985 1081.23 580.54L1080.95 581.5ZM5 471H4V543H5H6V471H5ZM5 543L5.64855 543.761C23.495 528.555 67.1865 491.756 101.007 471.862L100.5 471L99.993 470.138C65.9957 490.136 22.1716 527.055 4.35145 542.239L5 543ZM100.5 471L101.007 471.862C152.074 441.822 174.826 424.5 226 424.5V423.5V422.5C174.174 422.5 150.926 440.178 99.993 470.138L100.5 471ZM226 423.5V424.5C251.657 424.5 278.151 428.612 299.756 437.18C321.385 445.757 337.943 458.725 344.055 476.328L345 476L345.945 475.672C339.557 457.275 322.365 443.993 300.494 435.32C278.599 426.638 251.843 422.5 226 422.5V423.5ZM345 476L344.055 476.328C350.59 495.147 361.531 515.273 368.012 556.157L369 556L369.988 555.843C363.469 514.727 352.399 494.26 345.945 475.672L345 476ZM369 556L368.012 556.157C371.263 576.662 375.403 597.897 383.145 615.772C390.893 633.662 402.296 648.296 420.129 655.428L420.5 654.5L420.871 653.572C403.704 646.704 392.607 632.588 384.98 614.978C377.347 597.353 373.237 576.338 369.988 555.843L369 556ZM420.5 654.5L420.129 655.428C434.722 661.266 456.626 664.217 479.362 663.119C502.103 662.02 525.816 656.865 544 646.366L543.5 645.5L543 644.634C525.184 654.92 501.816 660.032 479.266 661.121C456.711 662.21 435.115 659.269 420.871 653.572L420.5 654.5ZM543.5 645.5L544 646.366C579.941 625.615 629.661 597.795 657.812 558.583L657 558L656.188 557.417C628.339 596.205 579.059 623.815 543 644.634L543.5 645.5ZM657 558L657.812 558.583C670.791 540.506 687.655 518.572 706.536 493.992C725.413 469.417 746.299 442.205 767.306 413.592L766.5 413L765.694 412.408C744.701 441.002 723.828 468.197 704.95 492.773C686.076 517.344 669.19 539.307 656.188 557.417L657 558ZM766.5 413L767.306 413.592C781.831 393.808 798.274 370.266 817.079 351.648C835.888 333.025 856.896 319.5 880.5 319.5V318.5V317.5C856.104 317.5 834.612 331.475 815.671 350.227C796.726 368.984 780.169 392.692 765.694 412.408L766.5 413ZM880.5 318.5V319.5C904.148 319.5 921.73 329.945 934.246 347.64C946.796 365.383 954.265 390.443 957.506 419.61L958.5 419.5L959.494 419.39C956.235 390.057 948.704 364.617 935.879 346.485C923.02 328.305 904.852 317.5 880.5 317.5V318.5ZM958.5 419.5L957.506 419.61C958.49 428.466 959.304 452.116 960.53 475.553C961.142 487.249 961.856 498.875 962.746 508.527C963.631 518.132 964.7 525.912 966.055 529.827L967 529.5L967.945 529.173C966.683 525.528 965.628 518.001 964.738 508.344C963.852 498.732 963.139 487.139 962.527 475.448C961.306 452.112 960.486 428.322 959.494 419.39L958.5 419.5ZM967 529.5L966.055 529.827C984.097 581.948 998.855 599.394 1010.28 611.196L1011 610.5L1011.72 609.804C1000.52 598.238 985.903 581.052 967.945 529.173L967 529.5ZM1120.5 663V664H1138V663V662H1120.5V663ZM1011 610.5L1010.28 611.196C1025.64 627.056 1046.13 640.246 1066.27 649.472C1086.4 658.69 1106.3 664 1120.5 664V663V662C1106.7 662 1087.1 656.81 1067.1 647.653C1047.12 638.504 1026.86 625.444 1011.72 609.804L1011 610.5ZM5 603H4V663H5H6V603H5ZM5 603L5.56773 603.823C19.9762 593.886 45.2266 581.399 73.492 570.149C101.747 558.903 132.932 548.926 159.185 543.983L159 543L158.815 542.017C132.394 546.993 101.079 557.016 72.7524 568.291C44.4363 579.561 19.0238 592.114 4.43227 602.177L5 603ZM159 543L159.185 543.983C197.625 536.744 221.766 535.955 241.256 538.286C260.787 540.623 275.647 546.082 295.741 551.466L296 550.5L296.259 549.534C276.353 544.2 261.213 538.659 241.494 536.3C221.734 533.936 197.375 534.756 158.815 542.017L159 543ZM296 550.5L295.741 551.466C315.406 556.735 327.539 569.881 335.176 583.265C342.822 596.666 345.918 610.227 347.534 616.259L348.5 616L349.466 615.741C347.867 609.773 344.712 595.943 336.913 582.274C329.103 568.587 316.594 554.983 296.259 549.534L296 550.5ZM348.5 616L347.534 616.259C348.317 619.18 348.899 623.379 349.489 628.152C350.075 632.895 350.666 638.173 351.469 643.154C352.27 648.129 353.295 652.884 354.774 656.584C356.227 660.223 358.248 663.164 361.241 663.966L361.5 663L361.759 662.034C359.752 661.496 358.05 659.393 356.631 655.842C355.237 652.354 354.239 647.777 353.443 642.836C352.648 637.902 352.064 632.683 351.474 627.907C350.887 623.161 350.291 618.82 349.466 615.741L348.5 616ZM592 663L592.559 663.829C629.957 638.62 702.311 576.249 725.217 552.697L724.5 552L723.783 551.303C700.961 574.768 628.712 637.047 591.441 662.171L592 663ZM724.5 552L725.217 552.697C742.954 534.46 763.01 515.532 785.091 501.786C807.166 488.044 831.196 479.523 856.904 481.995L857 481L857.096 480.005C830.804 477.477 806.334 486.206 784.034 500.089C761.74 513.968 741.546 533.04 723.783 551.303L724.5 552ZM857 481L856.904 481.995C882.712 484.477 900.221 493.275 911.966 503.989C923.72 514.711 929.76 527.406 932.534 537.759L933.5 537.5L934.466 537.241C931.613 526.594 925.403 513.539 913.314 502.511C901.216 491.475 883.288 482.523 857.096 480.005L857 481ZM933.5 537.5L932.534 537.759C935.328 548.187 937.198 561.081 938.935 574.067C940.667 587.022 942.266 600.073 944.522 610.708L945.5 610.5L946.478 610.292C944.243 599.753 942.655 586.805 940.917 573.802C939.183 560.832 937.299 547.813 934.466 537.241L933.5 537.5ZM945.5 610.5L944.522 610.708C948.037 627.281 952.066 637.503 956.249 645.107C960.393 652.642 964.757 657.689 968.668 663.555L969.5 663L970.332 662.445C966.243 656.311 962.107 651.608 958.001 644.143C953.934 636.747 949.963 626.719 946.478 610.292L945.5 610.5ZM5 663V664H22.5V663V662H5V663ZM22.5 663L23.1438 663.765C85.9621 610.918 159.034 586.5 230 586.5V585.5V584.5C158.566 584.5 85.0379 609.082 21.8562 662.235L22.5 663ZM316 663V664H361.5V663V662H316V663ZM230 585.5V586.5C247.646 586.5 260.938 590.422 271.161 596.478C281.387 602.535 288.603 610.764 294.039 619.467C299.482 628.181 303.127 637.345 306.23 645.278C307.776 649.232 309.196 652.9 310.632 656.021C312.064 659.132 313.55 661.784 315.259 663.671L316 663L316.741 662.329C315.242 660.674 313.859 658.248 312.449 655.184C311.043 652.13 309.647 648.526 308.092 644.55C304.992 636.624 301.289 627.298 295.736 618.408C290.176 609.507 282.748 601.017 272.18 594.757C261.608 588.495 247.954 584.5 230 584.5V585.5ZM592 663V664H689.5V663V662H592V663ZM689.5 663L690.185 663.729C703.908 650.842 729.364 624.315 757.247 601.123C771.18 589.535 785.677 578.816 799.561 571.085C813.467 563.342 826.645 558.66 837.97 559L838 558L838.03 557C826.165 556.645 812.603 561.534 798.588 569.337C784.551 577.153 769.947 587.959 755.968 599.585C728.029 622.824 702.425 649.491 688.815 662.271L689.5 663ZM927.5 663V664H969.5V663V662H927.5V663ZM838 558L837.97 559C858.631 559.618 873.34 566.135 884.09 575.579C894.859 585.041 901.722 597.501 906.567 610.109C911.417 622.733 914.206 635.39 916.91 645.31C918.254 650.241 919.587 654.53 921.156 657.738C922.706 660.907 924.614 663.29 927.251 663.968L927.5 663L927.749 662.032C926.011 661.585 924.45 659.921 922.953 656.86C921.475 653.838 920.183 649.713 918.84 644.784C916.169 634.985 913.333 622.142 908.433 609.391C903.528 596.624 896.516 583.834 885.41 574.077C874.285 564.302 859.119 557.632 838.03 557L838 558ZM1138 5V4H1091.5V5V6H1138V5ZM1091.5 5L1090.5 5.0748C1090.92 10.603 1094.85 26.7157 1107.13 48L1108 47.5L1108.87 47C1096.67 25.8843 1092.88 10.0637 1092.5 4.9252L1091.5 5ZM1138 82H1139V5H1138H1137V82H1138ZM1108 47.5L1107.13 48C1119.44 69.3102 1132.42 80.1 1137.52 82.8784L1138 82L1138.48 81.1216C1133.78 78.5667 1121.04 68.0898 1108.87 47L1108 47.5Z" fill="#1F1E1E" mask="url(#path-1-inside-1_153_72)"/>
</svg>
