<svg width="1143" height="668" viewBox="0 0 1143 668" fill="none" xmlns="http://www.w3.org/2000/svg">
<mask id="path-1-inside-1_153_67" fill="white">
<path d="M1143 0V668H0V0H1143ZM5 663H22.5H316H361.5H592H689.5H927.5H969.5H1056H1138V585.5V478V373V267V145.5V82V5H1091.5H1063H986H876.5H791.5H747.5H669H496H419.5H261H136.5H77.5H42.5H5V97.5V117.5V153.5V185V240V299.5V356.5V419V471V543V603V663Z"/>
<path d="M44 42.5C24.3864 69.0544 5 117.5 5 117.5V153.5C13.7432 132.5 29.3065 95.9469 55.2295 66.5C81.5288 36.6256 117.84 10 136.5 5H77.5C77.5 5 55.667 26.7044 44 42.5Z"/>
<path d="M5 5V97.5L42.5 5H5Z"/>
<path d="M152.5 59.5C120.9 77.7443 41 150.768 5 185V240C31.8333 214.148 95.7 156.556 136.5 133C187.5 103.555 269 59.5 323.5 59.5C378 59.5 410.849 69.5 432.5 107C454.151 144.5 466.5 209.5 513 214.5C559.5 219.5 593.5 204.919 628 185C655.6 169.065 748.5 58.3605 791.5 5H747.5C705 55.6094 605.2 152.863 546 137C472 117.172 479.666 79 463.5 51C450.567 28.6 428.778 11 419.5 5H261C235 11.9667 192 36.6947 152.5 59.5Z"/>
<path d="M115 214.5C99.5 223.449 11.1667 288.776 5 299.5V356.5C36.8333 329.382 109 278.5 136.5 265.5C170.195 249.572 227.278 225.147 266 220.5C316 214.5 354 227.876 375 240C396 252.124 404.887 272.666 409.5 284.5C421 314 424.5 380 480.5 384C536.5 388 584 362.403 628 337C672 311.597 730.757 237 747.5 208C764.243 179 825.5 104.924 870 93C914.5 81.0763 964.5 85.5 986 107C1007.5 128.5 1020 174 1025.5 197C1029.57 214.02 1036.33 287.645 1048 311.5C1071 358.5 1108.5 380.905 1138 373V267C1123.5 267 1089.5 244.547 1080.95 236C1072.41 227.453 1052.62 204.276 1048 160C1045.13 132.5 1048 107 1032 59.5C1023.61 34.6014 998.5 12.5925 986 5H876.5C865 5 838 35 813.5 59.5C789 84 744.779 151.321 726 174C634.5 284.5 603.5 286.906 556.5 299.5C509.5 312.094 475.624 291.5 463.5 284.5C451.376 277.5 432.5 240 426.5 214.5C420.659 189.678 406 168.5 375 153.5C347.5 140.194 302.5 136.5 274.5 142.5C213.679 155.533 206.5 161.672 115 214.5Z"/>
<path d="M1063 5C1064.64 22.9842 1074.32 58.8117 1080.95 72C1089.5 89 1110 145.5 1138 145.5V82C1133.1 79.3333 1120.24 68.7 1108 47.5C1095.76 26.3 1091.9 10.3333 1091.5 5H1063Z"/>
<path d="M136.5 337C75.4484 370.358 20.8333 399.169 5 419V471C51.5 440.833 161.368 389.087 226 380.5C297.5 371 330 387.5 346 403.5C360.5 418 385.097 454.092 391.337 480.5C395 496 407.432 526.656 426.5 543C447.5 561 497.5 562.666 525.5 546.5C553.5 530.334 655.372 461.568 694 423.5C728.5 389.5 759.681 346.159 812.5 307C841.5 285.5 863 283 892 283C921 283 947.819 300 958.5 318.5C969.181 337 980.5 389 985 419.5C989.233 448.189 994.93 502.266 1006 522C1017.5 542.5 1047.8 571.769 1080.95 581.5C1106.5 589 1128.5 587 1138 585.5V478C1134 479.357 1116.99 479.656 1080.95 470C1035.91 457.93 1024.08 413 1016 399C1007.92 385 1007.5 342.5 1007.5 318.5C1007.5 294.5 994.5 236 973 214.5C951.5 193 920 179 876.5 185C833 191 775.844 260.688 753 289.5C697.5 359.5 700.5 352.5 628 413C605.198 432.028 537.5 476.5 497.5 476.5C457.5 476.5 440 464 426.5 447C405.675 420.777 400.836 384.5 389 364C377.164 343.5 354 317.182 316 307C252.5 289.985 185 310.5 136.5 337Z"/>
<path d="M106 484.688C68 494.87 22.8333 527.805 5 543V603C34 583 106.326 552.919 159 543C236 528.5 256 539.782 296 550.5C336 561.218 345.285 604 348.5 616C351.715 628 351.5 660.321 361.5 663H592C629.335 637.833 701.636 575.508 724.5 552C760 515.5 805 476 857 481C909 486 927.873 516.5 933.5 537.5C939.127 558.5 941.009 589.326 945.5 610.5C952.5 643.5 961.5 651 969.5 663H1056C1028 663 1001 640.5 985.5 610.5C978.035 596.051 969 548 967 529.5C965.28 513.593 960.449 451 951.5 435.5C942.551 420 922.5 389.5 874.5 389.5C826.5 389.5 799.5 411.087 778 423.5C756.5 435.913 682.5 515 651 546.5C634 563.5 577 601.715 541 622.5C505 643.285 446.5 643.038 416.5 635C386.5 626.962 375.5 597 369 556C362.5 515 345.5 502.5 331.5 488.5C317.5 474.5 277.5 461.5 226 461.5C174.5 461.5 153.5 471.96 106 484.688Z"/>
<path d="M829.5 586C783.121 584.611 716.833 637.333 689.5 663H927.5C910 658.5 913 588.5 829.5 586Z"/>
<path d="M188.5 620.5C117.3 620.5 48.1667 648.833 22.5 663H316C303.167 648.833 259.7 620.5 188.5 620.5Z"/>
<path d="M496 5C505.333 19.6667 532.6 49 567 49C601.4 49 649.333 19.6667 669 5H496Z"/>
</mask>
<path d="M1143 0V668H0V0H1143ZM5 663H22.5H316H361.5H592H689.5H927.5H969.5H1056H1138V585.5V478V373V267V145.5V82V5H1091.5H1063H986H876.5H791.5H747.5H669H496H419.5H261H136.5H77.5H42.5H5V97.5V117.5V153.5V185V240V299.5V356.5V419V471V543V603V663Z" fill="#1F1E1E"/>
<path d="M44 42.5C24.3864 69.0544 5 117.5 5 117.5V153.5C13.7432 132.5 29.3065 95.9469 55.2295 66.5C81.5288 36.6256 117.84 10 136.5 5H77.5C77.5 5 55.667 26.7044 44 42.5Z" fill="#1F1E1E"/>
<path d="M5 5V97.5L42.5 5H5Z" fill="#1F1E1E"/>
<path d="M152.5 59.5C120.9 77.7443 41 150.768 5 185V240C31.8333 214.148 95.7 156.556 136.5 133C187.5 103.555 269 59.5 323.5 59.5C378 59.5 410.849 69.5 432.5 107C454.151 144.5 466.5 209.5 513 214.5C559.5 219.5 593.5 204.919 628 185C655.6 169.065 748.5 58.3605 791.5 5H747.5C705 55.6094 605.2 152.863 546 137C472 117.172 479.666 79 463.5 51C450.567 28.6 428.778 11 419.5 5H261C235 11.9667 192 36.6947 152.5 59.5Z" fill="#1F1E1E"/>
<path d="M115 214.5C99.5 223.449 11.1667 288.776 5 299.5V356.5C36.8333 329.382 109 278.5 136.5 265.5C170.195 249.572 227.278 225.147 266 220.5C316 214.5 354 227.876 375 240C396 252.124 404.887 272.666 409.5 284.5C421 314 424.5 380 480.5 384C536.5 388 584 362.403 628 337C672 311.597 730.757 237 747.5 208C764.243 179 825.5 104.924 870 93C914.5 81.0763 964.5 85.5 986 107C1007.5 128.5 1020 174 1025.5 197C1029.57 214.02 1036.33 287.645 1048 311.5C1071 358.5 1108.5 380.905 1138 373V267C1123.5 267 1089.5 244.547 1080.95 236C1072.41 227.453 1052.62 204.276 1048 160C1045.13 132.5 1048 107 1032 59.5C1023.61 34.6014 998.5 12.5925 986 5H876.5C865 5 838 35 813.5 59.5C789 84 744.779 151.321 726 174C634.5 284.5 603.5 286.906 556.5 299.5C509.5 312.094 475.624 291.5 463.5 284.5C451.376 277.5 432.5 240 426.5 214.5C420.659 189.678 406 168.5 375 153.5C347.5 140.194 302.5 136.5 274.5 142.5C213.679 155.533 206.5 161.672 115 214.5Z" fill="#1F1E1E"/>
<path d="M1063 5C1064.64 22.9842 1074.32 58.8117 1080.95 72C1089.5 89 1110 145.5 1138 145.5V82C1133.1 79.3333 1120.24 68.7 1108 47.5C1095.76 26.3 1091.9 10.3333 1091.5 5H1063Z" fill="#1F1E1E"/>
<path d="M136.5 337C75.4484 370.358 20.8333 399.169 5 419V471C51.5 440.833 161.368 389.087 226 380.5C297.5 371 330 387.5 346 403.5C360.5 418 385.097 454.092 391.337 480.5C395 496 407.432 526.656 426.5 543C447.5 561 497.5 562.666 525.5 546.5C553.5 530.334 655.372 461.568 694 423.5C728.5 389.5 759.681 346.159 812.5 307C841.5 285.5 863 283 892 283C921 283 947.819 300 958.5 318.5C969.181 337 980.5 389 985 419.5C989.233 448.189 994.93 502.266 1006 522C1017.5 542.5 1047.8 571.769 1080.95 581.5C1106.5 589 1128.5 587 1138 585.5V478C1134 479.357 1116.99 479.656 1080.95 470C1035.91 457.93 1024.08 413 1016 399C1007.92 385 1007.5 342.5 1007.5 318.5C1007.5 294.5 994.5 236 973 214.5C951.5 193 920 179 876.5 185C833 191 775.844 260.688 753 289.5C697.5 359.5 700.5 352.5 628 413C605.198 432.028 537.5 476.5 497.5 476.5C457.5 476.5 440 464 426.5 447C405.675 420.777 400.836 384.5 389 364C377.164 343.5 354 317.182 316 307C252.5 289.985 185 310.5 136.5 337Z" fill="#1F1E1E"/>
<path d="M106 484.688C68 494.87 22.8333 527.805 5 543V603C34 583 106.326 552.919 159 543C236 528.5 256 539.782 296 550.5C336 561.218 345.285 604 348.5 616C351.715 628 351.5 660.321 361.5 663H592C629.335 637.833 701.636 575.508 724.5 552C760 515.5 805 476 857 481C909 486 927.873 516.5 933.5 537.5C939.127 558.5 941.009 589.326 945.5 610.5C952.5 643.5 961.5 651 969.5 663H1056C1028 663 1001 640.5 985.5 610.5C978.035 596.051 969 548 967 529.5C965.28 513.593 960.449 451 951.5 435.5C942.551 420 922.5 389.5 874.5 389.5C826.5 389.5 799.5 411.087 778 423.5C756.5 435.913 682.5 515 651 546.5C634 563.5 577 601.715 541 622.5C505 643.285 446.5 643.038 416.5 635C386.5 626.962 375.5 597 369 556C362.5 515 345.5 502.5 331.5 488.5C317.5 474.5 277.5 461.5 226 461.5C174.5 461.5 153.5 471.96 106 484.688Z" fill="#1F1E1E"/>
<path d="M829.5 586C783.121 584.611 716.833 637.333 689.5 663H927.5C910 658.5 913 588.5 829.5 586Z" fill="#1F1E1E"/>
<path d="M188.5 620.5C117.3 620.5 48.1667 648.833 22.5 663H316C303.167 648.833 259.7 620.5 188.5 620.5Z" fill="#1F1E1E"/>
<path d="M496 5C505.333 19.6667 532.6 49 567 49C601.4 49 649.333 19.6667 669 5H496Z" fill="#1F1E1E"/>
<path d="M5 5V4.5H4.5V5H5ZM5 5H4.5V97.5H5H5.5V5H5ZM42.5 5V4.5H5V5V5.5H42.5V5ZM5 117.5H4.5V153.5H5H5.5V117.5H5ZM136.5 5V4.5H77.5V5V5.5H136.5V5ZM419.5 5V4.5H261V5V5.5H419.5V5ZM669 5V4.5H496V5V5.5H669V5ZM5 185H4.5V240H5H5.5V185H5ZM791.5 5V4.5H747.5V5V5.5H791.5V5ZM986 5V4.5H876.5V5V5.5H986V5ZM5 299.5H4.5V356.5H5H5.5V299.5H5ZM1138 373H1138.5V267H1138H1137.5V373H1138ZM5 419H4.5V471H5H5.5V419H5ZM1138 585.5H1138.5V478H1138H1137.5V585.5H1138ZM5 543H4.5V603H5H5.5V543H5ZM361.5 663V663.5H592V663V662.5H361.5V663ZM969.5 663V663.5H1056V663V662.5H969.5V663ZM22.5 663V663.5H316V663V662.5H22.5V663ZM689.5 663V663.5H927.5V663V662.5H689.5V663ZM1091.5 5V4.5H1063V5V5.5H1091.5V5ZM1138 145.5H1138.5V82H1138H1137.5V145.5H1138ZM1143 0H1144V-1H1143V0ZM1143 668V669H1144V668H1143ZM0 668H-1V669H0V668ZM0 0V-1H-1V0H0ZM5 663H4V664H5V663ZM1138 663V664H1139V663H1138ZM1138 5H1139V4H1138V5ZM5 97.5L4.07326 97.1243L4 97.305V97.5H5ZM42.5 5V4H41.8264L41.5733 4.62429L42.5 5ZM5 117.5H4L5.92842 117.872L5 117.5ZM44 42.5L44.8044 43.0941L44 42.5ZM77.5 5L78.205 5.70919L79.9243 4H77.5V5ZM5 153.5L4.07682 153.116L4 153.3V153.5H5ZM55.2295 66.5L55.9801 67.1608L55.2295 66.5ZM136.5 5V4H136.368L136.241 4.03407L136.5 5ZM5 185H4V187.331L5.68908 185.725L5 185ZM152.5 59.5L153 60.366L152.5 59.5ZM261 5L261.259 5.96593L261 4V5ZM419.5 5V4H416.112L418.957 5.83971L419.5 5ZM463.5 51L462.634 51.5L463.5 51ZM546 137L545.741 137.966L546 137ZM747.5 5L748.266 5.64309L749.646 4H747.5V5ZM496 5L496.844 4.46312L496.549 4H496V5ZM669 5V4H668.668L668.402 4.19837L669 5ZM5 240L4.30619 239.28L4 239.575V240H5ZM136.5 133L136 132.134L136.5 133ZM628 185L627.5 184.134L628 185ZM791.5 5V4H791.022L790.721 4.37254L791.5 5ZM5 299.5H4V303.245L5.8669 299.998L5 299.5ZM115 214.5L115.5 215.366L115 214.5ZM274.5 142.5L274.29 141.522L274.5 142.5ZM375 153.5L374.564 154.4L375 153.5ZM426.5 214.5L427.473 214.271L426.5 214.5ZM726 174L725.23 173.362L726 174ZM1063 5L1064 4.90946L1063.91 4H1063V5ZM1080.95 72L1081.85 71.5508L1080.95 72ZM1138 145.5H1139V144.5H1138V145.5ZM986 5V4H982.427L985.481 5.85469L986 5ZM1032 59.5L1031.05 59.8192L1032 59.5ZM1048 160L1047.01 160.104L1048 160ZM1138 267V268H1139V267H1138ZM5 356.5L4.35152 355.739L4 356.038V356.5H5ZM136.5 265.5L136.073 264.596L136.5 265.5ZM266 220.5L266.119 221.493L266 220.5ZM409.5 284.5L408.568 284.863L409.5 284.5ZM1025.5 197L1024.53 197.233L1025.5 197ZM1048 311.5L1048.9 311.06L1048 311.5ZM1138 373H1139V371.697L1137.74 372.034L1138 373ZM5 419H4V421.855L5.78147 419.624L5 419ZM136.5 337L136.979 337.878L136.5 337ZM316 307L316.259 306.034L316 307ZM426.5 447L425.717 447.622L425.717 447.622L426.5 447ZM628 413L628.641 413.768L628 413ZM753 289.5L752.216 288.879L752.216 288.879L753 289.5ZM1080.95 470L1080.69 470.966L1080.69 470.966L1080.95 470ZM1138 478L1138.32 478.947L1139 478.717V478H1138ZM5 471L4.45575 470.161L4 470.457V471H5ZM226 380.5L225.868 379.509L226 380.5ZM391.337 480.5L390.364 480.73L391.337 480.5ZM426.5 543L425.849 543.759L425.849 543.759L426.5 543ZM694 423.5L693.298 422.788L693.298 422.788L694 423.5ZM812.5 307L811.904 306.197L811.904 306.197L812.5 307ZM985 419.5L985.989 419.354L985 419.5ZM1006 522L1006.87 521.511L1006 522ZM1080.95 581.5L1081.23 580.54L1080.95 581.5ZM1138 585.5H1139V584.33L1137.84 584.512L1138 585.5ZM5 543H4V545.166L5.64855 543.761L5 543ZM106 484.688L105.741 483.722L106 484.688ZM967 529.5L967.994 529.393L967 529.5ZM985.5 610.5L984.612 610.959L984.612 610.959L985.5 610.5ZM5 603L4.43227 602.177L4 602.475V603H5ZM159 543L159.185 543.983L159 543ZM361.5 663V664L361.759 662.034L361.5 663ZM592 663L591.441 662.171L588.727 664H592V663ZM724.5 552L725.217 552.697L725.217 552.697L724.5 552ZM945.5 610.5L944.522 610.708L945.5 610.5ZM969.5 663V664H971.369L970.332 662.445L969.5 663ZM22.5 663V664H22.7577L22.9832 663.875L22.5 663ZM316 663L315.259 663.671L315.557 664H316V663ZM689.5 663V664H689.896L690.185 663.729L689.5 663ZM829.5 586L829.47 587L829.5 586ZM927.5 663L927.251 663.968L927.373 664H927.5V663ZM1091.5 5V4H1090.42L1090.5 5.0748L1091.5 5ZM1138 82L1137.52 82.8784L1139 83.6827V82H1138ZM1143 0H1142V668H1143H1144V0H1143ZM1143 668V667H0V668V669H1143V668ZM0 668H1V0H0H-1V668H0ZM0 0V1H1143V0V-1H0V0ZM5 97.5L5.92674 97.8757L43.4267 5.37571L42.5 5L41.5733 4.62429L4.07326 97.1243L5 97.5ZM5 97.5H4V117.5H5H6V97.5H5ZM5 117.5C5.92842 117.872 5.92847 117.871 5.92859 117.871C5.92872 117.871 5.92892 117.87 5.92919 117.87C5.92974 117.868 5.93059 117.866 5.93173 117.863C5.93401 117.858 5.93746 117.849 5.94208 117.837C5.95131 117.814 5.96521 117.78 5.98368 117.734C6.02064 117.642 6.07593 117.506 6.14898 117.326C6.29507 116.966 6.51218 116.435 6.79562 115.748C7.36251 114.375 8.19469 112.383 9.25475 109.909C11.375 104.961 14.4061 98.0872 18.0489 90.3855C25.3423 74.9651 35.0584 56.289 44.8044 43.0941L44 42.5L43.1956 41.9059C33.328 55.2654 23.5441 74.0893 16.2409 89.5303C12.5853 97.2593 9.544 104.156 7.41641 109.122C6.35254 111.604 5.51693 113.605 4.94701 114.985C4.66205 115.675 4.4435 116.21 4.29604 116.573C4.2223 116.755 4.16634 116.893 4.12874 116.986C4.10994 117.033 4.09572 117.068 4.08617 117.092C4.0814 117.104 4.07779 117.113 4.07535 117.119C4.07413 117.122 4.07321 117.124 4.07258 117.126C4.07226 117.127 4.07201 117.127 4.07186 117.128C4.07168 117.128 4.07158 117.128 5 117.5ZM77.5 5V4H42.5V5V6H77.5V5ZM44 42.5L44.8044 43.0941C50.6018 35.2451 58.9439 25.9049 65.8557 18.5095C69.3079 14.8158 72.3963 11.6145 74.6216 9.33695C75.7341 8.19824 76.6307 7.29061 77.2488 6.66798C77.5578 6.35667 77.7972 6.11662 77.9592 5.95457C78.0402 5.87355 78.1018 5.81203 78.1431 5.77085C78.1638 5.75026 78.1793 5.73476 78.1897 5.72445C78.1949 5.71929 78.1987 5.71543 78.2013 5.71289C78.2026 5.71161 78.2035 5.71067 78.2042 5.71005C78.2045 5.70974 78.2047 5.70953 78.2048 5.70937C78.205 5.70924 78.205 5.70919 77.5 5C76.795 4.29081 76.7949 4.29092 76.7947 4.29112C76.7945 4.2913 76.7942 4.29158 76.7939 4.29193C76.7931 4.29264 76.7921 4.29367 76.7907 4.29504C76.788 4.29776 76.7839 4.3018 76.7786 4.30714C76.7679 4.31781 76.7519 4.33368 76.7309 4.35464C76.6889 4.39656 76.6265 4.45884 76.5447 4.54064C76.3812 4.70424 76.1401 4.94592 75.8294 5.25894C75.2079 5.88497 74.3076 6.7964 73.191 7.93928C70.958 10.2249 67.859 13.437 64.3945 17.1438C57.4731 24.5495 49.0651 33.9593 43.1956 41.9059L44 42.5ZM5 153.5L5.92318 153.884C14.6675 132.882 30.1779 96.4704 55.9801 67.1608L55.2295 66.5L54.4789 65.8392C28.435 95.4235 12.8188 132.118 4.07682 153.116L5 153.5ZM55.2295 66.5L55.9801 67.1608C69.0806 52.2793 84.6817 38.2004 99.3291 27.2223C114.007 16.2212 127.623 8.41392 136.759 5.96593L136.5 5L136.241 4.03407C126.717 6.58608 112.847 14.5916 98.1297 25.6219C83.3818 36.6752 67.6777 50.8463 54.4789 65.8392L55.2295 66.5ZM5 153.5H4V185H5H6V153.5H5ZM5 185L5.68908 185.725C23.6812 168.616 52.6456 141.812 81.0577 117.008C109.5 92.1777 137.3 69.4304 153 60.366L152.5 59.5L152 58.634C136.1 67.8139 108.15 90.7008 79.7423 115.501C51.3044 140.328 22.3188 167.152 4.31092 184.275L5 185ZM261 5V4H136.5V5V6H261V5ZM152.5 59.5L153 60.366C172.753 48.9614 193.36 37.0888 212.276 27.1966C231.209 17.2955 248.374 9.41831 261.259 5.96593L261 5L260.741 4.03407C247.626 7.54837 230.291 15.5185 211.349 25.4244C192.39 35.3392 171.747 47.2333 152 58.634L152.5 59.5ZM419.5 5L418.957 5.83971C428.155 11.7878 449.807 29.2829 462.634 51.5L463.5 51L464.366 50.5C451.328 27.9171 429.401 10.2122 420.043 4.16029L419.5 5ZM463.5 51L462.634 51.5C466.618 58.4006 469.139 65.9368 471.859 73.789C474.57 81.6126 477.468 89.72 482.206 97.5806C491.725 113.376 508.557 128.002 545.741 137.966L546 137L546.259 136.034C509.443 126.169 493.108 111.796 483.919 96.5482C479.302 88.8874 476.461 80.9625 473.749 73.1343C471.047 65.3347 468.465 57.5994 464.366 50.5L463.5 51ZM546 137L545.741 137.966C560.849 142.014 578.432 138.822 596.869 131.106C615.322 123.384 634.751 111.079 653.618 96.7228C691.355 68.0095 726.983 30.9873 748.266 5.64309L747.5 5L746.734 4.35691C725.517 29.6221 689.995 66.5312 652.407 95.1312C633.612 109.432 614.334 121.629 596.097 129.262C577.843 136.901 560.751 139.917 546.259 136.034L546 137ZM496 5V4H419.5V5V6H496V5ZM496 5L495.156 5.53688C499.883 12.9646 509.114 24.0568 521.502 33.3014C533.89 42.5463 549.513 50 567 50V49V48C550.087 48 534.877 40.7871 522.698 31.6986C510.519 22.6099 501.45 11.7021 496.844 4.46312L496 5ZM747.5 5V4H669V5V6H747.5V5ZM567 49V50C584.436 50 605.189 42.5816 623.964 33.3983C642.768 24.2014 659.72 13.1678 669.598 5.80163L669 5L668.402 4.19837C658.613 11.4989 641.766 22.4652 623.086 31.6017C604.378 40.7517 583.964 48 567 48V49ZM5 240L5.69381 240.72C32.5337 214.862 96.3198 157.353 137 133.866L136.5 133L136 132.134C95.0802 155.759 31.1329 213.434 4.30619 239.28L5 240ZM136.5 133L137 133.866C162.492 119.148 195.578 100.796 229.089 86.1242C262.629 71.4396 296.469 60.5 323.5 60.5V59.5V58.5C296.031 58.5 261.871 69.588 228.286 84.2921C194.672 99.0093 161.508 117.407 136 132.134L136.5 133ZM323.5 59.5V60.5C350.708 60.5 372.391 62.9996 389.943 70.1143C407.453 77.2122 420.912 88.9289 431.634 107.5L432.5 107L433.366 106.5C422.437 87.5711 408.646 75.5378 390.694 68.2607C372.783 61.0004 350.792 58.5 323.5 58.5V59.5ZM432.5 107L431.634 107.5C437.012 116.816 441.821 127.854 446.754 139.31C451.678 150.743 456.723 162.584 462.551 173.411C474.19 195.036 489.122 212.938 512.893 215.494L513 214.5L513.107 213.506C490.378 211.062 475.885 193.964 464.312 172.464C458.534 161.728 453.525 149.975 448.591 138.519C443.667 127.083 438.813 115.934 433.366 106.5L432.5 107ZM513 214.5L512.893 215.494C559.701 220.527 593.924 205.828 628.5 185.866L628 185L627.5 184.134C593.076 204.009 559.299 218.473 513.107 213.506L513 214.5ZM628 185L628.5 185.866C635.536 181.804 646.608 171.797 659.856 158.358C673.137 144.886 688.694 127.871 704.725 109.696C736.787 73.3438 770.772 32.3156 792.279 5.62746L791.5 5L790.721 4.37254C769.228 31.0449 735.263 72.0492 703.225 108.373C687.206 126.536 671.676 143.52 658.432 156.954C645.155 170.422 634.264 180.229 627.5 184.134L628 185ZM5 240H4V299.5H5H6V240H5ZM5 299.5L5.8669 299.998C6.19407 299.43 6.83701 298.613 7.8154 297.555C8.78203 296.51 10.0353 295.273 11.5432 293.867C14.5584 291.056 18.5584 287.604 23.247 283.723C32.6221 275.964 44.7137 266.522 57.104 257.131C81.9098 238.33 107.815 219.803 115.5 215.366L115 214.5L114.5 213.634C106.685 218.146 80.6735 236.757 55.896 255.537C43.4946 264.937 31.3779 274.397 21.9718 282.183C17.2697 286.074 13.2358 289.555 10.1794 292.404C8.65157 293.829 7.35957 295.103 6.34719 296.197C5.34658 297.279 4.57676 298.23 4.1331 299.002L5 299.5ZM115 214.5L115.5 215.366C161.281 188.934 185.895 174.226 206.679 164.482C227.414 154.762 244.329 149.988 274.71 143.478L274.5 142.5L274.29 141.522C243.851 148.045 226.766 152.857 205.83 162.672C184.945 172.463 160.219 187.238 114.5 213.634L115 214.5ZM274.5 142.5L274.71 143.478C288.581 140.505 306.722 139.926 324.837 141.755C342.954 143.585 360.955 147.815 374.564 154.4L375 153.5L375.436 152.6C361.545 145.879 343.296 141.609 325.038 139.765C306.778 137.921 288.419 138.495 274.29 141.522L274.5 142.5ZM375 153.5L374.564 154.4C405.296 169.27 419.756 190.203 425.527 214.729L426.5 214.5L427.473 214.271C421.563 189.152 406.704 167.73 375.436 152.6L375 153.5ZM426.5 214.5L425.527 214.729C428.55 227.579 434.804 243.407 441.816 256.899C445.324 263.647 449.033 269.834 452.639 274.784C456.225 279.706 459.779 283.507 463 285.366L463.5 284.5L464 283.634C461.158 281.993 457.807 278.481 454.256 273.607C450.725 268.76 447.067 262.665 443.591 255.976C436.634 242.593 430.45 226.921 427.473 214.271L426.5 214.5ZM463.5 284.5L463 285.366C475.146 292.378 509.339 313.172 556.759 300.466L556.5 299.5L556.241 298.534C509.661 311.015 476.103 290.622 464 283.634L463.5 284.5ZM556.5 299.5L556.759 300.466C580.212 294.182 599.881 290.396 625.1 274.308C650.294 258.236 680.998 229.914 726.77 174.638L726 174L725.23 173.362C679.502 228.586 648.956 256.717 624.025 272.622C599.119 288.51 579.788 292.225 556.241 298.534L556.5 299.5ZM726 174L726.77 174.638C736.187 163.265 751.974 140.714 768.415 118.02C784.893 95.2741 802.024 72.3897 814.207 60.2071L813.5 59.5L812.793 58.7929C800.476 71.1103 783.247 94.1364 766.795 116.846C750.306 139.607 734.592 162.056 725.23 173.362L726 174ZM876.5 5V4H791.5V5V6H876.5V5ZM813.5 59.5L814.207 60.2071C826.489 47.9248 839.323 34.3416 850.559 23.7915C856.173 18.5206 861.352 14.0425 865.826 10.8876C868.063 9.31033 870.102 8.07918 871.914 7.24535C873.736 6.40697 875.265 6 876.5 6V5V4C874.86 4 873.03 4.53053 871.078 5.42847C869.117 6.33098 866.968 7.63498 864.674 9.25307C860.085 12.4887 854.827 17.0419 849.191 22.3335C837.927 32.9084 825.011 46.5752 812.793 58.7929L813.5 59.5ZM1063 5L1062 5.09054C1062.83 14.1676 1065.68 27.6852 1069.14 40.5581C1072.59 53.4208 1076.7 65.7584 1080.06 72.4492L1080.95 72L1081.85 71.5508C1078.58 65.0534 1074.52 52.8831 1071.07 40.0389C1067.62 27.2049 1064.81 13.8166 1064 4.90946L1063 5ZM1080.95 72L1080.06 72.4492C1084.26 80.813 1091.61 99.3624 1101.32 115.637C1106.19 123.799 1111.7 131.484 1117.8 137.139C1123.88 142.791 1130.65 146.5 1138 146.5V145.5V144.5C1131.35 144.5 1125.05 141.147 1119.16 135.673C1113.26 130.203 1107.87 122.701 1103.04 114.613C1093.36 98.3876 1086.19 80.187 1081.85 71.5508L1080.95 72ZM1063 5V4H986V5V6H1063V5ZM986 5L985.481 5.85469C991.642 9.59726 1000.98 16.9362 1009.81 26.441C1018.65 35.9489 1026.92 47.5552 1031.05 59.8192L1032 59.5L1032.95 59.1808C1028.69 46.5462 1020.22 34.6987 1011.27 25.0794C1002.33 15.4571 992.858 7.99527 986.519 4.14531L986 5ZM1032 59.5L1031.05 59.8192C1047.01 107.179 1044.12 132.456 1047.01 160.104L1048 160L1048.99 159.896C1046.14 132.544 1048.99 106.821 1032.95 59.1808L1032 59.5ZM1048 160L1047.01 160.104C1051.66 204.666 1071.58 228.044 1080.25 236.707L1080.95 236L1081.66 235.293C1073.23 226.861 1053.58 203.886 1048.99 159.896L1048 160ZM1138 267H1139V145.5H1138H1137V267H1138ZM1080.95 236L1080.25 236.707C1084.61 241.071 1095.33 248.871 1106.74 255.568C1112.45 258.923 1118.37 262.02 1123.79 264.281C1129.17 266.53 1134.17 268 1138 268V267V266C1134.58 266 1129.89 264.663 1124.56 262.435C1119.25 260.22 1113.42 257.169 1107.75 253.843C1096.39 247.176 1085.84 239.477 1081.66 235.293L1080.95 236ZM5 356.5L5.64848 357.261C21.53 343.732 47.5005 324.253 72.9466 306.526C98.4101 288.787 123.263 272.864 136.927 266.404L136.5 265.5L136.073 264.596C122.237 271.136 97.2565 287.154 71.8034 304.885C46.3329 322.629 20.3033 342.15 4.35152 355.739L5 356.5ZM136.5 265.5L136.927 266.404C170.639 250.468 227.582 226.117 266.119 221.493L266 220.5L265.881 219.507C226.974 224.176 169.751 248.675 136.073 264.596L136.5 265.5ZM266 220.5L266.119 221.493C315.88 215.522 353.665 228.837 374.5 240.866L375 240L375.5 239.134C354.335 226.914 316.12 213.478 265.881 219.507L266 220.5ZM375 240L374.5 240.866C395.181 252.806 403.965 273.054 408.568 284.863L409.5 284.5L410.432 284.137C405.809 272.277 396.819 251.443 375.5 239.134L375 240ZM409.5 284.5L408.568 284.863C411.418 292.173 413.773 301.748 416.605 312.191C419.427 322.596 422.71 333.802 427.401 344.223C436.795 365.091 451.919 382.961 480.429 384.997L480.5 384L480.571 383.003C453.081 381.039 438.455 363.909 429.224 343.402C424.603 333.135 421.354 322.06 418.535 311.668C415.727 301.314 413.332 291.577 410.432 284.137L409.5 284.5ZM480.5 384L480.429 384.997C536.77 389.022 584.517 363.259 628.5 337.866L628 337L627.5 336.134C583.483 361.547 536.23 386.978 480.571 383.003L480.5 384ZM628 337L628.5 337.866C650.65 325.078 676.429 299.972 698.724 274.507C721.03 249.03 739.95 223.077 748.366 208.5L747.5 208L746.634 207.5C738.307 221.923 719.477 247.768 697.219 273.19C674.95 298.625 649.35 323.519 627.5 336.134L628 337ZM747.5 208L748.366 208.5C756.685 194.091 776.128 168.387 799.058 144.793C810.518 133.002 822.829 121.758 835.035 112.725C847.253 103.683 859.308 96.9002 870.259 93.9659L870 93L869.741 92.0341C858.442 95.0616 846.153 102.009 833.846 111.117C821.527 120.233 809.134 131.556 797.624 143.399C774.615 167.075 755.058 192.909 746.634 207.5L747.5 208ZM870 93L870.259 93.9659C892.397 88.034 915.897 86.1717 936.515 88.46C957.162 90.7516 974.773 97.1876 985.293 107.707L986 107L986.707 106.293C975.727 95.3124 957.588 88.7866 936.735 86.4722C915.853 84.1546 892.103 86.0422 869.741 92.0341L870 93ZM986 107L985.293 107.707C995.89 118.305 1004.33 134.893 1010.82 151.796C1017.29 168.674 1021.78 185.75 1024.53 197.233L1025.5 197L1026.47 196.767C1023.72 185.25 1019.21 168.076 1012.68 151.079C1006.17 134.107 997.61 117.195 986.707 106.293L986 107ZM1025.5 197L1024.53 197.233C1025.53 201.432 1026.71 209.172 1028.1 218.859C1029.49 228.52 1031.08 240.075 1032.91 251.841C1034.74 263.606 1036.81 275.602 1039.16 286.156C1041.5 296.689 1044.13 305.862 1047.1 311.94L1048 311.5L1048.9 311.06C1046.04 305.21 1043.44 296.235 1041.11 285.722C1038.78 275.23 1036.71 263.283 1034.89 251.533C1033.06 239.783 1031.47 228.25 1030.08 218.574C1028.7 208.924 1027.5 201.078 1026.47 196.767L1025.5 197ZM1048 311.5L1047.1 311.94C1070.18 359.107 1108.06 382.057 1138.26 373.966L1138 373L1137.74 372.034C1108.94 379.752 1071.82 357.893 1048.9 311.06L1048 311.5ZM5 356.5H4V419H5H6V356.5H5ZM5 419L5.78147 419.624C9.65455 414.773 15.9494 409.317 24.2277 403.322C32.4939 397.336 42.6845 390.851 54.3047 383.932C77.5485 370.093 106.442 354.563 136.979 337.878L136.5 337L136.021 336.122C105.507 352.795 76.5665 368.35 53.2816 382.214C41.6374 389.146 31.3898 395.667 23.0547 401.702C14.7317 407.73 8.26212 413.312 4.21853 418.376L5 419ZM136.5 337L136.979 337.878C185.369 311.438 252.592 291.045 315.741 307.966L316 307L316.259 306.034C252.408 288.925 184.631 309.562 136.021 336.122L136.5 337ZM316 307L315.741 307.966C353.408 318.059 376.385 344.15 388.134 364.5L389 364L389.866 363.5C377.944 342.85 354.592 316.305 316.259 306.034L316 307ZM389 364L388.134 364.5C393.991 374.645 398.111 388.686 403.437 403.688C408.736 418.616 415.196 434.374 425.717 447.622L426.5 447L427.283 446.378C416.979 433.403 410.608 417.911 405.322 403.019C400.062 388.203 395.845 373.855 389.866 363.5L389 364ZM426.5 447L425.717 447.622C432.529 456.2 440.392 463.693 451.634 469.028C462.867 474.359 477.398 477.5 497.5 477.5V476.5V475.5C477.602 475.5 463.383 472.391 452.491 467.222C441.608 462.057 433.971 454.8 427.283 446.378L426.5 447ZM497.5 476.5V477.5C517.776 477.5 544.897 466.263 569.678 452.764C594.504 439.239 617.184 423.328 628.641 413.768L628 413L627.359 412.232C616.014 421.7 593.444 437.539 568.721 451.007C543.952 464.501 517.224 475.5 497.5 475.5V476.5ZM628 413L628.641 413.768C664.851 383.551 682.283 370.129 697.566 355.536C712.873 340.919 726.038 325.115 753.784 290.121L753 289.5L752.216 288.879C724.462 323.885 711.377 339.581 696.184 354.089C680.967 368.621 663.649 381.949 627.359 412.232L628 413ZM753 289.5L753.784 290.121C765.201 275.722 785.167 251.14 807.698 229.415C818.964 218.553 830.852 208.423 842.616 200.642C854.391 192.852 865.974 187.461 876.637 185.991L876.5 185L876.363 184.009C865.276 185.539 853.402 191.109 841.512 198.974C829.611 206.846 817.626 217.064 806.31 227.976C783.678 249.798 763.643 274.466 752.216 288.879L753 289.5ZM876.5 185L876.637 185.991C919.821 180.034 951.011 193.925 972.293 215.207L973 214.5L973.707 213.793C951.989 192.075 920.179 177.966 876.363 184.009L876.5 185ZM973 214.5L972.293 215.207C982.853 225.767 991.422 245.553 997.353 265.843C1003.27 286.1 1006.5 306.626 1006.5 318.5H1007.5H1008.5C1008.5 306.374 1005.23 285.65 999.272 265.282C993.328 244.947 984.647 224.733 973.707 213.793L973 214.5ZM1007.5 318.5H1006.5C1006.5 330.501 1006.6 347.158 1007.72 362.572C1008.28 370.279 1009.09 377.695 1010.28 384.073C1011.46 390.428 1013.03 395.848 1015.13 399.5L1016 399L1016.87 398.5C1014.93 395.152 1013.42 390.009 1012.25 383.708C1011.08 377.43 1010.27 370.096 1009.72 362.428C1008.6 347.092 1008.5 330.499 1008.5 318.5H1007.5ZM1016 399L1015.13 399.5C1017.12 402.948 1019.34 408.287 1022.32 414.723C1025.27 421.111 1028.94 428.469 1033.78 435.776C1043.46 450.398 1057.86 464.848 1080.69 470.966L1080.95 470L1081.21 469.034C1059 463.081 1044.96 449.032 1035.45 434.671C1030.69 427.487 1027.07 420.233 1024.13 413.882C1021.21 407.579 1018.92 402.052 1016.87 398.5L1016 399ZM1138 478H1139V373H1138H1137V478H1138ZM1080.95 470L1080.69 470.966C1098.75 475.804 1112.07 478.155 1121.39 479.125C1126.05 479.609 1129.72 479.749 1132.49 479.68C1135.24 479.611 1137.18 479.336 1138.32 478.947L1138 478L1137.68 477.053C1136.82 477.343 1135.13 477.613 1132.44 477.681C1129.77 477.747 1126.19 477.613 1121.59 477.135C1112.4 476.179 1099.19 473.852 1081.21 469.034L1080.95 470ZM5 471L5.54425 471.839C28.7328 456.795 67.7708 436.343 109.095 418.576C150.434 400.804 193.956 385.766 226.132 381.491L226 380.5L225.868 379.509C193.412 383.821 149.684 398.95 108.306 416.739C66.9132 434.534 27.7672 455.038 4.45575 470.161L5 471ZM226 380.5L226.132 381.491C297.439 372.017 329.584 388.498 345.293 404.207L346 403.5L346.707 402.793C330.416 386.502 297.561 369.983 225.868 379.509L226 380.5ZM346 403.5L345.293 404.207C352.472 411.386 362.2 423.966 370.915 438.06C379.635 452.161 387.28 467.679 390.364 480.73L391.337 480.5L392.31 480.27C389.154 466.913 381.38 451.181 372.616 437.009C363.848 422.83 354.028 410.114 346.707 402.793L346 403.5ZM391.337 480.5L390.364 480.73C392.215 488.564 396.268 500.178 402.251 511.888C408.231 523.592 416.177 535.469 425.849 543.759L426.5 543L427.151 542.241C417.755 534.187 409.951 522.564 404.032 510.979C398.116 499.4 394.122 487.936 392.31 480.27L391.337 480.5ZM426.5 543L425.849 543.759C436.596 552.971 454.612 557.912 473.34 558.562C492.09 559.212 511.791 555.57 526 547.366L525.5 546.5L525 545.634C511.209 553.596 491.91 557.204 473.41 556.563C454.888 555.921 437.404 551.029 427.151 542.241L426.5 543ZM525.5 546.5L526 547.366C540.041 539.26 572.539 518.005 606.343 494.029C640.139 470.059 675.324 443.309 694.702 424.212L694 423.5L693.298 422.788C674.048 441.759 638.984 468.426 605.186 492.398C571.398 516.363 538.959 537.574 525 545.634L525.5 546.5ZM694 423.5L694.702 424.212C711.966 407.198 728.45 387.795 747.11 367.868C765.799 347.91 786.753 327.333 813.096 307.803L812.5 307L811.904 306.197C785.428 325.826 764.382 346.498 745.65 366.501C726.891 386.534 710.534 405.802 693.298 422.788L694 423.5ZM812.5 307L813.096 307.803C827.509 297.117 840.02 291.18 852.504 287.905C865.001 284.626 877.521 284 892 284V283V282C877.479 282 864.749 282.624 851.996 285.97C839.23 289.32 826.491 295.383 811.904 306.197L812.5 307ZM892 283V284C920.66 284 947.14 300.824 957.634 319L958.5 318.5L959.366 318C948.498 299.176 921.34 282 892 282V283ZM958.5 318.5L957.634 319C962.894 328.111 968.367 345.605 973.097 364.74C977.817 383.834 981.765 404.428 984.011 419.646L985 419.5L985.989 419.354C983.735 404.072 979.774 383.416 975.039 364.26C970.314 345.145 964.787 327.389 959.366 318L958.5 318.5ZM985 419.5L984.011 419.646C986.121 433.947 988.611 454.694 991.95 474.276C993.621 484.076 995.509 493.613 997.676 501.945C999.839 510.262 1002.3 517.442 1005.13 522.489L1006 522L1006.87 521.511C1004.17 516.691 1001.76 509.711 999.611 501.442C997.465 493.187 995.588 483.712 993.922 473.94C990.586 454.378 988.112 433.742 985.989 419.354L985 419.5ZM1006 522L1005.13 522.489C1010.95 532.866 1021.49 545.398 1034.71 556.553C1047.94 567.71 1063.93 577.544 1080.67 582.46L1080.95 581.5L1081.23 580.54C1064.83 575.725 1049.09 566.059 1036 555.024C1022.92 543.986 1012.55 531.634 1006.87 521.511L1006 522ZM1138 663H1139V585.5H1138H1137V663H1138ZM1080.95 581.5L1080.67 582.46C1106.41 590.015 1128.57 588.002 1138.16 586.488L1138 585.5L1137.84 584.512C1128.43 585.998 1106.59 587.985 1081.23 580.54L1080.95 581.5ZM5 471H4V543H5H6V471H5ZM5 543L5.64855 543.761C14.529 536.195 30.2393 524.191 48.4671 512.812C66.7054 501.427 87.3992 490.707 106.259 485.654L106 484.688L105.741 483.722C86.6008 488.85 65.7113 499.689 47.4079 511.116C29.094 522.549 13.3043 534.611 4.35145 542.239L5 543ZM106 484.688L106.259 485.654C153.861 472.899 174.672 462.5 226 462.5V461.5V460.5C174.328 460.5 153.139 471.022 105.741 483.722L106 484.688ZM226 461.5V462.5C251.67 462.5 274.455 465.74 292.547 470.714C310.677 475.698 323.976 482.391 330.793 489.207L331.5 488.5L332.207 487.793C325.024 480.609 311.323 473.802 293.078 468.786C274.795 463.76 251.83 460.5 226 460.5V461.5ZM331.5 488.5L330.793 489.207C337.853 496.267 345.493 502.79 352.236 512.688C358.955 522.551 364.782 535.783 368.012 556.157L369 556L369.988 555.843C366.718 535.217 360.795 521.699 353.889 511.562C347.007 501.46 339.147 494.733 332.207 487.793L331.5 488.5ZM369 556L368.012 556.157C371.267 576.683 375.662 594.56 383.056 608.334C390.472 622.146 400.924 631.862 416.241 635.966L416.5 635L416.759 634.034C402.076 630.1 392.028 620.815 384.819 607.388C377.588 593.92 373.233 576.317 369.988 555.843L369 556ZM416.5 635L416.241 635.966C431.368 640.019 453.606 642.094 476.567 640.556C499.521 639.019 523.316 633.865 541.5 623.366L541 622.5L540.5 621.634C522.684 631.92 499.229 637.034 476.433 638.561C453.644 640.087 431.632 638.019 416.759 634.034L416.5 635ZM541 622.5L541.5 623.366C559.526 612.959 582.798 598.195 603.69 583.906C624.557 569.635 643.132 555.782 651.707 547.207L651 546.5L650.293 545.793C641.868 554.218 623.443 567.973 602.56 582.255C581.702 596.521 558.474 611.257 540.5 621.634L541 622.5ZM651 546.5L651.707 547.207C659.588 539.326 670.126 528.47 681.826 516.435C693.53 504.397 706.401 491.173 718.959 478.548C731.518 465.921 743.756 453.898 754.194 444.261C764.659 434.597 773.237 427.405 778.5 424.366L778 423.5L777.5 422.634C772.013 425.802 763.278 433.15 752.837 442.791C742.369 452.458 730.107 464.503 717.541 477.137C704.974 489.772 692.095 503.003 680.392 515.041C668.687 527.081 658.162 537.924 650.293 545.793L651 546.5ZM778 423.5L778.5 424.366C800.098 411.897 826.83 390.5 874.5 390.5V389.5V388.5C826.17 388.5 798.902 410.277 777.5 422.634L778 423.5ZM874.5 389.5V390.5C921.949 390.5 941.739 420.594 950.634 436L951.5 435.5L952.366 435C943.363 419.406 923.051 388.5 874.5 388.5V389.5ZM951.5 435.5L950.634 436C952.783 439.722 954.738 446.395 956.477 454.695C958.207 462.955 959.7 472.7 960.969 482.476C963.509 502.04 965.142 521.614 966.006 529.607L967 529.5L967.994 529.393C967.139 521.478 965.495 501.803 962.953 482.219C961.68 472.42 960.18 462.617 958.434 454.285C956.696 445.991 954.692 439.028 952.366 435L951.5 435.5ZM967 529.5L966.006 529.607C967.011 538.903 969.776 555.576 973.223 571.728C974.946 579.807 976.843 587.768 978.779 594.622C980.71 601.456 982.696 607.251 984.612 610.959L985.5 610.5L986.388 610.041C984.571 606.524 982.629 600.894 980.704 594.078C978.783 587.28 976.897 579.363 975.179 571.311C971.741 555.199 968.989 538.597 967.994 529.393L967 529.5ZM1056 663V664H1138V663V662H1056V663ZM985.5 610.5L984.612 610.959C1000.2 641.127 1027.47 664 1056 664V663V662C1028.53 662 1001.8 639.873 986.388 610.041L985.5 610.5ZM5 603H4V663H5H6V603H5ZM5 603L5.56773 603.823C19.9762 593.886 45.2266 581.399 73.492 570.149C101.747 558.903 132.932 548.926 159.185 543.983L159 543L158.815 542.017C132.394 546.993 101.079 557.016 72.7524 568.291C44.4363 579.561 19.0238 592.114 4.43227 602.177L5 603ZM159 543L159.185 543.983C197.625 536.744 221.766 535.955 241.256 538.286C260.787 540.623 275.647 546.082 295.741 551.466L296 550.5L296.259 549.534C276.353 544.2 261.213 538.659 241.494 536.3C221.734 533.936 197.375 534.756 158.815 542.017L159 543ZM296 550.5L295.741 551.466C315.406 556.735 327.539 569.881 335.176 583.265C342.822 596.666 345.918 610.227 347.534 616.259L348.5 616L349.466 615.741C347.867 609.773 344.712 595.943 336.913 582.274C329.103 568.587 316.594 554.983 296.259 549.534L296 550.5ZM348.5 616L347.534 616.259C348.317 619.18 348.899 623.379 349.489 628.152C350.075 632.895 350.666 638.173 351.469 643.154C352.27 648.129 353.295 652.884 354.774 656.584C356.227 660.223 358.248 663.164 361.241 663.966L361.5 663L361.759 662.034C359.752 661.496 358.05 659.393 356.631 655.842C355.237 652.354 354.239 647.777 353.443 642.836C352.648 637.902 352.064 632.683 351.474 627.907C350.887 623.161 350.291 618.82 349.466 615.741L348.5 616ZM592 663L592.559 663.829C629.957 638.62 702.311 576.249 725.217 552.697L724.5 552L723.783 551.303C700.961 574.768 628.712 637.047 591.441 662.171L592 663ZM724.5 552L725.217 552.697C742.954 534.46 763.01 515.532 785.091 501.786C807.166 488.044 831.196 479.523 856.904 481.995L857 481L857.096 480.005C830.804 477.477 806.334 486.206 784.034 500.089C761.74 513.968 741.546 533.04 723.783 551.303L724.5 552ZM857 481L856.904 481.995C882.712 484.477 900.221 493.275 911.966 503.989C923.72 514.711 929.76 527.406 932.534 537.759L933.5 537.5L934.466 537.241C931.613 526.594 925.403 513.539 913.314 502.511C901.216 491.475 883.288 482.523 857.096 480.005L857 481ZM933.5 537.5L932.534 537.759C935.328 548.187 937.198 561.081 938.935 574.067C940.667 587.022 942.266 600.073 944.522 610.708L945.5 610.5L946.478 610.292C944.243 599.753 942.655 586.805 940.917 573.802C939.183 560.832 937.299 547.813 934.466 537.241L933.5 537.5ZM945.5 610.5L944.522 610.708C948.037 627.281 952.066 637.503 956.249 645.107C960.393 652.642 964.757 657.689 968.668 663.555L969.5 663L970.332 662.445C966.243 656.311 962.107 651.608 958.001 644.143C953.934 636.747 949.963 626.719 946.478 610.292L945.5 610.5ZM5 663V664H22.5V663V662H5V663ZM22.5 663L22.9832 663.875C48.5545 649.761 117.52 621.5 188.5 621.5V620.5V619.5C117.08 619.5 47.7789 647.905 22.0168 662.125L22.5 663ZM316 663V664H361.5V663V662H316V663ZM188.5 620.5V621.5C259.454 621.5 302.639 649.74 315.259 663.671L316 663L316.741 662.329C303.695 647.927 259.946 619.5 188.5 619.5V620.5ZM592 663V664H689.5V663V662H592V663ZM689.5 663L690.185 663.729C703.816 650.928 727.171 631.374 752.89 615.201C778.656 598.998 806.602 586.315 829.47 587L829.5 586L829.53 585C806.019 584.297 777.631 597.28 751.825 613.508C725.973 629.765 702.517 649.405 688.815 662.271L689.5 663ZM927.5 663V664H969.5V663V662H927.5V663ZM829.5 586L829.47 587C850.2 587.62 865.498 592.427 877.067 599.312C888.636 606.199 896.533 615.199 902.41 624.293C908.303 633.411 912.135 642.565 915.646 649.856C917.39 653.477 919.07 656.667 920.888 659.101C922.706 661.532 924.746 663.324 927.251 663.968L927.5 663L927.749 662.032C925.879 661.551 924.185 660.171 922.49 657.903C920.797 655.638 919.188 652.601 917.448 648.988C913.99 641.81 910.072 632.464 904.09 623.207C898.092 613.926 889.989 604.676 878.09 597.594C866.189 590.511 850.55 585.63 829.53 585L829.5 586ZM1138 5V4H1091.5V5V6H1138V5ZM1091.5 5L1090.5 5.0748C1090.92 10.603 1094.85 26.7157 1107.13 48L1108 47.5L1108.87 47C1096.67 25.8843 1092.88 10.0637 1092.5 4.9252L1091.5 5ZM1138 82H1139V5H1138H1137V82H1138ZM1108 47.5L1107.13 48C1119.44 69.3102 1132.42 80.1 1137.52 82.8784L1138 82L1138.48 81.1216C1133.78 78.5667 1121.04 68.0898 1108.87 47L1108 47.5Z" fill="#1F1E1E" mask="url(#path-1-inside-1_153_67)"/>
</svg>
