<svg width="655" height="445" viewBox="0 0 655 445" fill="none" xmlns="http://www.w3.org/2000/svg">
<path d="M275 109C299 109 321 113.5 341 122.5C361 131.167 378 145.5 392 165.5L471.5 118.5C460.167 99.1667 447.5 83.3333 433.5 71C419.5 58.3333 404.167 48.5 387.5 41.5C371.167 34.1666 353.5 29.1666 334.5 26.5C315.833 23.8333 296 22.5 275 22.5H220.5C191.5 22.5 164.833 25.8333 140.5 32.5C116.5 38.8333 95.6667 49 78 63C60.6667 77 47 95.1667 37 117.5C27.3333 139.5 22.5 166.333 22.5 198C22.5 229.667 27.3333 256.667 37 279C47 301 60.6667 319 78 333C95.6667 347 116.5 357.333 140.5 364C164.833 370.333 191.5 373.5 220.5 373.5H275C296 373.5 315.833 372.167 334.5 369.5C353.5 366.833 371.167 362 387.5 355C404.167 347.667 419.5 337.833 433.5 325.5C447.5 313.167 460.167 297.167 471.5 277.5L392 230.5C378 250.5 361 265 341 274C321 282.667 299 287 275 287H220.5C205.5 287 191.333 285.5 178 282.5C164.667 279.5 153 274.667 143 268C133 261 125 251.833 119 240.5C113 229.167 110 215 110 198C110 181.333 113 167.333 119 156C125 144.667 133 135.5 143 128.5C153.333 121.5 165.167 116.5 178.5 113.5C191.833 110.5 205.833 109 220.5 109H275ZM97.5 380C78.5 363.333 63.3333 347.833 52 333.5C40.6667 318.833 31.8333 304.5 25.5 290.5C19.1667 276.167 15 261.5 13 246.5C11 231.5 10 215.333 10 198C10 164 15.1667 135.167 25.5 111.5C35.8333 87.5 50.3333 68 69 53C87.6667 38 109.833 27.1666 135.5 20.5C161.5 13.5 189.833 10 220.5 10H275C294 10 312.167 10.8333 329.5 12.5C347.167 13.8333 364.667 17.8333 382 24.5C399.333 31.1667 417 41.1667 435 54.5C453 67.8333 472.333 86.3333 493 110C496.333 113.667 500 118 504 123C508 128 511.833 133.333 515.5 139C519.167 144.667 522.833 150.5 526.5 156.5C530.167 162.167 533.5 167.5 536.5 172.5L439 230L401 192C389.333 184.333 377.167 178.833 364.5 175.5C351.833 171.833 338.667 170 325 170H270.5C257.167 170 244.5 171.333 232.5 174C220.5 176.667 209.833 181 200.5 187C191.5 193 184.333 201 179 211C173.667 221 171 233.333 171 248C171 256 171.667 262.667 173 268C180 270.333 187.5 272 195.5 273C203.5 274 211.833 274.5 220.5 274.5H275C297 274.5 317.667 269.833 337 260.5C356.667 251.167 374 235.667 389 214L489 273L536.5 323.5C523.167 346.167 508.667 364.667 493 379C477.667 393.333 461.167 404.5 443.5 412.5C425.833 420.833 407.167 426.5 387.5 429.5C367.833 432.833 347 434.5 325 434.5H270.5C253.5 434.5 236.667 433.333 220 431C203.667 429 187.833 425.667 172.5 421C157.5 416.667 143.5 411 130.5 404C117.833 397.333 106.833 389.333 97.5 380Z" fill="#0500FF"/>
<path d="M275 109C299 109 321 113.5 341 122.5C361 131.167 378 145.5 392 165.5L471.5 118.5C460.167 99.1667 447.5 83.3333 433.5 71C419.5 58.3333 404.167 48.5 387.5 41.5C371.167 34.1666 353.5 29.1666 334.5 26.5C315.833 23.8333 296 22.5 275 22.5H220.5C191.5 22.5 164.833 25.8333 140.5 32.5C116.5 38.8333 95.6667 49 78 63C60.6667 77 47 95.1667 37 117.5C27.3333 139.5 22.5 166.333 22.5 198C22.5 229.667 27.3333 256.667 37 279C47 301 60.6667 319 78 333C95.6667 347 116.5 357.333 140.5 364C164.833 370.333 191.5 373.5 220.5 373.5H275C296 373.5 315.833 372.167 334.5 369.5C353.5 366.833 371.167 362 387.5 355C404.167 347.667 419.5 337.833 433.5 325.5C447.5 313.167 460.167 297.167 471.5 277.5L392 230.5C378 250.5 361 265 341 274C321 282.667 299 287 275 287H220.5C205.5 287 191.333 285.5 178 282.5C164.667 279.5 153 274.667 143 268C133 261 125 251.833 119 240.5C113 229.167 110 215 110 198C110 181.333 113 167.333 119 156C125 144.667 133 135.5 143 128.5C153.333 121.5 165.167 116.5 178.5 113.5C191.833 110.5 205.833 109 220.5 109H275Z" fill="white"/>
<path d="M275 5C294.128 5 312.44 5.83927 329.932 7.51953C348.088 8.89544 366.047 13.0069 383.795 19.833C401.626 26.6909 419.686 36.9337 437.977 50.4824C456.35 64.0925 475.94 82.8637 496.751 106.693C500.158 110.444 503.877 114.842 507.904 119.877C512.014 125.014 515.946 130.485 519.698 136.284C523.379 141.973 527.058 147.826 530.736 153.844C534.414 159.528 537.765 164.89 540.787 169.928L543.38 174.248L539.04 176.807L441.54 234.307L438.203 236.274L435.465 233.535L397.837 195.907C386.721 188.661 375.188 183.482 363.228 180.335L363.168 180.319L363.109 180.303C350.911 176.772 338.213 175 325 175H270.5C257.501 175 245.2 176.3 233.585 178.881C222.11 181.431 212.011 185.549 203.23 191.188C194.971 196.705 188.368 204.061 183.412 213.353C178.562 222.447 176 233.92 176 248C176 254.388 176.442 259.738 177.268 264.108C183.161 265.89 189.442 267.204 196.12 268.039C203.9 269.012 212.025 269.5 220.5 269.5H275C296.266 269.5 316.188 264.995 334.826 255.997L334.841 255.99L334.856 255.982C353.581 247.096 370.282 232.252 384.889 211.154L387.536 207.331L391.541 209.693L491.541 268.693L492.154 269.056L492.642 269.574L540.143 320.074L542.71 322.805L540.81 326.035C527.281 349.033 512.484 367.951 496.375 382.689L496.374 382.688C480.706 397.327 463.793 408.788 445.632 417.021L445.633 417.022C427.546 425.554 408.44 431.354 388.335 434.429L388.336 434.43C368.367 437.814 347.252 439.5 325 439.5H270.5C253.27 439.5 236.205 438.318 219.307 435.952H219.306C202.747 433.92 186.682 430.538 171.112 425.804L169.679 425.385C154.912 421.018 141.072 415.367 128.171 408.424C115.153 401.572 103.78 393.323 94.0898 383.659C74.9943 366.9 59.6325 351.214 48.0781 336.602L48.0605 336.579L48.0439 336.558C36.5199 321.644 27.4668 306.979 20.9443 292.561L20.9355 292.541L20.9268 292.521C14.4091 277.77 10.1087 262.647 8.04395 247.161C6.0109 231.913 5 215.523 5 198C5 163.53 10.2328 133.981 20.9072 109.522C31.5333 84.8427 46.5085 64.6594 65.8682 49.1025C84.5405 34.098 106.543 23.186 131.79 16.3135L134.243 15.6602C160.709 8.53927 189.471 5 220.5 5H275Z" stroke="white" stroke-width="10"/>
<path d="M316 174.5C329.186 165.013 341.696 166.247 349.5 152C354.597 142.695 350.498 135.502 358 128C366 120 369.027 118.195 379.5 120C385.783 121.083 388.722 124.892 395 126C406.213 127.978 412.43 121.168 422 115C433.638 107.5 433 102.5 443.5 94.5C447.627 91.3558 450.816 90.2097 456 90C466.502 89.5751 473.914 95.1105 475.5 105.5C476.915 114.769 472.544 119.81 465.5 126C449 140.5 415.982 139 406.5 155C398.5 168.5 412.648 219.843 412.5 261.5C412.403 288.862 405.276 304.466 409.5 331.5C411.65 345.257 414.5 352.5 416.5 366.5C417.621 374.349 417.205 377.777 413 384.5C405.73 396.124 387.198 397.511 381.5 395C375.802 392.489 370.25 386.5 368 382C365.25 376.5 360.524 352.989 361.5 331.5C362.102 318.256 365.458 311.168 367 298C368.957 281.293 370.011 271.813 369.5 255C368.657 227.244 367 191.5 357 185C350.077 180.5 339.449 187.763 330 193.5C316.001 202 310.39 207.61 299.5 218.5C287.001 231 288.688 246.13 273.501 246.5C261.001 246.805 255.868 241.777 253.5 229.5C252.02 221.826 251.974 217.026 257.5 211.5C267 202 278.223 204.123 290.5 196C301.327 188.837 305.462 182.081 316 174.5Z" fill="white"/>
<path d="M439 169.5C447.992 166.674 456.054 168.124 462.5 175C470 183 470 197.5 470 215.5C470 229.521 471.5 236.5 477 247C478.996 250.81 483.967 256.44 488 255C495 252.5 503.011 217.955 515.5 196C524.417 180.325 529.394 172.085 540 157.5C549.811 144.009 556.721 137.514 566.5 124C577.836 108.336 585.5 91 593.5 82.5L593.652 82.339C599.079 76.5727 602.37 73.076 609.5 69.5C618.058 65.2081 623.819 63.2862 633 66C639 67.7734 646.031 75.7406 648.5 87.0001C651.317 99.8471 647.606 107.643 639.5 118C630.603 129.367 621.022 129.304 609.5 138C578.852 161.131 574.177 186.528 554.5 219.5C538.09 247 528.5 262.5 514.5 294.5C506.54 312.695 514.5 325 505.5 344.5C501.95 352.191 497.47 354.351 489 354.5C478.95 354.676 470.348 351.286 466.5 342C452 307 449.867 291.743 441.5 261.5C432.861 230.275 424.664 204.206 425.5 190C426 181.5 430.834 172.066 439 169.5Z" fill="white"/>
<path d="M316 174.5C329.186 165.013 341.696 166.247 349.5 152C354.597 142.695 350.498 135.502 358 128C366 120 369.027 118.195 379.5 120C385.783 121.083 388.722 124.892 395 126C406.213 127.978 412.43 121.168 422 115C433.638 107.5 433 102.5 443.5 94.5C447.627 91.3558 450.816 90.2097 456 90C466.502 89.5751 473.914 95.1105 475.5 105.5C476.915 114.769 472.544 119.81 465.5 126C449 140.5 415.982 139 406.5 155C398.5 168.5 412.648 219.843 412.5 261.5C412.403 288.862 405.276 304.466 409.5 331.5C411.65 345.257 414.5 352.5 416.5 366.5C417.621 374.349 417.205 377.777 413 384.5C405.73 396.124 387.198 397.511 381.5 395C375.802 392.489 370.25 386.5 368 382C365.25 376.5 360.524 352.989 361.5 331.5C362.102 318.256 365.458 311.168 367 298C368.957 281.293 370.011 271.813 369.5 255C368.657 227.244 367 191.5 357 185C350.077 180.5 339.449 187.763 330 193.5C316.001 202 310.39 207.61 299.5 218.5C287.001 231 288.688 246.13 273.501 246.5C261.001 246.805 255.868 241.777 253.5 229.5C252.02 221.826 251.974 217.026 257.5 211.5C267 202 278.223 204.123 290.5 196C301.327 188.837 305.462 182.081 316 174.5Z" stroke="#0500FF" stroke-width="10"/>
<path d="M439 169.5C447.992 166.674 456.054 168.124 462.5 175C470 183 470 197.5 470 215.5C470 229.521 471.5 236.5 477 247C478.996 250.81 483.967 256.44 488 255C495 252.5 503.011 217.955 515.5 196C524.417 180.325 529.394 172.085 540 157.5C549.811 144.009 556.721 137.514 566.5 124C577.836 108.336 585.5 91 593.5 82.5L593.652 82.339C599.079 76.5727 602.37 73.076 609.5 69.5C618.058 65.2081 623.819 63.2862 633 66C639 67.7734 646.031 75.7406 648.5 87.0001C651.317 99.8471 647.606 107.643 639.5 118C630.603 129.367 621.022 129.304 609.5 138C578.852 161.131 574.177 186.528 554.5 219.5C538.09 247 528.5 262.5 514.5 294.5C506.54 312.695 514.5 325 505.5 344.5C501.95 352.191 497.47 354.351 489 354.5C478.95 354.676 470.348 351.286 466.5 342C452 307 449.867 291.743 441.5 261.5C432.861 230.275 424.664 204.206 425.5 190C426 181.5 430.834 172.066 439 169.5Z" stroke="#0500FF" stroke-width="10"/>
</svg>
