<svg width="2043" height="1740" viewBox="0 0 2043 1740" fill="none" xmlns="http://www.w3.org/2000/svg">
<path d="M1125.4 893.066L1123.15 874.764L1128.6 877.736L1148.3 888.474L1154.6 891.909L1160.09 912.019L1125.4 893.066Z" fill="#0500FF"/>
<path d="M1179.91 711.586C1187.48 711.303 1194.43 712.996 1199.85 716.918C1205.32 720.865 1208.73 726.698 1209.89 733.765C1210.95 740.156 1209.85 745.436 1206.97 750.17C1204.23 754.669 1200.03 758.398 1195.59 762C1189.75 766.746 1182.63 770.04 1175.38 772.627C1169.29 774.802 1162.81 776.572 1156.69 778.244C1155.56 778.554 1154.44 778.859 1153.34 779.164C1146.12 781.157 1139.61 783.096 1134.21 785.584C1128.83 788.062 1125.03 790.873 1122.8 794.353C1122.07 795.494 1121.39 797.389 1120.96 800.285C1120.54 803.13 1120.41 806.626 1120.53 810.739C1120.77 818.98 1122 829.15 1123.58 840.577C1123.86 842.622 1124.16 844.706 1124.46 846.822C1124.61 847.923 1124.77 849.033 1124.93 850.151C1126.18 858.969 1127.51 868.292 1128.6 877.736C1130.06 890.266 1131.12 903.01 1131.07 915.072C1131.01 931.279 1128.68 944.147 1127.12 956.288C1125.57 968.457 1124.71 980.286 1127.25 995.291C1127.88 999.009 1128.55 1002.3 1129.26 1005.4C1129.96 1008.47 1130.68 1011.36 1131.42 1014.27L1131.42 1014.27C1131.42 1014.27 1131.42 1014.28 1131.42 1014.28C1131.49 1014.54 1131.56 1014.81 1131.62 1015.07C1133.17 1021.21 1134.74 1027.53 1136.02 1035.86C1136.74 1040.51 1137.08 1044.44 1136.3 1048.37C1135.51 1052.36 1133.67 1055.92 1130.87 1060.05C1125.27 1068.32 1115.64 1072.59 1107.07 1074.47C1102.72 1075.43 1098.42 1075.82 1094.65 1075.77C1091 1075.72 1087.39 1075.24 1084.66 1074.12C1080.31 1072.35 1076.25 1069.47 1072.95 1066.43C1069.66 1063.4 1066.82 1059.93 1065.1 1056.74C1063.95 1054.62 1062.82 1051.26 1061.79 1047.38C1060.81 1043.72 1059.85 1039.29 1059 1034.37C1058.96 1034.14 1058.92 1033.9 1058.88 1033.67C1058.85 1033.44 1058.81 1033.21 1058.77 1032.97C1056.97 1022.04 1055.76 1008.68 1056.39 995.836C1056.79 987.755 1058.1 981.552 1059.51 975.58C1059.7 974.79 1059.89 974.008 1060.07 973.227C1061.3 968.103 1062.51 963.063 1063.31 956.713C1065.55 939.088 1066.81 928.656 1066.53 912.424C1066.5 910.899 1066.46 909.322 1066.41 907.683C1066.24 902.728 1066.06 897.579 1065.81 892.386C1065.27 880.727 1064.43 868.849 1062.93 858.466C1061.84 850.952 1060.43 844.428 1058.61 839.426C1056.71 834.179 1054.71 831.616 1053.21 830.715C1051.28 829.553 1048.1 829.454 1042.53 831.61C1037.99 833.371 1033.16 836.106 1028.07 838.99C1027.11 839.534 1026.14 840.084 1025.16 840.634C1008.2 850.152 1001.54 856.301 987.989 868.827C982.563 873.841 979.656 879.023 976.717 884.262C975.794 885.908 974.868 887.559 973.86 889.213C971.85 892.507 969.409 895.901 965.807 898.453C962.062 901.106 957.483 902.564 951.739 902.693C943.253 902.884 936.142 901.435 930.762 897.078C925.479 892.798 922.816 886.464 921.252 878.969C920.314 874.474 919.647 870.085 920.447 865.819C921.293 861.313 923.662 857.43 927.747 853.655C934.692 847.236 942.285 844.816 949.362 842.838C950.06 842.643 950.75 842.452 951.436 842.263C951.44 842.262 951.443 842.261 951.447 842.26C957.793 840.51 963.694 838.883 969.909 835.083C976.269 831.194 980.668 827.422 985.261 823.375C985.555 823.115 985.851 822.854 986.148 822.592C990.49 818.76 995.16 814.637 1001.66 810.312C1002.26 809.916 1002.86 809.533 1003.46 809.164C1009.59 805.375 1015.74 802.968 1021 800.913L1021 800.911C1022.81 800.206 1024.5 799.543 1026.06 798.88C1032.68 796.049 1037.91 792.884 1042.03 785.93C1044.29 782.112 1044.76 778.824 1045.33 774.837C1045.42 774.231 1045.51 773.608 1045.61 772.965C1046.19 769.141 1047.11 764.967 1050.23 760.744C1051.14 759.505 1052.25 758.262 1053.59 757.022C1058.51 752.477 1062.69 748.885 1067.71 747.031C1072.97 745.087 1078.42 745.284 1085.25 746.373C1090.06 747.139 1093.6 748.88 1096.45 750.281C1096.5 750.303 1096.54 750.325 1096.58 750.346C1099.49 751.777 1101.69 752.832 1104.69 753.319C1110.25 754.226 1114.48 753.181 1118.86 751.007C1121.16 749.87 1123.47 748.436 1126.08 746.742C1126.62 746.394 1127.17 746.033 1127.74 745.663C1129.86 744.281 1132.17 742.773 1134.62 741.31C1141.27 737.351 1144.31 734.155 1147.36 730.703C1147.63 730.404 1147.89 730.101 1148.16 729.794C1151.2 726.346 1154.64 722.431 1161.2 717.812C1164.07 715.79 1166.85 714.248 1169.97 713.208C1170.44 713.054 1170.9 712.913 1171.37 712.784C1174.06 712.042 1176.84 711.701 1179.91 711.586ZM1193.19 724.797C1190.19 722.632 1185.93 721.369 1180.35 721.578C1177.46 721.686 1175.42 722.024 1173.64 722.617C1171.85 723.21 1170.05 724.15 1167.75 725.766C1161.75 729.996 1159.02 733.324 1155.74 737.035C1152.26 740.96 1148.41 744.997 1140.48 749.717C1137.61 751.431 1135.02 753.166 1132.3 754.93C1129.64 756.649 1126.88 758.381 1123.98 759.82C1117.97 762.799 1111.28 764.549 1102.81 763.168C1097.93 762.374 1094.36 760.583 1091.5 759.176C1088.6 757.75 1086.4 756.703 1083.42 756.227C1077.14 755.227 1074.14 755.423 1071.72 756.316C1069.06 757.299 1066.34 759.381 1061.24 764.094C1057.76 767.31 1056.94 770.282 1056.32 774.361C1055.69 778.515 1055.29 784.367 1051.52 790.735C1045.87 800.269 1038.37 804.635 1030.59 807.957C1022.72 811.322 1015.68 813.313 1007.98 818.43C1001.74 822.583 997.405 826.489 992.727 830.612C988.042 834.74 983.075 839.022 975.879 843.423C967.395 848.61 959.187 850.539 952.495 852.41C945.729 854.302 940.348 856.151 935.398 860.726C932.563 863.347 931.5 865.438 931.108 867.528C930.671 869.858 930.961 872.688 931.876 877.074C933.277 883.785 935.309 887.465 937.894 889.558C940.382 891.574 944.311 892.858 951.476 892.696C955.24 892.611 957.528 891.719 959.224 890.517C961.064 889.214 962.638 887.246 964.434 884.302C967.826 878.741 971.816 869.632 980.338 861.756C994.057 849.076 1001.45 842.241 1019.55 832.086C1025.21 828.906 1031.98 824.853 1038.35 822.387C1044.57 819.982 1052.38 818.285 1059.11 822.331C1063.87 825.191 1066.83 830.619 1068.87 836.248C1071 842.12 1072.52 849.357 1073.65 857.139C1075.91 872.725 1076.7 891.339 1077.22 907.38C1077.87 927.218 1076.51 938.488 1074.06 957.876C1073.05 965.797 1071.45 971.94 1070.08 977.712C1068.72 983.483 1067.56 989.044 1067.2 996.29C1066.61 1008.32 1067.75 1021 1069.47 1031.47C1070.32 1036.7 1071.32 1041.33 1072.29 1044.99C1073.3 1048.78 1074.2 1051.21 1074.78 1052.27C1075.87 1054.28 1077.92 1056.89 1080.59 1059.35C1083.26 1061.81 1086.24 1063.84 1089.02 1064.97C1089.86 1065.31 1091.82 1065.73 1094.82 1065.77C1097.69 1065.81 1101.1 1065.51 1104.57 1064.74C1111.67 1063.19 1118.19 1059.93 1121.7 1054.75C1124.17 1051.1 1125.22 1048.78 1125.65 1046.57C1126.1 1044.3 1126 1041.7 1125.31 1037.27C1124.09 1029.4 1122.62 1023.43 1121.09 1017.35C1119.55 1011.25 1117.94 1005 1116.56 996.835C1113.8 980.555 1114.77 967.711 1116.38 955.113C1117.99 942.487 1120.19 930.494 1120.25 915.036C1120.34 891.349 1116.03 864.876 1112.85 841.843C1111.27 830.436 1109.97 819.81 1109.71 811.01C1109.58 806.602 1109.71 802.515 1110.24 798.932C1110.76 795.401 1111.72 792.021 1113.49 789.256C1117.2 783.478 1123.02 779.562 1129.38 776.634C1135.71 773.715 1143.05 771.567 1150.24 769.583C1157.58 767.556 1164.77 765.694 1171.48 763.299C1178.17 760.913 1183.97 758.132 1188.45 754.488C1192.84 750.927 1195.78 748.157 1197.54 745.266C1199.16 742.611 1199.91 739.61 1199.2 735.274C1198.38 730.319 1196.15 726.936 1193.19 724.797ZM1192.25 861.819C1192.25 851.299 1192.24 842.27 1191.12 834.721C1190.01 827.169 1187.89 821.885 1184.32 818.37C1180.96 815.056 1177.36 813.208 1173.59 812.44C1169.77 811.663 1165.4 811.92 1160.46 813.355C1156.91 814.388 1153.78 816.892 1151.4 820.483C1149.02 824.077 1147.6 828.462 1147.34 832.602C1146.87 839.972 1148.96 850.942 1152.76 865.092C1156.52 879.12 1161.74 895.535 1167.18 913.721C1177.76 949.038 1180.29 966.173 1198.27 1006.3C1201.91 1014.41 1209.98 1017.87 1221.35 1017.68C1226.31 1017.6 1229.27 1016.97 1231.38 1015.84C1233.37 1014.77 1235.26 1012.9 1237.2 1009.01C1242.33 998.729 1242.66 990.415 1242.82 981.526C1242.99 972.574 1242.95 962.8 1248.42 951.24C1266.1 913.889 1278.27 895.711 1298.82 863.887C1304.87 854.512 1309.79 845.655 1314.38 837.144C1318.96 828.682 1323.28 820.444 1328.03 812.582C1337.62 796.694 1349.13 782.053 1369.08 768.14C1376.8 762.753 1384.1 759.961 1389.92 757.252C1395.75 754.535 1400.76 751.67 1405.64 745.904C1410.61 740.04 1413.83 735.34 1415.52 730.571C1417.16 725.942 1417.48 720.892 1415.89 714.181C1414.51 708.381 1411.88 703.504 1408.85 699.912C1405.76 696.239 1402.55 694.238 1400.23 693.602C1395.18 692.223 1391.37 692.088 1387.74 692.709C1383.96 693.357 1380.05 694.876 1374.76 697.327C1366.68 701.074 1363.12 704.57 1356.24 711.329C1351.73 715.76 1347.13 722.705 1341.62 731.345C1336.24 739.784 1330.15 749.564 1322.88 758.86C1316.63 766.833 1311.3 772.738 1306.07 778.529C1300.84 784.314 1295.71 789.982 1289.69 797.638C1276.56 814.316 1270.44 823.68 1259.33 841.724C1251.77 854.008 1245.52 869.905 1239.89 883.609C1237.13 890.342 1234.48 896.623 1231.93 901.419C1230.66 903.814 1229.32 906.022 1227.89 907.796C1226.57 909.44 1224.65 911.37 1222.02 912.24C1216.56 914.041 1211.62 911.178 1208.84 908.984C1205.75 906.545 1203.16 903.287 1201.63 900.594C1198.04 894.261 1195.64 888.778 1194.18 882.653C1192.72 876.574 1192.25 870.086 1192.25 861.819ZM1203.07 861.819C1203.07 869.779 1203.53 875.442 1204.74 880.496C1205.94 885.503 1207.92 890.135 1211.21 895.954C1212.19 897.67 1213.96 899.873 1215.87 901.378C1217.24 902.459 1218.03 902.704 1218.34 902.765C1218.5 902.621 1218.8 902.338 1219.21 901.823C1220.07 900.757 1221.07 899.169 1222.22 897.013C1224.51 892.704 1226.99 886.859 1229.78 880.06C1230.29 878.819 1230.81 877.549 1231.34 876.255L1231.34 876.253L1231.34 876.251C1236.5 863.609 1242.6 848.684 1249.93 836.78C1252.62 832.411 1255.03 828.532 1257.32 824.924C1262.7 816.458 1267.44 809.483 1273.68 801.175C1275.88 798.243 1278.27 795.145 1280.93 791.757C1287.12 783.89 1292.41 778.037 1297.59 772.314C1297.65 772.248 1297.71 772.183 1297.76 772.118C1302.99 766.338 1308.11 760.664 1314.11 752.998C1320.44 744.918 1325.84 736.431 1330.9 728.472L1330.9 728.47C1331.37 727.731 1331.84 726.997 1332.3 726.268C1337.65 717.885 1342.86 709.881 1348.36 704.475C1348.47 704.373 1348.57 704.27 1348.67 704.169C1355.44 697.524 1360.12 692.926 1369.91 688.388C1375.34 685.873 1380.39 683.797 1385.77 682.876C1391.3 681.928 1396.85 682.251 1403.29 684.013C1408.48 685.429 1413.43 689.065 1417.39 693.772C1421.42 698.561 1424.74 704.809 1426.45 712.039C1428.39 720.195 1428.14 727.09 1425.81 733.685C1423.52 740.14 1419.35 745.945 1414.16 752.067C1407.9 759.456 1401.34 763.132 1394.78 766.183C1393.41 766.824 1392.06 767.428 1390.73 768.024C1385.7 770.275 1380.89 772.426 1375.59 776.122C1357.16 788.979 1346.56 802.417 1337.47 817.456C1333.68 823.738 1330.18 830.25 1326.45 837.185C1326.25 837.551 1326.05 837.918 1325.86 838.287C1325.27 839.384 1324.67 840.492 1324.07 841.611C1319.44 850.18 1314.38 859.306 1308.11 869.011C1306.91 870.874 1305.74 872.689 1304.59 874.462C1304.56 874.508 1304.53 874.554 1304.5 874.6C1286.12 903.031 1274.67 920.739 1258.34 955.248C1257.22 957.604 1256.38 959.86 1255.74 962.06C1253.88 968.514 1253.77 974.479 1253.65 981.044C1253.65 981.26 1253.65 981.476 1253.64 981.693C1253.48 990.83 1253.16 1000.92 1247.02 1013.2C1244.52 1018.22 1241.37 1022.05 1236.8 1024.49C1232.34 1026.88 1227.19 1027.59 1221.54 1027.68C1207.75 1027.9 1194.28 1023.51 1188.28 1010.13C1181.01 993.921 1176.19 981.283 1172.36 969.769C1166.53 952.241 1163.02 937.32 1156.76 916.388C1153.84 906.656 1150.95 897.281 1148.3 888.474C1146.06 881.035 1144 874.001 1142.25 867.499C1141.75 865.611 1141.26 863.754 1140.81 861.932C1137.86 850.17 1136.04 839.869 1136.54 832.015C1136.9 826.319 1138.82 820.327 1142.18 815.261C1145.53 810.192 1150.55 805.753 1157.22 803.815C1163.54 801.981 1169.85 801.44 1175.91 802.674C1182.02 803.916 1187.5 806.887 1192.21 811.53C1198.04 817.273 1200.61 825.008 1201.84 833.369C1202.78 839.725 1203 846.899 1203.05 854.502C1203.07 856.82 1203.07 859.178 1203.07 861.565C1203.07 861.65 1203.07 861.734 1203.07 861.819Z" fill="white"/>
<path fill-rule="evenodd" clip-rule="evenodd" d="M481 480H1563V1260H481V480ZM731.225 1052.19C707.434 1032.9 688.442 1014.97 674.251 998.378C660.06 981.404 648.999 964.817 641.069 948.615C633.138 932.027 627.921 915.054 625.417 897.695C622.912 880.336 621.66 861.627 621.66 841.567C621.66 802.22 628.13 768.852 641.069 741.463C654.008 713.689 672.164 691.122 695.538 673.763C718.912 656.404 746.668 643.867 778.807 636.151C811.364 628.05 846.842 624 885.242 624H953.485C977.276 624 1000.02 624.964 1021.73 626.893C1043.85 628.436 1065.76 633.065 1087.47 640.78C1109.17 648.496 1131.29 660.068 1153.83 675.499C1176.37 690.929 1200.58 712.338 1226.46 739.727C1230.63 743.971 1235.22 748.985 1240.23 754.772C1245.24 760.558 1250.04 766.73 1254.63 773.288C1259.22 779.846 1263.81 786.597 1268.41 793.54C1270.23 796.146 1271.99 798.691 1273.68 801.175C1275.88 798.243 1278.27 795.145 1280.93 791.757C1287.12 783.89 1292.41 778.037 1297.59 772.314L1297.76 772.118C1302.99 766.338 1308.11 760.664 1314.11 752.998C1320.44 744.918 1325.84 736.431 1330.9 728.472L1330.9 728.47C1331.37 727.731 1331.84 726.997 1332.3 726.268C1337.65 717.885 1342.86 709.881 1348.36 704.475L1348.67 704.169C1355.44 697.524 1360.12 692.926 1369.91 688.388C1375.34 685.873 1380.39 683.797 1385.77 682.876C1391.3 681.928 1396.85 682.251 1403.29 684.013C1408.48 685.429 1413.43 689.065 1417.39 693.772C1421.42 698.561 1424.74 704.809 1426.45 712.039C1428.39 720.195 1428.14 727.09 1425.81 733.685C1423.52 740.14 1419.35 745.945 1414.16 752.067C1407.9 759.456 1401.34 763.132 1394.78 766.183C1393.41 766.824 1392.06 767.428 1390.73 768.024C1385.7 770.275 1380.89 772.426 1375.59 776.122C1357.16 788.979 1346.56 802.417 1337.47 817.456C1333.68 823.738 1330.18 830.25 1326.45 837.185C1326.25 837.551 1326.05 837.918 1325.86 838.287C1325.27 839.384 1324.67 840.492 1324.07 841.611C1319.44 850.18 1314.38 859.306 1308.11 869.011C1306.91 870.874 1305.74 872.689 1304.59 874.462L1304.5 874.6C1286.12 903.031 1274.67 920.739 1258.34 955.248C1257.22 957.604 1256.38 959.86 1255.74 962.06L1280.93 986.805C1264.23 1013.04 1246.07 1034.45 1226.46 1051.03C1207.26 1067.62 1186.6 1080.54 1164.48 1089.8C1142.35 1099.45 1118.98 1106 1094.35 1109.48C1069.73 1113.33 1043.64 1115.26 1016.09 1115.26H947.85C926.563 1115.26 905.485 1113.91 884.615 1111.21C864.163 1108.9 844.337 1105.04 825.137 1099.64C806.355 1094.62 788.825 1088.07 772.546 1079.97C756.686 1072.25 742.912 1062.99 731.225 1052.19Z" fill="#0500FF"/>
<path d="M1140.81 861.932L1124.46 846.822C1124.61 847.923 1124.77 849.033 1124.93 850.151C1126.18 858.969 1127.51 868.292 1128.6 877.736L1148.3 888.474C1146.06 881.035 1144 874.001 1142.25 867.499C1141.75 865.611 1141.26 863.754 1140.81 861.932Z" fill="#0500FF"/>
<path d="M947.85 809.164C931.154 809.164 915.294 810.707 900.268 813.793C885.242 816.879 871.885 821.894 860.198 828.837C848.929 835.781 839.955 845.039 833.277 856.612C826.598 868.184 823.259 882.458 823.259 899.431C823.259 908.689 824.094 916.404 825.764 922.576C834.529 925.277 843.92 927.205 853.937 928.363C863.955 929.52 874.389 930.099 885.242 930.099H953.485C981.032 930.099 1006.91 924.698 1031.12 913.897C1043.41 908.505 1054.98 901.335 1065.81 892.386C1065.27 880.727 1064.43 868.849 1062.93 858.466C1061.84 850.952 1060.43 844.428 1058.61 839.426C1056.71 834.179 1054.71 831.616 1053.21 830.715C1051.28 829.553 1048.1 829.454 1042.53 831.61C1037.99 833.371 1033.16 836.106 1028.07 838.99C1027.11 839.534 1026.14 840.084 1025.16 840.634C1008.2 850.152 1001.54 856.301 987.989 868.827C982.563 873.841 979.656 879.023 976.717 884.262C975.794 885.908 974.868 887.559 973.86 889.213C971.85 892.507 969.409 895.901 965.807 898.453C962.062 901.106 957.483 902.564 951.739 902.693C943.253 902.884 936.142 901.435 930.762 897.078C925.479 892.798 922.816 886.464 921.252 878.969C920.314 874.474 919.647 870.085 920.447 865.819C921.293 861.313 923.662 857.43 927.747 853.655C934.692 847.236 942.285 844.816 949.362 842.838C950.06 842.643 950.75 842.452 951.436 842.263L951.447 842.26C957.793 840.51 963.694 838.883 969.909 835.083C976.269 831.194 980.668 827.422 985.261 823.375C985.555 823.115 985.851 822.854 986.148 822.592C990.49 818.76 995.16 814.637 1001.66 810.312C1002.26 809.916 1002.86 809.533 1003.46 809.164H947.85Z" fill="#0500FF"/>
<path d="M1203.07 861.819C1203.07 869.779 1203.53 875.442 1204.74 880.496C1205.94 885.503 1207.92 890.135 1211.21 895.954C1212.19 897.67 1213.96 899.873 1215.87 901.378C1217.24 902.459 1218.03 902.704 1218.34 902.765C1218.5 902.621 1218.8 902.338 1219.21 901.823C1220.07 900.757 1221.07 899.169 1222.22 897.013C1224.51 892.704 1226.99 886.859 1229.78 880.06C1230.29 878.819 1230.81 877.549 1231.34 876.255L1231.34 876.253L1231.34 876.251C1236.5 863.609 1242.6 848.684 1249.93 836.78C1252.62 832.411 1255.03 828.532 1257.32 824.924L1203.05 854.502C1203.07 856.82 1203.07 859.178 1203.07 861.565V861.819Z" fill="#0500FF"/>
<path d="M1 480H518V1260H1V480Z" fill="#0500FF"/>
<path d="M1532 480H2043V1260H1532V480Z" fill="#0500FF"/>
<path d="M1 0H2043V515H1V0Z" fill="#0500FF"/>
<path d="M0 1233H2042V1740H0V1233Z" fill="#0500FF"/>
<path d="M1094.35 660.454C1115.22 668.555 1134.42 679.935 1151.95 694.594C1158.67 700.062 1165.14 706.126 1171.37 712.784C1174.06 712.042 1176.84 711.701 1179.91 711.586C1187.48 711.303 1194.43 712.996 1199.85 716.918C1205.32 720.865 1208.73 726.698 1209.89 733.765C1210.95 740.156 1209.85 745.436 1206.97 750.17C1204.23 754.669 1200.03 758.398 1195.59 762C1189.75 766.746 1182.63 770.04 1175.38 772.627C1169.29 774.802 1162.81 776.572 1156.69 778.244C1155.56 778.554 1154.44 778.859 1153.34 779.164C1146.12 781.157 1139.61 783.096 1134.21 785.584C1128.83 788.062 1125.03 790.873 1122.8 794.353C1122.07 795.494 1121.39 797.389 1120.96 800.285C1120.54 803.13 1120.41 806.626 1120.53 810.739C1120.77 818.98 1122 829.15 1123.58 840.577C1123.86 842.622 1124.16 844.706 1124.46 846.822L1140.81 861.932C1137.86 850.17 1136.04 839.869 1136.54 832.015C1136.9 826.319 1138.82 820.327 1142.18 815.261C1145.53 810.192 1150.55 805.753 1157.22 803.815C1163.54 801.981 1169.85 801.44 1175.91 802.674C1182.02 803.916 1187.5 806.887 1192.21 811.53C1198.04 817.273 1200.61 825.008 1201.84 833.369C1202.78 839.725 1203 846.899 1203.05 854.502L1257.32 824.924C1262.7 816.458 1267.44 809.483 1273.68 801.175C1271.99 798.691 1270.23 796.146 1268.41 793.54C1263.81 786.597 1259.22 779.846 1254.63 773.288C1250.04 766.73 1245.24 760.558 1240.23 754.772C1235.22 748.985 1230.63 743.971 1226.46 739.727C1200.58 712.338 1176.37 690.929 1153.83 675.499C1131.29 660.068 1109.17 648.496 1087.47 640.78C1065.76 633.065 1043.85 628.436 1021.73 626.893C1000.02 624.964 977.276 624 953.485 624H885.242C846.842 624 811.364 628.05 778.807 636.151C746.668 643.867 718.912 656.404 695.538 673.763C672.164 691.122 654.008 713.689 641.069 741.463C628.13 768.852 621.66 802.22 621.66 841.567C621.66 861.627 622.912 880.336 625.417 897.695C627.921 915.054 633.138 932.027 641.069 948.615C648.999 964.817 660.06 981.404 674.251 998.378C688.442 1014.97 707.434 1032.9 731.225 1052.19C742.912 1062.99 756.686 1072.25 772.546 1079.97C788.825 1088.07 806.355 1094.62 825.137 1099.64C844.337 1105.04 864.163 1108.9 884.615 1111.21C905.485 1113.91 926.563 1115.26 947.85 1115.26H1016.09C1043.64 1115.26 1069.73 1113.33 1094.35 1109.48C1118.98 1106 1142.35 1099.45 1164.48 1089.8C1186.6 1080.54 1207.26 1067.62 1226.46 1051.03C1246.07 1034.45 1264.23 1013.04 1280.93 986.805L1255.74 962.06C1253.88 968.514 1253.77 974.479 1253.65 981.044L1253.64 981.693C1253.48 990.83 1253.16 1000.92 1247.02 1013.2C1244.52 1018.22 1241.37 1022.05 1236.8 1024.49C1232.34 1026.88 1227.19 1027.59 1221.54 1027.68C1207.75 1027.9 1194.28 1023.51 1188.28 1010.13C1181.01 993.921 1176.19 981.283 1172.36 969.769C1165.83 976.91 1159.03 983.36 1151.95 989.119C1144.99 994.792 1137.76 1000.01 1130.26 1004.77C1130.05 1004.9 1129.84 1005.04 1129.62 1005.17C1129.5 1005.25 1129.38 1005.32 1129.26 1005.4C1129.96 1008.47 1130.68 1011.36 1131.42 1014.27L1131.42 1014.27L1131.42 1014.28L1131.62 1015.07C1133.17 1021.21 1134.74 1027.53 1136.02 1035.86C1136.74 1040.51 1137.08 1044.44 1136.3 1048.37C1135.51 1052.36 1133.67 1055.92 1130.87 1060.05C1125.27 1068.32 1115.64 1072.59 1107.07 1074.47C1102.72 1075.43 1098.42 1075.82 1094.65 1075.77C1091 1075.72 1087.39 1075.24 1084.66 1074.12C1080.31 1072.35 1076.25 1069.47 1072.95 1066.43C1069.66 1063.4 1066.82 1059.93 1065.1 1056.74C1063.95 1054.62 1062.82 1051.26 1061.79 1047.38C1060.81 1043.72 1059.85 1039.29 1059 1034.37C1049 1036.77 1038.66 1038.65 1027.99 1040.04C1004.61 1043.13 979.78 1044.67 953.485 1044.67H885.242C848.929 1044.67 815.537 1041 785.068 1033.67C755.016 1025.96 728.929 1014 706.807 997.799C685.103 981.597 667.99 960.766 655.469 935.306C643.364 909.461 637.312 878.214 637.312 841.567C637.312 804.92 643.364 773.867 655.469 748.407C667.99 722.561 685.103 701.537 706.807 685.335C728.929 669.134 755.016 657.368 785.068 650.039C815.537 642.323 848.929 638.466 885.242 638.466H953.485C979.78 638.466 1004.61 640.009 1027.99 643.095C1051.78 646.181 1073.9 651.967 1094.35 660.454Z" fill="white"/>
<path d="M1036.13 754.193C1011.08 743.778 983.537 738.57 953.485 738.57H885.242C866.876 738.57 849.346 740.306 832.65 743.778C815.955 747.25 801.138 753.036 788.198 761.137C775.677 769.238 765.659 779.846 758.146 792.962C750.633 806.078 746.877 822.279 746.877 841.567C746.877 861.241 750.633 877.636 758.146 890.751C765.659 903.867 775.677 914.475 788.198 922.576C800.72 930.291 815.329 935.885 832.024 939.357C848.72 942.829 866.459 944.564 885.242 944.564H953.485C983.537 944.564 1011.08 939.55 1036.13 929.52C1046.96 925.013 1057.1 919.314 1066.53 912.424C1066.5 910.899 1066.46 909.322 1066.41 907.683C1066.24 902.728 1066.06 897.579 1065.81 892.386C1054.98 901.335 1043.41 908.505 1031.12 913.897C1006.91 924.698 981.032 930.099 953.485 930.099H885.242C874.389 930.099 863.955 929.52 853.937 928.363C843.92 927.205 834.529 925.277 825.764 922.576C824.094 916.404 823.259 908.689 823.259 899.431C823.259 882.458 826.598 868.184 833.277 856.612C839.955 845.039 848.929 835.781 860.198 828.837C871.885 821.894 885.242 816.879 900.268 813.793C915.294 810.707 931.154 809.164 947.85 809.164H1003.46C1009.59 805.375 1015.74 802.968 1021 800.913L1021 800.911C1022.81 800.206 1024.5 799.543 1026.06 798.88C1032.68 796.049 1037.91 792.884 1042.03 785.93C1044.29 782.112 1044.76 778.824 1045.33 774.837C1045.42 774.231 1045.51 773.608 1045.61 772.965C1046.19 769.141 1047.11 764.967 1050.23 760.744C1045.67 758.315 1040.97 756.132 1036.13 754.193Z" fill="white"/>
<path d="M556.085 1255L551.54 1200.45H571.142L571.852 1233.69H572.278L584.778 1200.45H603.812L605.517 1233.41H605.943L617.449 1200.45H637.051L614.324 1255H593.159L590.318 1225.74H589.75L577.25 1255H556.085Z" fill="white"/>
<path d="M658.944 1255.99C653.12 1255.99 648.29 1254.88 644.455 1252.66C640.62 1250.41 637.921 1247.19 636.359 1243C634.796 1238.78 634.512 1233.74 635.506 1227.87C636.453 1222.23 638.407 1217.31 641.366 1213.1C644.349 1208.88 648.101 1205.6 652.623 1203.26C657.168 1200.92 662.258 1199.74 667.893 1199.74C672.012 1199.74 675.622 1200.38 678.724 1201.66C681.849 1202.94 684.394 1204.8 686.359 1207.24C688.324 1209.68 689.649 1212.62 690.336 1216.08C691.046 1219.51 691.046 1223.39 690.336 1227.73L689.626 1232.27H640.904L642.609 1221.48H673.29C673.527 1219.91 673.373 1218.54 672.829 1217.36C672.308 1216.15 671.468 1215.22 670.308 1214.55C669.171 1213.87 667.798 1213.52 666.188 1213.52C664.578 1213.52 663.063 1213.87 661.643 1214.55C660.246 1215.24 659.05 1216.2 658.056 1217.43C657.085 1218.66 656.434 1220.1 656.103 1221.76L653.972 1233.12C653.688 1234.88 653.795 1236.44 654.292 1237.81C654.789 1239.19 655.653 1240.26 656.884 1241.04C658.115 1241.83 659.701 1242.22 661.643 1242.22C662.969 1242.22 664.223 1242.04 665.407 1241.68C666.614 1241.3 667.68 1240.76 668.603 1240.05C669.55 1239.32 670.308 1238.43 670.876 1237.39H688.773C687.495 1241.17 685.471 1244.46 682.701 1247.26C679.955 1250.03 676.569 1252.18 672.545 1253.72C668.544 1255.24 664.01 1255.99 658.944 1255.99Z" fill="white"/>
<path d="M725.466 1182.27L713.392 1255H693.789L705.863 1182.27H725.466Z" fill="white"/>
<path d="M749.516 1255.99C743.597 1255.99 738.72 1254.82 734.885 1252.48C731.05 1250.11 728.363 1246.82 726.824 1242.61C725.285 1238.37 724.989 1233.46 725.936 1227.87C726.836 1222.28 728.753 1217.38 731.689 1213.17C734.648 1208.93 738.436 1205.64 743.053 1203.3C747.693 1200.93 752.972 1199.74 758.891 1199.74C764.241 1199.74 768.704 1200.71 772.278 1202.66C775.877 1204.57 778.446 1207.3 779.984 1210.82C781.547 1214.33 781.949 1218.45 781.192 1223.18H763.01C763.223 1220.34 762.761 1218.16 761.625 1216.65C760.512 1215.13 758.891 1214.38 756.76 1214.38C755.008 1214.38 753.398 1214.87 751.93 1215.87C750.486 1216.84 749.243 1218.32 748.202 1220.31C747.184 1222.27 746.438 1224.74 745.964 1227.73C745.491 1230.71 745.432 1233.2 745.787 1235.18C746.166 1237.15 746.9 1238.63 747.989 1239.62C749.101 1240.59 750.51 1241.08 752.214 1241.08C753.682 1241.08 755.032 1240.75 756.263 1240.09C757.517 1239.4 758.595 1238.4 759.494 1237.1C760.418 1235.78 761.116 1234.17 761.589 1232.27H779.771C778.872 1237.1 777.061 1241.29 774.338 1244.84C771.616 1248.39 768.147 1251.14 763.933 1253.08C759.719 1255.02 754.913 1255.99 749.516 1255.99Z" fill="white"/>
<path d="M810.16 1255.99C804.242 1255.99 799.365 1254.82 795.529 1252.48C791.718 1250.11 789.043 1246.82 787.504 1242.61C785.965 1238.37 785.657 1233.46 786.581 1227.87C787.504 1222.28 789.433 1217.38 792.369 1213.17C795.305 1208.93 799.081 1205.64 803.697 1203.3C808.314 1200.93 813.593 1199.74 819.535 1199.74C825.43 1199.74 830.283 1200.93 834.095 1203.3C837.93 1205.64 840.617 1208.93 842.156 1213.17C843.718 1217.38 844.038 1222.28 843.115 1227.87C842.191 1233.46 840.25 1238.37 837.291 1242.61C834.332 1246.82 830.544 1250.11 825.927 1252.48C821.334 1254.82 816.079 1255.99 810.16 1255.99ZM812.575 1241.51C814.279 1241.51 815.83 1240.95 817.227 1239.84C818.647 1238.72 819.855 1237.14 820.849 1235.08C821.867 1233.02 822.613 1230.57 823.086 1227.73C823.56 1224.86 823.631 1222.41 823.299 1220.38C822.968 1218.32 822.281 1216.73 821.24 1215.62C820.198 1214.51 818.825 1213.95 817.12 1213.95C815.416 1213.95 813.853 1214.51 812.433 1215.62C811.012 1216.73 809.805 1218.32 808.811 1220.38C807.816 1222.41 807.082 1224.86 806.609 1227.73C806.136 1230.57 806.053 1233.02 806.36 1235.08C806.692 1237.14 807.378 1238.72 808.42 1239.84C809.485 1240.95 810.87 1241.51 812.575 1241.51Z" fill="white"/>
<path d="M846.666 1255L855.757 1200.45H874.365L872.66 1210.82H873.228C874.909 1207.41 877.288 1204.72 880.366 1202.73C883.444 1200.74 886.888 1199.74 890.7 1199.74C894.512 1199.74 897.637 1200.76 900.075 1202.8C902.513 1204.81 903.744 1207.49 903.768 1210.82H904.336C905.804 1207.49 908.207 1204.81 911.545 1202.8C914.883 1200.76 918.588 1199.74 922.66 1199.74C927.845 1199.74 931.787 1201.43 934.485 1204.79C937.208 1208.15 938.096 1212.62 937.149 1218.21L931.041 1255H911.439L916.836 1223.18C917.168 1220.79 916.836 1218.92 915.842 1217.57C914.848 1216.2 913.332 1215.51 911.297 1215.51C909.284 1215.51 907.58 1216.2 906.183 1217.57C904.81 1218.92 903.958 1220.79 903.626 1223.18L898.228 1255H879.478L884.876 1223.18C885.207 1220.79 884.876 1218.92 883.882 1217.57C882.887 1216.2 881.372 1215.51 879.336 1215.51C878.011 1215.51 876.803 1215.82 875.714 1216.43C874.649 1217.05 873.761 1217.94 873.051 1219.1C872.364 1220.23 871.903 1221.6 871.666 1223.18L866.268 1255H846.666Z" fill="white"/>
<path d="M966.561 1255.99C960.737 1255.99 955.908 1254.88 952.072 1252.66C948.237 1250.41 945.538 1247.19 943.976 1243C942.413 1238.78 942.129 1233.74 943.124 1227.87C944.071 1222.23 946.024 1217.31 948.983 1213.1C951.966 1208.88 955.718 1205.6 960.24 1203.26C964.786 1200.92 969.875 1199.74 975.51 1199.74C979.629 1199.74 983.24 1200.38 986.341 1201.66C989.466 1202.94 992.011 1204.8 993.976 1207.24C995.941 1209.68 997.267 1212.62 997.953 1216.08C998.663 1219.51 998.663 1223.39 997.953 1227.73L997.243 1232.27H948.521L950.226 1221.48H980.908C981.144 1219.91 980.991 1218.54 980.446 1217.36C979.925 1216.15 979.085 1215.22 977.925 1214.55C976.788 1213.87 975.415 1213.52 973.805 1213.52C972.196 1213.52 970.68 1213.87 969.26 1214.55C967.863 1215.24 966.668 1216.2 965.673 1217.43C964.703 1218.66 964.052 1220.1 963.72 1221.76L961.589 1233.12C961.305 1234.88 961.412 1236.44 961.909 1237.81C962.406 1239.19 963.27 1240.26 964.501 1241.04C965.732 1241.83 967.319 1242.22 969.26 1242.22C970.586 1242.22 971.84 1242.04 973.024 1241.68C974.232 1241.3 975.297 1240.76 976.22 1240.05C977.167 1239.32 977.925 1238.43 978.493 1237.39H996.391C995.112 1241.17 993.088 1244.46 990.318 1247.26C987.572 1250.03 984.187 1252.18 980.162 1253.72C976.161 1255.24 971.627 1255.99 966.561 1255.99Z" fill="white"/>
<path d="M1062.95 1200.45L1060.53 1214.66H1024.6L1027.01 1200.45H1062.95ZM1036.1 1187.39H1055.7L1047.39 1237.46C1047.28 1238.21 1047.3 1238.85 1047.46 1239.38C1047.63 1239.87 1047.96 1240.25 1048.46 1240.51C1048.98 1240.75 1049.67 1240.87 1050.52 1240.87C1051.09 1240.87 1051.79 1240.8 1052.61 1240.65C1053.44 1240.49 1054.07 1240.37 1054.5 1240.3L1055.06 1254.08C1054.07 1254.36 1052.73 1254.68 1051.05 1255.04C1049.39 1255.41 1047.46 1255.66 1045.26 1255.78C1040.67 1255.99 1036.93 1255.51 1034.04 1254.33C1031.18 1253.14 1029.19 1251.29 1028.08 1248.79C1026.99 1246.25 1026.8 1243.09 1027.51 1239.3L1036.1 1187.39Z" fill="white"/>
<path d="M1087.41 1255.99C1081.49 1255.99 1076.61 1254.82 1072.78 1252.48C1068.96 1250.11 1066.29 1246.82 1064.75 1242.61C1063.21 1238.37 1062.9 1233.46 1063.83 1227.87C1064.75 1222.28 1066.68 1217.38 1069.62 1213.17C1072.55 1208.93 1076.33 1205.64 1080.94 1203.3C1085.56 1200.93 1090.84 1199.74 1096.78 1199.74C1102.68 1199.74 1107.53 1200.93 1111.34 1203.3C1115.18 1205.64 1117.86 1208.93 1119.4 1213.17C1120.96 1217.38 1121.28 1222.28 1120.36 1227.87C1119.44 1233.46 1117.5 1238.37 1114.54 1242.61C1111.58 1246.82 1107.79 1250.11 1103.17 1252.48C1098.58 1254.82 1093.32 1255.99 1087.41 1255.99ZM1089.82 1241.51C1091.53 1241.51 1093.08 1240.95 1094.47 1239.84C1095.89 1238.72 1097.1 1237.14 1098.1 1235.08C1099.11 1233.02 1099.86 1230.57 1100.33 1227.73C1100.81 1224.86 1100.88 1222.41 1100.55 1220.38C1100.21 1218.32 1099.53 1216.73 1098.49 1215.62C1097.44 1214.51 1096.07 1213.95 1094.37 1213.95C1092.66 1213.95 1091.1 1214.51 1089.68 1215.62C1088.26 1216.73 1087.05 1218.32 1086.06 1220.38C1085.06 1222.41 1084.33 1224.86 1083.86 1227.73C1083.38 1230.57 1083.3 1233.02 1083.61 1235.08C1083.94 1237.14 1084.62 1238.72 1085.67 1239.84C1086.73 1240.95 1088.12 1241.51 1089.82 1241.51Z" fill="white"/>
<path d="M1169.83 1255.99C1163.91 1255.99 1159.03 1254.82 1155.2 1252.48C1151.36 1250.11 1148.68 1246.82 1147.14 1242.61C1145.6 1238.37 1145.3 1233.46 1146.25 1227.87C1147.15 1222.28 1149.07 1217.38 1152 1213.17C1154.96 1208.93 1158.75 1205.64 1163.37 1203.3C1168.01 1200.93 1173.28 1199.74 1179.2 1199.74C1184.55 1199.74 1189.02 1200.71 1192.59 1202.66C1196.19 1204.57 1198.76 1207.3 1200.3 1210.82C1201.86 1214.33 1202.26 1218.45 1201.5 1223.18H1183.32C1183.54 1220.34 1183.07 1218.16 1181.94 1216.65C1180.82 1215.13 1179.2 1214.38 1177.07 1214.38C1175.32 1214.38 1173.71 1214.87 1172.24 1215.87C1170.8 1216.84 1169.56 1218.32 1168.51 1220.31C1167.5 1222.27 1166.75 1224.74 1166.28 1227.73C1165.8 1230.71 1165.74 1233.2 1166.1 1235.18C1166.48 1237.15 1167.21 1238.63 1168.3 1239.62C1169.41 1240.59 1170.82 1241.08 1172.53 1241.08C1173.99 1241.08 1175.34 1240.75 1176.58 1240.09C1177.83 1239.4 1178.91 1238.4 1179.81 1237.1C1180.73 1235.78 1181.43 1234.17 1181.9 1232.27H1200.08C1199.18 1237.1 1197.37 1241.29 1194.65 1244.84C1191.93 1248.39 1188.46 1251.14 1184.25 1253.08C1180.03 1255.02 1175.23 1255.99 1169.83 1255.99Z" fill="white"/>
<path d="M1219.39 1255.85C1215.94 1255.85 1212.97 1255.28 1210.48 1254.15C1208.02 1252.99 1206.22 1251.24 1205.08 1248.89C1203.97 1246.52 1203.72 1243.54 1204.34 1239.94C1204.83 1236.96 1205.77 1234.42 1207.14 1232.31C1208.51 1230.2 1210.22 1228.47 1212.26 1227.12C1214.29 1225.77 1216.58 1224.74 1219.11 1224.03C1221.67 1223.3 1224.36 1222.83 1227.21 1222.61C1230.28 1222.38 1232.78 1222.08 1234.7 1221.73C1236.62 1221.37 1238.05 1220.89 1239 1220.27C1239.94 1219.65 1240.51 1218.83 1240.7 1217.78V1217.64C1240.91 1216.22 1240.53 1215.13 1239.56 1214.38C1238.62 1213.62 1237.29 1213.24 1235.59 1213.24C1233.74 1213.24 1232.14 1213.64 1230.79 1214.45C1229.47 1215.25 1228.56 1216.51 1228.06 1218.21H1210.02C1210.78 1214.9 1212.33 1211.84 1214.67 1209.05C1217.04 1206.23 1220.17 1203.98 1224.08 1202.3C1228.01 1200.6 1232.7 1199.74 1238.14 1199.74C1242.03 1199.74 1245.43 1200.21 1248.37 1201.13C1251.31 1202.03 1253.73 1203.3 1255.65 1204.93C1257.59 1206.54 1258.95 1208.43 1259.73 1210.61C1260.54 1212.77 1260.73 1215.11 1260.3 1217.64L1254.05 1255H1235.73L1237.01 1247.33H1236.58C1235.16 1249.37 1233.56 1251.01 1231.79 1252.27C1230.03 1253.52 1228.12 1254.43 1226.03 1255C1223.97 1255.57 1221.76 1255.85 1219.39 1255.85ZM1227.92 1243.49C1229.38 1243.49 1230.83 1243.19 1232.25 1242.57C1233.67 1241.96 1234.89 1241.07 1235.91 1239.91C1236.92 1238.75 1237.57 1237.34 1237.86 1235.68L1238.57 1231.14C1238.05 1231.35 1237.47 1231.55 1236.83 1231.74C1236.21 1231.91 1235.56 1232.07 1234.88 1232.24C1234.21 1232.4 1233.5 1232.56 1232.75 1232.7C1232.01 1232.84 1231.25 1232.98 1230.47 1233.12C1228.91 1233.36 1227.6 1233.75 1226.53 1234.3C1225.47 1234.82 1224.64 1235.47 1224.05 1236.25C1223.45 1237.01 1223.09 1237.86 1222.94 1238.81C1222.73 1240.3 1223.07 1241.46 1223.97 1242.29C1224.9 1243.09 1226.21 1243.49 1227.92 1243.49Z" fill="white"/>
<path d="M1305.04 1200.45L1302.62 1214.66H1266.69L1269.1 1200.45H1305.04ZM1278.19 1187.39H1297.79L1289.48 1237.46C1289.37 1238.21 1289.39 1238.85 1289.55 1239.38C1289.72 1239.87 1290.05 1240.25 1290.55 1240.51C1291.07 1240.75 1291.76 1240.87 1292.61 1240.87C1293.18 1240.87 1293.88 1240.8 1294.7 1240.65C1295.53 1240.49 1296.16 1240.37 1296.59 1240.3L1297.15 1254.08C1296.16 1254.36 1294.82 1254.68 1293.14 1255.04C1291.48 1255.41 1289.55 1255.66 1287.35 1255.78C1282.76 1255.99 1279.02 1255.51 1276.13 1254.33C1273.27 1253.14 1271.28 1251.29 1270.17 1248.79C1269.08 1246.25 1268.89 1243.09 1269.6 1239.3L1278.19 1187.39Z" fill="white"/>
<path d="M1329.35 1255.99C1323.53 1255.99 1318.7 1254.88 1314.87 1252.66C1311.03 1250.41 1308.33 1247.19 1306.77 1243C1305.21 1238.78 1304.92 1233.74 1305.92 1227.87C1306.86 1222.23 1308.82 1217.31 1311.78 1213.1C1314.76 1208.88 1318.51 1205.6 1323.03 1203.26C1327.58 1200.92 1332.67 1199.74 1338.3 1199.74C1342.42 1199.74 1346.03 1200.38 1349.13 1201.66C1352.26 1202.94 1354.8 1204.8 1356.77 1207.24C1358.73 1209.68 1360.06 1212.62 1360.75 1216.08C1361.46 1219.51 1361.46 1223.39 1360.75 1227.73L1360.04 1232.27H1311.31L1313.02 1221.48H1343.7C1343.94 1219.91 1343.78 1218.54 1343.24 1217.36C1342.72 1216.15 1341.88 1215.22 1340.72 1214.55C1339.58 1213.87 1338.21 1213.52 1336.6 1213.52C1334.99 1213.52 1333.47 1213.87 1332.05 1214.55C1330.66 1215.24 1329.46 1216.2 1328.47 1217.43C1327.5 1218.66 1326.84 1220.1 1326.51 1221.76L1324.38 1233.12C1324.1 1234.88 1324.2 1236.44 1324.7 1237.81C1325.2 1239.19 1326.06 1240.26 1327.29 1241.04C1328.53 1241.83 1330.11 1242.22 1332.05 1242.22C1333.38 1242.22 1334.63 1242.04 1335.82 1241.68C1337.02 1241.3 1338.09 1240.76 1339.01 1240.05C1339.96 1239.32 1340.72 1238.43 1341.29 1237.39H1359.18C1357.91 1241.17 1355.88 1244.46 1353.11 1247.26C1350.36 1250.03 1346.98 1252.18 1342.95 1253.72C1338.95 1255.24 1334.42 1255.99 1329.35 1255.99Z" fill="white"/>
<path d="M1375.28 1256.14C1372.51 1256.14 1370.25 1255.18 1368.5 1253.26C1366.77 1251.32 1366.05 1248.96 1366.33 1246.19C1366.61 1243.49 1367.83 1241.19 1369.99 1239.27C1372.17 1237.35 1374.64 1236.39 1377.41 1236.39C1380.04 1236.39 1382.23 1237.35 1383.98 1239.27C1385.75 1241.19 1386.5 1243.49 1386.22 1246.19C1386.03 1248.04 1385.38 1249.72 1384.26 1251.24C1383.17 1252.73 1381.83 1253.92 1380.22 1254.82C1378.63 1255.7 1376.98 1256.14 1375.28 1256.14Z" fill="white"/>
<path d="M1437.07 1200.45L1434.65 1214.66H1398.72L1401.13 1200.45H1437.07ZM1410.22 1187.39H1429.82L1421.51 1237.46C1421.4 1238.21 1421.42 1238.85 1421.59 1239.38C1421.75 1239.87 1422.08 1240.25 1422.58 1240.51C1423.1 1240.75 1423.79 1240.87 1424.64 1240.87C1425.21 1240.87 1425.91 1240.8 1426.74 1240.65C1427.56 1240.49 1428.19 1240.37 1428.62 1240.3L1429.19 1254.08C1428.19 1254.36 1426.85 1254.68 1425.17 1255.04C1423.52 1255.41 1421.59 1255.66 1419.38 1255.78C1414.79 1255.99 1411.05 1255.51 1408.16 1254.33C1405.3 1253.14 1403.31 1251.29 1402.2 1248.79C1401.11 1246.25 1400.92 1243.09 1401.63 1239.3L1410.22 1187.39Z" fill="white"/>
<path d="M1500.04 1200.45L1472.62 1255H1449.9L1440.66 1200.45H1460.55L1463.39 1236.53H1463.96L1478.73 1200.45H1500.04Z" fill="white"/>
</svg>
