<svg width="250" height="244" viewBox="0 0 250 244" fill="none" xmlns="http://www.w3.org/2000/svg">
<path d="M98.4105 139.82C99.2062 138.175 99.9549 136.461 101.045 134.983C102.141 133.497 103.681 132.438 105.322 131.631C108.421 130.104 112.357 129.24 115.264 131.532C116.671 132.643 117.926 133.999 118.805 135.567C119.178 136.232 119.502 136.967 119.612 137.731C119.65 138.012 119.53 138.623 119.633 138.87C119.712 139.06 119.506 139.105 119.813 138.745C120.255 138.226 119.762 138.692 119.657 138.79C118.419 139.951 117.428 140.918 115.738 141.332C113.726 141.825 111.639 141.864 109.584 142.003C107.58 142.14 105.547 142.093 103.657 141.33C102.276 140.774 100.693 139.824 100.783 138.143C100.931 135.384 96.6387 135.393 96.4928 138.143C96.3599 140.645 97.9 142.82 99.8798 144.152C101.956 145.55 104.451 146.172 106.924 146.329C109.564 146.496 112.37 146.194 114.983 145.821C117.497 145.463 119.627 144.65 121.523 142.932C122.207 142.312 123.078 141.647 123.524 140.823C124.095 139.766 123.996 138.308 123.835 137.16C123.47 134.569 121.999 132.259 120.266 130.353C118.689 128.618 116.724 127.007 114.476 126.256C111.965 125.418 109.002 125.842 106.525 126.591C103.775 127.421 101.098 128.794 99.0239 130.808C97.0548 132.723 95.8858 135.217 94.7082 137.654C94.2041 138.696 94.4229 139.972 95.4783 140.588C96.4156 141.139 97.9042 140.866 98.4105 139.82Z" fill="#1A53E6"/>
<path d="M104.794 134.289C104.749 136.219 104.504 138.22 105.088 140.101C105.939 142.838 109.03 144.354 111.437 142.332C113.243 140.813 113.704 137.931 113.571 135.691C113.425 133.244 112.486 130.029 109.912 129.154C108.565 128.695 107.031 129.032 106.027 130.049C105.083 131.005 104.753 132.318 104.594 133.607C104.361 135.522 104.517 137.69 105.135 139.524C105.547 140.749 106.197 141.958 107.379 142.587C109.054 143.481 111.021 142.726 112.068 141.259C113.792 138.842 114.011 135.32 112.934 132.607C112.417 131.303 111.735 129.883 110.442 129.199C108.475 128.161 106.75 129.787 106.201 131.599C105.71 133.225 105.864 135.022 106.023 136.684C106.205 138.585 106.431 140.358 108.162 141.484C108.814 141.909 109.669 141.836 110.326 141.484C111.924 140.629 112.246 138.844 112.426 137.206C112.645 135.198 112.323 133.321 111.383 131.528C111.068 130.926 110.231 130.383 109.532 130.467C106.064 130.876 106.207 135.172 106.276 137.845C106.347 140.601 110.637 140.611 110.566 137.845C110.547 137.085 110.542 136.324 110.585 135.565C110.613 135.08 110.652 134.763 110.686 134.602C110.721 134.447 110.838 134.201 110.83 134.04C110.712 134.282 110.705 134.304 110.808 134.102C110.532 134.52 110.105 134.739 109.53 134.756C108.912 134.402 108.295 134.049 107.679 133.695C108.202 134.692 108.277 135.702 108.179 136.809C108.153 137.109 108.116 137.384 108.101 137.457C108.067 137.626 107.941 137.883 107.956 138.055C107.949 137.98 108.116 137.806 108.164 137.78C108.884 137.78 109.607 137.78 110.328 137.78C110.742 138.051 110.506 138.173 110.508 137.961C110.508 137.943 110.364 137.414 110.399 137.59C110.334 137.257 110.334 136.903 110.302 136.566C110.208 135.595 110.12 134.613 110.189 133.637C110.208 133.358 110.315 132.959 110.322 132.753C110.315 132.757 110.311 132.764 110.304 132.768C110.8 131.998 110.167 132.063 108.408 132.961C108.189 132.914 108.282 132.648 108.363 132.957C108.297 132.706 108.316 132.901 108.391 133.019C108.49 133.176 108.578 133.336 108.661 133.499C108.745 133.658 108.822 133.821 108.895 133.986C108.76 133.68 108.908 134.016 108.949 134.143C109.208 134.943 109.339 135.73 109.279 136.575C109.253 136.922 109.198 137.253 109.097 137.59C108.996 137.922 108.644 138.417 108.597 138.746C108.552 139.059 108.245 138.655 108.826 138.692C108.962 138.7 109.054 138.685 109.195 138.728C109.502 138.823 109.719 139.239 109.451 138.784C109.251 138.45 109.343 138.638 109.202 138.169C109.097 137.819 109.015 137.463 108.949 137.105C108.919 136.948 108.897 136.794 108.872 136.637C108.811 136.283 108.923 137.171 108.884 136.714C108.867 136.504 108.844 136.294 108.829 136.084C108.781 135.404 108.777 134.718 108.835 134.038C108.893 133.358 108.781 134.25 108.859 133.862C108.893 133.693 108.932 133.525 108.974 133.356C109.004 133.234 109.08 133.101 109.099 132.978C109.009 133.525 109.107 132.923 109.129 132.989C109.086 133.041 109.043 133.092 109 133.141C109.148 133 109.159 132.98 109.032 133.086C108.912 133.197 108.522 133.234 108.912 133.186C108.786 133.201 108.702 133.214 108.573 133.219C108.267 133.227 108.421 132.867 108.505 133.229C108.453 133.002 108.805 133.742 108.792 133.716C108.856 133.853 109.002 134.323 109.075 134.589C109.157 134.898 109.217 135.211 109.275 135.524C109.341 135.887 109.251 135.003 109.27 135.52C109.277 135.698 109.292 135.876 109.294 136.054C109.298 136.331 109.29 136.607 109.273 136.882C109.24 137.392 109.277 137.158 109.174 137.671C109.114 137.971 109.037 138.269 108.942 138.559C108.717 139.241 109.002 138.37 108.865 138.75C108.82 138.842 108.769 138.934 108.713 139.02C108.837 138.883 108.85 138.87 108.751 138.979C108.558 139.286 108.513 139.007 108.683 139.054C108.698 139.059 109.397 138.969 108.863 138.975C109.041 138.973 109.163 139.125 108.932 138.964C109.058 138.984 109.163 139.035 109.251 139.121C109.382 139.23 109.376 139.217 109.234 139.082C109.296 139.065 109.455 139.404 109.286 139.112C109.056 138.72 109.346 139.387 109.225 138.958C109.18 138.799 109.146 138.64 109.105 138.482C109.084 138.383 109.065 138.282 109.05 138.181C109.073 138.372 109.075 138.389 109.058 138.231C108.914 136.914 109.054 135.601 109.086 134.282C109.148 131.528 104.858 131.528 104.794 134.289Z" fill="#1A53E6"/>
<path d="M170.302 127.395C167.764 126.162 165.261 125.002 162.385 124.987C159.824 124.974 157.08 125.366 154.654 126.192C150.1 127.74 146.246 130.73 143.751 134.842C141.012 139.356 147.629 142.539 151.018 143.496C155.615 144.793 160.879 144.894 165.238 142.747C167.67 141.548 169.665 139.283 171.248 137.132C172.554 135.359 173.912 132.821 173.453 130.548C173.108 128.841 170.268 128.35 169.532 130.035C169.502 130.102 169.474 130.17 169.444 130.237C168.981 131.299 169.131 132.538 170.214 133.171C171.121 133.703 172.683 133.469 173.148 132.401C173.178 132.335 173.206 132.266 173.236 132.199C171.93 132.028 170.622 131.858 169.315 131.687C169.208 131.153 169.3 131.387 169.193 131.781C169.103 132.116 168.987 132.446 168.863 132.768C168.689 133.218 168.775 132.976 168.818 132.879C168.773 132.976 168.73 133.079 168.678 133.173C168.397 133.69 168.099 134.19 167.756 134.67C166.776 136.043 165.456 137.574 164.03 138.496C161.121 140.375 157.25 140.407 153.957 139.779C152.228 139.449 150.388 138.966 148.884 138.02C148.417 137.726 148.142 137.499 147.704 137.046C147.617 136.954 147.271 136.515 147.288 136.512C147.529 136.467 146.842 138.012 147.456 137.001C149.232 134.076 151.934 131.79 155.152 130.554C157.213 129.763 159.41 129.394 161.61 129.289C164.039 129.175 165.999 130.055 168.14 131.093C169.182 131.599 170.459 131.376 171.074 130.323C171.623 129.39 171.349 127.903 170.302 127.395Z" fill="#1A53E6"/>
<path d="M154.616 130.833C153.035 133.669 153.547 137.759 156.018 139.955C157.413 141.195 159.343 141.615 160.945 140.491C162.215 139.599 163.015 138.07 163.269 136.56C163.747 133.72 163.337 128.206 159.886 127.237C156.84 126.381 155.141 129.793 154.639 132.232C154.03 135.187 155.426 141.589 159.712 140.592C162.494 139.944 162.895 136.455 162.756 134.085C162.664 132.528 162.473 130.739 161.31 129.579C159.671 127.946 157.359 128.523 156.574 130.645C155.817 132.691 155.57 136.294 157.185 137.986C157.829 138.662 158.861 139.076 159.791 138.82C160.894 138.518 161.634 137.255 161.913 136.214C162.359 134.542 162.151 132.026 161.257 130.499C160.587 129.353 158.948 129.07 157.829 129.673C156.994 130.121 156.51 130.908 156.196 131.777C155.504 133.69 156.164 135.685 156.778 137.527C157.646 140.133 161.791 139.015 160.915 136.386C160.594 135.423 160.238 134.471 160.171 133.452C160.156 133.238 160.075 133.885 160.15 133.579C160.18 133.454 160.208 133.33 160.24 133.205C160.27 133.085 160.272 132.869 160.311 132.993C160.302 133.053 160.274 133.102 160.227 133.141C159.918 133.538 159.455 133.707 158.837 133.649C158.337 133.15 157.837 132.65 157.34 132.152C157.535 132.746 157.734 133.366 157.807 133.988C157.833 134.216 157.859 134.679 157.84 134.816C157.814 134.998 157.758 135.183 157.711 135.236C158.406 135.052 159.103 134.87 159.798 134.685C159.438 134.606 159.596 134.713 160.272 135.009C160.399 135.123 160.48 135.26 160.516 135.425C160.484 135.429 160.381 134.906 160.377 134.885C160.459 135.316 160.371 134.657 160.368 134.614C160.358 134.355 160.36 134.093 160.371 133.834C160.379 133.581 160.399 133.328 160.42 133.075C160.429 132.961 160.525 132.369 160.439 132.879C160.465 132.729 160.486 132.579 160.521 132.431C160.536 132.358 160.553 132.285 160.574 132.212C160.791 131.65 160.641 131.775 160.126 132.588C159.766 132.686 159.405 132.783 159.043 132.882C158.665 132.894 158.376 132.753 158.174 132.459C158.193 132.326 158.223 132.401 158.269 132.68C158.284 132.957 158.395 133.227 158.425 133.493C158.479 133.952 158.496 134.419 158.492 134.88C158.489 135.151 158.477 135.421 158.457 135.691C158.429 135.951 158.429 135.976 158.462 135.766C158.44 135.91 158.414 136.051 158.384 136.191C158.354 136.328 158.32 136.463 158.281 136.598C158.196 136.843 158.196 136.856 158.284 136.635C158.153 136.847 158.168 136.849 158.326 136.639C158.449 136.538 158.588 136.468 158.74 136.427C159.313 136.277 159.701 137.017 159.433 136.345C159.305 136.024 159.071 135.753 158.949 135.423C158.854 135.172 158.783 134.88 158.749 134.612C158.725 134.43 158.753 133.482 158.732 133.651C158.792 133.186 158.944 132.729 159.084 132.283C159.129 132.148 159.178 132.013 159.227 131.88C159.148 132.056 159.163 132.028 159.27 131.794C159.393 131.545 159.566 131.324 159.691 131.08C159.553 131.264 159.564 131.269 159.725 131.097C159.62 131.213 159.491 131.292 159.341 131.337C159.577 131.254 158.296 131.483 158.359 131.136C158.346 131.206 158.672 131.753 158.717 131.88C158.835 132.202 158.927 132.543 158.998 132.879C159.232 133.988 159.268 135.614 158.882 136.42C158.828 136.532 158.573 137.008 158.526 136.969C158.481 136.935 159.034 136.862 159.009 136.894C158.97 136.946 158.408 136.137 158.305 135.906C157.889 134.958 157.912 133.746 158.331 132.995C159.665 130.587 155.961 128.42 154.616 130.833Z" fill="#1A53E6"/>
<path d="M132.359 137.053C131.917 140.862 132.134 144.684 132.445 148.493C132.593 150.314 132.797 152.135 132.797 153.965C132.797 155.901 132.655 157.832 132.709 159.768C132.784 162.522 137.076 162.535 136.999 159.768C136.945 157.832 137.087 155.901 137.087 153.965C137.087 152.135 136.885 150.314 136.735 148.493C136.424 144.682 136.207 140.862 136.649 137.053C136.782 135.902 135.568 134.909 134.504 134.909C133.232 134.909 132.492 135.897 132.359 137.053Z" fill="#1A53E6"/>
<path d="M128.561 176.242C131.321 176.242 131.325 171.953 128.561 171.953C125.802 171.953 125.796 176.242 128.561 176.242Z" fill="#1A53E6"/>
<path d="M126.081 175.249C128.818 176.546 131.553 177.586 134.631 177.121C136.171 176.887 137.576 176.308 138.901 175.5C140.055 174.796 141.392 174.176 142.31 173.166C144.163 171.126 141.136 168.085 139.277 170.133C138.657 170.816 137.67 171.217 136.889 171.701C135.928 172.298 134.978 172.771 133.843 172.93C131.868 173.207 129.987 172.37 128.245 171.545C127.198 171.049 125.93 171.255 125.311 172.315C124.766 173.25 125.03 174.751 126.081 175.249Z" fill="#1A53E6"/>
<path d="M80.3582 129.236C81.0317 132.773 81.2805 136.374 81.3492 139.97C81.4199 143.621 81.0896 147.26 80.9866 150.906C80.8794 154.651 81.1776 158.37 81.4843 162.1C81.7803 165.675 82.0699 169.229 82.9836 172.712C83.8802 176.12 85.386 179.21 87.3701 182.114C89.2706 184.894 91.3556 187.573 93.8974 189.799C99.1633 194.41 106.044 196.883 112.672 198.822C116.182 199.849 119.841 200.192 123.479 200.392C126.868 200.578 130.27 200.523 133.651 200.207C140.444 199.57 147.117 197.981 153.414 195.35C159.42 192.84 165.39 189.668 170.437 185.527C175.465 181.4 179.616 175.725 182.395 169.866C185.489 163.35 186.958 156.298 188.226 149.244C188.88 145.604 189.386 141.937 189.551 138.239C189.718 134.505 189.907 130.78 190.1 127.048C190.19 125.285 190.081 123.533 189.697 121.806C189.099 119.113 184.963 120.254 185.559 122.947C186.282 126.207 185.546 129.697 185.429 132.996C185.304 136.472 185.259 139.94 184.83 143.398C184.407 146.801 183.715 150.173 183.041 153.534C182.37 156.882 181.55 160.204 180.424 163.429C178.35 169.366 174.976 174.839 170.682 179.431C166.533 183.867 161.16 186.882 155.785 189.58C144.318 195.335 130.892 197.454 118.187 195.641C114.76 195.152 111.503 193.975 108.252 192.829C105.311 191.794 102.445 190.575 99.8068 188.902C97.1663 187.227 94.8969 185.027 92.9686 182.573C91.0638 180.152 89.1441 177.435 88.0544 174.537C86.9326 171.554 86.2998 168.371 86.0188 165.201C85.7035 161.634 85.3646 158.046 85.2659 154.464C85.1694 150.938 85.4611 147.423 85.592 143.904C85.7228 140.393 85.6155 136.869 85.2573 133.373C85.0772 131.606 84.8262 129.847 84.4958 128.103C84.2792 126.965 82.9086 126.317 81.8575 126.606C80.6628 126.926 80.1394 128.095 80.3582 129.236Z" fill="#1A53E6"/>
<path d="M79.9785 135.957C77.9043 135.979 75.8859 136.23 73.9854 137.094C72.1386 137.935 70.5127 139.387 69.2579 140.965C67.9173 142.649 66.922 144.721 67.0528 146.925C67.1708 148.909 68.0567 150.715 69.3565 152.195C71.7954 154.972 76.1025 156.427 79.3758 154.185C82.2265 152.234 84.9335 147.873 81.7825 144.922C80.5212 143.74 78.6272 143.367 76.967 143.194C75.0215 142.992 73.0009 143.552 72.3209 145.57C71.435 148.191 75.577 149.317 76.4586 146.711C76.2913 147.206 75.9567 147.215 75.695 147.507C75.7765 147.417 76.2613 147.414 75.8666 147.447C76.0811 147.429 76.2999 147.434 76.5122 147.444C76.819 147.459 76.9155 147.479 76.9713 147.487C77.4088 147.562 77.8421 147.665 78.2668 147.796C78.4149 147.841 78.9532 148.105 78.5178 147.858C78.625 147.918 78.7559 147.987 78.8546 148.038C78.979 148.105 79.0433 148.332 78.9296 148.116C78.9683 148.191 78.9232 148.186 78.9146 148.247C78.8739 148.532 78.9061 148.247 78.9125 148.234C78.8653 148.341 78.8631 148.465 78.8117 148.57C78.7688 148.658 78.683 148.834 78.5435 149.059C78.0888 149.795 77.4711 150.376 76.7418 150.771C76.1669 151.082 75.3046 151.086 74.4895 150.758C73.6701 150.43 72.8593 149.767 72.293 149.047C70.8774 147.243 71.1798 145.255 72.7135 143.492C73.6337 142.434 74.7276 141.407 76.0339 140.851C77.2823 140.322 78.6487 140.26 79.9828 140.247C82.737 140.219 82.7456 135.929 79.9785 135.957Z" fill="#1A53E6"/>
<path d="M192.393 136.324C195.197 135.818 197.972 136.635 199.588 139.142C200.36 140.339 200.1 141.512 199.783 142.829C199.414 144.36 198.914 146.038 197.606 147.039C196.49 147.893 195.07 148.096 193.712 148.212C192.475 148.317 191.205 148.506 190.682 147.168C190.581 146.91 190.591 146.756 190.566 146.516C190.576 146.623 190.587 146.458 190.679 146.318C190.763 146.192 191.186 145.857 191.572 145.647C192.481 145.152 193.691 144.886 194.838 144.712C195.984 144.538 196.617 143.097 196.336 142.074C195.999 140.849 194.847 140.401 193.697 140.577C190.896 141.004 187.37 142.252 186.475 145.268C185.935 147.093 186.572 149.044 187.73 150.488C189.081 152.171 191.132 152.66 193.21 152.54C197.2 152.313 200.954 151.03 202.799 147.196C204.515 143.629 205.235 139.357 202.627 136.069C201.355 134.465 199.605 133.178 197.693 132.448C195.613 131.655 193.401 131.801 191.252 132.189C190.111 132.395 189.467 133.782 189.755 134.827C190.085 136.028 191.25 136.532 192.393 136.324Z" fill="#1A53E6"/>
<path d="M163.058 90.5382C158.236 96.8974 152.715 102.579 146.081 107.038C142.741 109.283 139.232 111.241 135.622 113.013C133.734 113.939 131.812 114.795 129.91 115.687C128.908 116.157 127.919 116.65 126.928 117.139C126.364 117.418 125.253 118.188 124.717 118.132C123.563 118.012 122.572 119.205 122.572 120.277C122.572 121.536 123.558 122.302 124.717 122.422C126.338 122.591 128.065 121.352 129.466 120.661C131.053 119.876 132.653 119.132 134.262 118.39C137.325 116.979 140.358 115.49 143.288 113.822C149.03 110.551 154.598 106.594 159.116 101.742C161.806 98.8534 164.377 95.8486 166.763 92.7023C167.464 91.7779 166.909 90.3023 165.993 89.7683C164.892 89.1248 163.762 89.6117 163.058 90.5382Z" fill="#1A53E6"/>
<path d="M149.064 93.9485C145.997 96.5887 143.02 99.1516 139.498 101.178C136.012 103.184 132.458 105.099 128.882 106.937C125.12 108.872 121.297 110.688 117.413 112.359C113.661 113.974 109.805 115.284 105.965 116.668C103.792 117.451 101.656 118.311 99.5236 119.201C98.4811 119.636 97.3743 120.001 96.3747 120.528C96.0809 120.683 95.8042 120.865 95.5146 121.026C95.388 121.097 95.165 121.178 95.047 121.272C95.0663 121.264 95.0878 121.255 95.1071 121.247C94.6952 121.345 94.8303 121.358 95.5146 121.281C95.8299 122.476 96.1452 123.67 96.4605 124.865C98.0929 123.304 99.7638 121.834 101.218 120.097C102.685 118.345 104.041 116.503 105.545 114.778C107.123 112.968 108.646 111.106 110.229 109.298C111.349 108.02 113.286 106.823 113.586 105.041C113.835 103.559 113.001 102.489 111.518 102.326C110.008 102.161 109.118 103.525 108.179 104.436C107.007 105.575 105.673 106.532 104.388 107.533C101.533 109.762 98.7428 112.069 95.8621 114.263C90.225 118.553 84.4722 122.845 78.389 126.486C76.6279 127.542 74.8197 128.511 73.0072 129.476C72.0934 129.963 71.1818 130.448 70.2766 130.952C69.8605 131.183 69.4529 131.417 69.054 131.677C68.9167 131.765 68.7837 131.857 68.6464 131.943C68.4427 132.067 67.9965 132.144 68.4448 132.112C67.2886 132.191 66.2998 133.041 66.2998 134.257C66.2998 135.355 67.2822 136.483 68.4448 136.401C70.1758 136.281 71.5121 135.164 72.9858 134.358C74.558 133.495 76.1518 132.674 77.724 131.812C80.9115 130.066 83.966 128.101 86.9475 126.027C92.8548 121.918 98.6013 117.586 104.225 113.099C105.798 111.844 107.381 110.605 108.968 109.371C109.693 108.807 110.412 108.235 111.077 107.602C111.347 107.347 111.596 107.079 111.842 106.802C111.917 106.718 112.012 106.628 112.076 106.538C112.473 105.97 112.527 106.729 111.516 106.617C110.828 105.712 110.137 104.807 109.448 103.902C109.414 104.112 109.356 104.054 109.451 103.984C109.588 103.879 109.292 104.164 109.305 104.153C108.996 104.402 108.715 104.719 108.419 104.987C107.726 105.616 107.13 106.339 106.521 107.046C105.015 108.801 103.511 110.559 102.014 112.322C100.656 113.918 99.4142 115.61 98.0629 117.212C96.6429 118.896 95.0148 120.318 93.4275 121.837C92.222 122.99 92.8763 124.949 94.3735 125.42C96.0165 125.939 97.3314 124.792 98.7192 124.142C100.637 123.243 102.662 122.478 104.639 121.721C108.741 120.151 112.936 118.838 116.997 117.157C125.092 113.804 132.846 109.796 140.497 105.543C142.507 104.426 144.472 103.239 146.302 101.843C148.307 100.312 150.186 98.6326 152.097 96.9854C152.975 96.2283 152.874 94.7292 152.097 93.9528C151.227 93.0777 149.944 93.1914 149.064 93.9485Z" fill="#1A53E6"/>
<path d="M164.163 89.1741C164.156 91.2481 164.026 93.3392 164.137 95.411C164.24 97.3091 164.813 99.1407 165.317 100.964C166.306 104.548 167.571 108.065 169.59 111.209C171.525 114.223 173.918 116.961 176.619 119.31C178.007 120.517 179.448 121.678 180.894 122.817C181.357 123.181 181.827 123.541 182.299 123.893C183.35 124.676 181.992 123.655 182.711 124.215C183.38 124.736 184.086 125.367 184.961 125.489C186.106 125.648 187.264 125.21 187.599 123.992C187.874 122.988 187.256 121.515 186.102 121.354C185.821 121.315 185.328 120.839 184.935 120.541C184.328 120.082 183.723 119.625 183.131 119.147C181.775 118.051 180.403 116.964 179.109 115.795C176.805 113.714 174.746 111.372 173.101 108.736C171.372 105.97 170.319 102.954 169.457 99.8228C169.021 98.2421 168.466 96.6421 168.421 94.995C168.365 93.0561 168.451 91.113 168.457 89.172C168.461 86.4139 164.171 86.4096 164.163 89.1741Z" fill="#1A53E6"/>
<path d="M174.377 100.578C176.07 105.682 177.799 110.866 180.615 115.479C182.05 117.83 183.781 119.994 185.737 121.935C186.722 122.913 187.751 123.889 188.878 124.704C189.909 125.452 191.113 125.911 192.14 126.673C193.071 127.363 194.534 126.827 195.074 125.903C195.714 124.811 195.24 123.659 194.304 122.969C193.371 122.278 192.28 121.864 191.331 121.204C190.351 120.521 189.474 119.608 188.631 118.765C186.889 117.019 185.388 115.112 184.124 112.993C181.604 108.764 180.053 104.086 178.513 99.4387C177.649 96.8307 173.504 97.9481 174.377 100.578Z" fill="#1A53E6"/>
<path d="M192.902 111.063C194.376 114.561 196.452 118.117 196.321 122.025C196.229 124.785 200.519 124.783 200.611 122.025C200.759 117.65 198.689 113.834 197.04 109.922C196.589 108.856 195.622 108.089 194.401 108.425C193.393 108.7 192.447 109.989 192.902 111.063Z" fill="#1A53E6"/>
<path d="M152.539 41.0096C148.867 41.0075 145.191 40.9088 141.54 41.3935C137.964 41.8697 134.47 42.8241 131.001 43.7849C124.116 45.6895 117.286 47.6219 110.635 50.2492C104.114 52.825 97.5031 55.6689 91.7695 59.7568C89.0239 61.7128 86.362 63.9004 83.8566 66.1567C81.3384 68.4258 79.3908 71.1025 77.2157 73.6783C74.9442 76.3699 72.6898 79.0401 70.7507 81.987C68.8224 84.9167 67.0935 87.9708 65.3904 91.0335C63.6615 94.1434 62.4067 97.427 61.2548 100.786C60.1073 104.127 58.8911 107.439 57.9215 110.838C53.8997 124.942 53.5801 139.642 53.5736 154.205C53.5693 161.542 53.4514 168.843 52.7607 176.152C52.4325 179.618 51.9992 183.079 51.182 186.468C50.3712 189.827 49.6225 193.252 48.3785 196.484C47.8079 197.964 46.9992 199.341 46.3 200.761C47.632 201.121 48.964 201.481 50.2961 201.844C50.3025 201.751 50.3111 201.659 50.3175 201.567C50.4076 200.411 49.2665 199.422 48.1725 199.422C46.937 199.422 46.1176 200.407 46.0275 201.567C46.0211 201.659 46.0125 201.751 46.0061 201.844C45.8409 203.939 49.082 204.801 50.0022 202.927C51.523 199.834 52.9173 196.855 53.8289 193.513C54.7276 190.219 55.5835 186.882 56.1347 183.513C57.2973 176.401 57.7177 169.141 57.8228 161.943C58.0309 147.616 57.4175 133.15 60.3239 119.027C61.7225 112.232 63.979 105.656 66.3642 99.1514C67.5354 95.9578 69.157 93.0367 70.8408 90.092C72.5418 87.1194 74.305 84.1489 76.3642 81.4058C78.4362 78.6477 80.8022 76.119 82.9171 73.393C84.8648 70.8794 87.265 68.7862 89.7211 66.783C92.2822 64.6918 94.8519 62.7015 97.7069 61.0222C100.658 59.285 103.756 57.8115 106.887 56.4282C113.295 53.5971 119.927 51.2701 126.679 49.417C133.43 47.564 140.105 45.4128 147.162 45.2991C148.953 45.2712 150.746 45.2991 152.539 45.2991C155.3 45.3013 155.304 41.0118 152.539 41.0096Z" fill="#1A53E6"/>
<path d="M60.9224 203.491C63.0117 200.377 64.91 197.38 66.1476 193.814C66.626 192.432 67.2115 191.081 67.662 189.694C67.8293 189.177 67.9773 188.651 68.1811 188.145C68.2176 188.053 68.3098 187.976 68.3934 187.71C68.5372 187.489 68.535 187.474 68.3891 187.669C68.2519 187.772 68.1039 187.856 67.9409 187.916C67.0614 187.416 66.1819 186.916 65.3025 186.419C65.7422 188.563 65.6972 190.753 65.7122 192.934C65.7294 195.255 65.9224 197.565 66.0618 199.879C66.1948 202.077 66.2292 204.28 66.0726 206.478C65.9954 207.546 65.8838 208.619 65.6564 209.668C65.4055 210.819 65.1888 211.823 65.4441 213C65.6607 213.998 66.6002 214.472 67.5119 214.575C69.0798 214.753 70.384 213.408 71.2935 212.31C72.5376 210.811 73.8289 209.359 74.985 207.787C76.2527 206.064 77.2158 204.228 77.9494 202.221C78.3012 201.256 78.61 200.274 78.9833 199.315C79.127 198.944 79.2771 198.577 79.4123 198.202C79.5453 197.826 79.6761 197.861 79.4359 197.974C80.4826 197.479 80.7529 195.978 80.2059 195.04C79.5796 193.968 78.3226 193.775 77.2716 194.27C75.7529 194.989 75.3261 196.917 74.7769 198.356C74.082 200.179 73.5714 202.024 72.5633 203.709C71.6002 205.318 70.414 206.761 69.1935 208.179C68.7838 208.655 68.387 209.142 67.9773 209.616C67.7714 209.852 67.4582 210.079 67.2866 210.337C67.4089 210.266 67.3638 210.294 67.1536 210.422C67.7435 210.352 67.8636 210.305 67.5119 210.285C68.2004 210.811 68.8911 211.334 69.5796 211.859C69.5196 211.585 69.6954 211.233 69.7555 210.969C69.8692 210.468 69.9507 209.957 70.0258 209.449C70.2017 208.263 70.3304 207.072 70.3969 205.876C70.5256 203.594 70.4462 201.316 70.2939 199.036C70.1459 196.797 70.0065 194.564 69.9957 192.319C69.985 189.951 69.9121 187.605 69.4359 185.278C69.2 184.128 67.8615 183.508 66.7976 183.781C65.221 184.184 64.5153 185.732 63.9984 187.122C63.505 188.447 63.1146 189.563 62.6427 190.865C61.9842 192.677 61.4329 194.5 60.5042 196.201C59.5303 197.985 58.3484 199.643 57.218 201.329C55.6779 203.624 59.3909 205.775 60.9224 203.491Z" fill="#1A53E6"/>
<path d="M163.704 47.7378C166.834 48.6965 169.985 49.5994 173.041 50.7769C176.038 51.9308 178.833 53.5029 181.533 55.2294C184.32 57.0116 187.093 58.8197 189.862 60.6298C192.707 62.4915 195.347 64.6169 197.932 66.8217C207.078 74.6178 214.511 84.1212 219.875 94.877C225.384 105.918 228.537 118.128 229.502 130.411C230.04 137.266 229.8 144.03 228.586 150.799C227.355 157.66 226.39 164.665 225.903 171.62C225.429 178.415 224.794 185.276 224.927 192.092C224.991 195.334 225.336 198.637 226.426 201.709C227.496 204.722 229.06 207.54 230.948 210.116C231.889 211.403 232.895 212.642 233.966 213.826C234.742 214.686 236.209 214.616 236.999 213.826C237.874 212.951 237.749 211.679 236.999 210.794C235.714 209.28 232.752 210.112 231.01 209.882C227.827 209.464 224.729 208.256 221.907 206.762C216.334 203.808 211.759 199.375 207.705 194.605C206.954 193.722 205.444 193.833 204.671 194.605C203.796 195.48 203.919 196.752 204.671 197.638C208.79 202.485 213.507 207.006 219.101 210.116C221.984 211.718 225.135 213.059 228.369 213.747C229.723 214.037 231.156 214.296 232.546 214.262C232.988 214.251 233.429 214.225 233.871 214.221C234.096 214.219 234.32 214.223 234.545 214.227C234.822 214.251 234.815 214.242 234.528 214.202C234.929 214.305 234.74 214.178 233.966 213.822C234.976 212.812 235.988 211.8 236.999 210.789C232.831 206.185 229.776 200.703 229.32 194.425C228.831 187.676 229.635 180.838 230.042 174.104C230.461 167.18 231.246 160.208 232.462 153.379C233.093 149.832 233.73 146.297 233.94 142.694C234.139 139.284 234.127 135.863 233.929 132.455C233.196 119.683 230.212 107.036 224.869 95.4025C219.83 84.4343 212.625 74.3776 203.719 66.2169C201.197 63.9048 198.552 61.7151 195.843 59.6218C193.127 57.5242 190.18 55.7784 187.31 53.9039C184.569 52.1152 181.879 50.26 178.966 48.7566C175.952 47.2016 172.752 46.0499 169.524 45.0311C167.966 44.54 166.403 44.0746 164.843 43.5963C162.198 42.7899 161.068 46.9292 163.704 47.7378Z" fill="#1A53E6"/>
<path d="M193.146 189.417C192.604 194.099 192.22 198.996 193.713 203.553C195.083 207.735 197.732 212.141 201.336 214.738C202.275 215.416 203.725 214.901 204.27 213.968C204.903 212.887 204.444 211.714 203.5 211.034C202.057 209.994 201.003 208.467 200.1 206.961C199.103 205.297 198.161 203.583 197.636 201.707C196.516 197.717 196.969 193.471 197.438 189.417C197.571 188.265 196.357 187.272 195.293 187.272C194.019 187.272 193.279 188.261 193.146 189.417Z" fill="#1A53E6"/>
<path d="M180.647 205.074C181.014 206.333 181.336 207.611 181.773 208.848C181.988 209.453 182.228 210.054 182.498 210.637C182.606 210.871 182.73 211.09 182.854 211.315C182.966 211.518 183.123 212.201 183.086 211.63C183.161 212.786 184.019 213.775 185.231 213.775C186.334 213.775 187.451 212.792 187.376 211.63C187.288 210.264 186.518 209.307 186.046 208.078C185.527 206.731 185.188 205.318 184.785 203.935C184.015 201.288 179.873 202.414 180.647 205.074Z" fill="#1A53E6"/>
<path d="M94.4293 156.281C95.8751 155.695 97.3422 155.14 98.7129 154.389C99.7275 153.832 100.056 152.435 99.4829 151.455C98.8845 150.43 97.5675 150.125 96.5486 150.685C95.4911 151.266 94.4036 151.693 93.2882 152.146C92.2157 152.581 91.4585 153.574 91.791 154.784C92.0698 155.8 93.3504 156.718 94.4293 156.281Z" fill="#1A53E6"/>
<path d="M103.743 158.16C104.502 157.814 105.274 157.501 106.036 157.158C106.623 156.892 107.248 156.409 107.842 156.279C108.974 156.03 109.635 154.715 109.339 153.641C109.017 152.474 107.835 151.893 106.701 152.144C105.789 152.343 105.01 152.924 104.174 153.317C103.318 153.718 102.439 154.063 101.578 154.456C100.525 154.936 100.266 156.463 100.808 157.39C101.441 158.473 102.685 158.642 103.743 158.16Z" fill="#1A53E6"/>
<path d="M164.938 153.969C165.98 153.231 166.973 152.429 167.887 151.539C168.691 150.754 168.734 149.283 167.887 148.506C167.022 147.713 165.712 147.668 164.854 148.506C164.485 148.867 164.105 149.216 163.711 149.549C163.618 149.626 163.524 149.703 163.43 149.78C163.397 149.806 163.095 150.044 163.29 149.894C163.485 149.744 163.179 149.975 163.144 150.001C163.022 150.091 162.898 150.179 162.773 150.267C161.86 150.913 161.338 152.169 162.003 153.201C162.589 154.106 163.959 154.662 164.938 153.969Z" fill="#1A53E6"/>
<path d="M176.673 152.712C177.694 152.021 178.875 151.269 179.933 150.833C181.003 150.391 181.765 149.409 181.43 148.195C181.151 147.183 179.869 146.252 178.792 146.698C177.267 147.327 175.872 148.086 174.508 149.01C173.549 149.658 173.127 150.898 173.738 151.944C174.294 152.894 175.709 153.364 176.673 152.712Z" fill="#1A53E6"/>
<path d="M147.966 65.0396C136.137 74.8861 121.975 81.3246 108.05 87.598C105.976 88.5309 103.897 89.4532 101.793 90.3132C100.764 90.7336 99.7169 91.1089 98.6937 91.5443C98.1596 91.7716 97.6298 92.0054 97.1085 92.2585C96.9348 92.3421 96.7589 92.4236 96.5894 92.518C96.3814 92.6017 96.1948 92.7175 96.0296 92.8655C95.5942 93.1593 95.7679 93.1421 96.5466 92.8118C97.0463 93.6912 97.5461 94.5705 98.0438 95.4499C98.1017 95.0359 98.0695 95.1174 98.284 94.8772C98.6251 94.4976 98.9768 94.1351 99.3479 93.7856C100.088 93.0928 100.796 92.4001 101.476 91.6451C103.402 89.5068 105.204 87.2591 107.128 85.1208C108.7 83.375 110.285 81.6163 111.954 79.9649C113.344 78.5901 114.83 76.9751 113.917 74.9226C113.533 74.0604 112.338 73.7194 111.495 73.936C109.929 74.3414 108.518 75.1242 107.124 75.922C105.723 76.722 104.284 77.4512 102.872 78.2319C99.8606 79.8984 96.8983 81.6549 93.964 83.4501C91.1068 85.2002 88.3956 87.1605 85.7701 89.2387C84.4252 90.3046 83.0932 91.3942 81.804 92.5266C80.6436 93.5475 79.6269 94.7593 78.3785 95.6751C77.4454 96.3592 76.9799 97.5346 77.6084 98.6091C78.1468 99.5292 79.6054 100.067 80.5428 99.379C81.9027 98.3796 83.0524 97.1957 84.2879 96.0547C85.4376 94.9909 86.6603 93.9979 87.8765 93.0135C90.3947 90.9717 93.0266 89.0671 95.7872 87.3621C98.6551 85.5905 101.559 83.8726 104.502 82.2297C105.882 81.4597 107.291 80.7413 108.672 79.9734C109.961 79.2571 111.188 78.4442 112.632 78.0711C111.825 77.7429 111.017 77.4148 110.21 77.0845C110.223 77.1145 110.236 77.1445 110.251 77.1746C110.152 76.8142 110.056 76.4539 109.957 76.0915C109.94 75.8984 110.187 75.5102 110.092 75.5853C109.989 75.6689 109.918 75.8684 109.833 75.9821C110.028 75.7226 109.728 76.0872 109.689 76.1279C109.567 76.2587 109.447 76.3939 109.322 76.5226C108.874 76.988 108.411 77.4362 107.969 77.9081C106.068 79.937 104.161 81.9573 102.353 84.0677C100.695 86.0044 99.1098 88.0505 97.293 89.8414C96.0253 91.0918 94.1678 92.4086 93.9018 94.3089C93.7323 95.5207 94.1849 96.5244 95.399 96.9469C96.6388 97.378 97.5461 96.9405 98.5822 96.297C99.3329 95.8295 100.23 95.4949 101.057 95.1775C103.067 94.4097 105.051 93.5732 107.025 92.7132C110.899 91.0253 114.745 89.2602 118.582 87.4865C125.856 84.1235 133.031 80.4946 139.805 76.1987C143.7 73.728 147.447 71.0256 150.993 68.0744C151.883 67.3323 151.759 65.8074 150.993 65.0418C150.118 64.1581 148.861 64.2954 147.966 65.0396Z" fill="#1A53E6"/>
<path d="M217.43 133.87C215.527 147.423 215.102 161.119 216.994 174.7C217.406 177.664 217.704 180.709 218.305 183.641C218.376 183.984 218.449 184.328 218.513 184.671C218.558 184.902 218.601 185.136 218.639 185.368C218.76 186.093 218.633 185.007 218.682 185.666C218.689 185.758 218.659 186.101 218.706 186.174C218.545 185.919 219.425 184.924 219.006 185.293C219.281 185.05 219.532 184.958 219.899 184.943C219.671 184.941 219.746 184.956 220.119 184.99C219.907 184.926 219.954 184.956 220.263 185.078C220.162 184.997 219.993 184.928 219.879 184.864C219.429 184.604 220.201 185.166 219.785 184.795C219.549 184.587 219.326 184.368 219.111 184.139C218.401 183.382 218.228 183.116 217.64 182.254C216.917 181.194 216.243 180.096 215.662 178.953C214.032 175.755 212.758 172.394 211.668 168.978C211.246 167.656 210.937 166.378 210.679 165.021C210.424 163.674 210.047 162.406 209.141 161.349C208.389 160.467 206.883 160.575 206.108 161.349C205.235 162.222 205.353 163.5 206.108 164.381C205.875 164.109 206.147 164.572 206.087 164.36C206.158 164.607 206.25 164.847 206.314 165.096C206.473 165.703 206.574 166.325 206.683 166.942C206.921 168.293 207.355 169.585 207.781 170.886C208.869 174.196 210.143 177.458 211.69 180.581C212.365 181.945 213.135 183.253 213.998 184.508C215.044 186.03 216.261 187.759 217.912 188.686C219.766 189.726 222.331 189.117 222.917 186.875C223.193 185.818 222.856 184.574 222.657 183.532C222.436 182.378 222.322 181.777 222.174 180.679C221.687 177.093 221.07 173.529 220.707 169.926C220.349 166.376 220.137 162.811 220.062 159.245C219.894 151.144 220.448 143.031 221.574 135.009C221.735 133.864 221.295 132.706 220.077 132.371C219.064 132.097 217.593 132.717 217.43 133.87Z" fill="#1A53E6"/>
<path d="M120.004 200.402C120.06 205.275 120.673 212.355 116.094 215.535C115.144 216.196 114.706 217.414 115.324 218.469C115.875 219.411 117.301 219.902 118.258 219.239C124.419 214.961 124.367 207.152 124.292 200.402C124.262 197.642 119.972 197.635 120.004 200.402Z" fill="#1A53E6"/>
<path d="M130.362 201.23C130.349 205.299 130.384 209.496 131.54 213.434C132.359 216.22 134.176 219.523 137.479 219.531C140.24 219.538 140.244 215.248 137.479 215.242C137.022 215.24 137.316 215.233 137.449 215.289C137.224 215.197 137.246 215.201 137.031 214.972C136.748 214.669 136.548 214.343 136.321 213.916C135.862 213.059 135.57 211.99 135.334 210.92C134.635 207.74 134.642 204.469 134.652 201.228C134.661 198.47 130.371 198.466 130.362 201.23Z" fill="#1A53E6"/>
<path d="M115.661 220.975C117.098 222.821 118.64 224.584 120.607 225.888C122.739 227.302 125.047 227.705 127.546 227.33C129.785 226.993 131.761 226.028 133.655 224.822C134.672 224.175 135.742 223.445 136.538 222.53C136.864 222.154 137.138 221.743 137.406 221.326C137.539 221.118 137.771 220.846 137.868 220.621C137.992 220.327 138.389 220.462 137.636 220.698C140.264 219.879 139.142 215.737 136.495 216.561C135.399 216.902 134.719 217.653 134.084 218.573C133.466 219.467 133.453 219.679 132.58 220.37C131.165 221.489 129.44 222.504 127.683 222.944C125.901 223.39 124.466 223.272 122.908 222.272C121.216 221.187 119.916 219.512 118.694 217.942C117.981 217.026 116.407 217.194 115.661 217.942C114.758 218.845 114.946 220.057 115.661 220.975Z" fill="#1A53E6"/>
<path d="M113.736 216.526C112.458 216.912 111.141 217.101 109.845 217.406C108.339 217.757 107.01 218.44 105.59 219.027C104.466 219.493 103.286 219.776 102.198 220.331C100.914 220.99 99.7788 221.899 98.4961 222.568C96.0272 223.853 93.8093 225.157 91.8552 227.181C91.0144 228.052 90.1349 228.917 89.352 229.839C88.3482 231.023 87.7669 232.279 87.3164 233.764C86.9689 234.909 86.7973 236.144 86.3748 237.26C85.8728 238.579 84.9784 239.608 85.7506 241.088C86.703 242.911 89.0153 242.967 90.8106 242.844C93.2774 242.677 95.7463 242.733 98.2194 242.731C101.313 242.731 104.403 242.733 107.494 242.851C110.609 242.971 113.723 243.196 116.84 243.231C119.965 243.265 123.088 243.125 126.214 243.14C127.816 243.147 129.416 243.185 131.018 243.207C137.265 243.299 143.513 243.368 149.759 243.299C152.788 243.265 155.825 243.228 158.848 242.992C160.903 242.834 163.976 242.829 164.247 240.159C164.365 239.005 163.176 238.015 162.102 238.015C160.845 238.015 160.075 239.001 159.957 240.159C160.038 239.361 160.377 238.782 160.868 238.484C160.587 238.654 161.486 238.351 161.123 238.375C160.877 238.39 160.598 238.501 160.351 238.549C160.173 238.583 159.564 238.626 160.349 238.555C160.165 238.572 159.98 238.598 159.796 238.617C159.317 238.667 158.837 238.705 158.356 238.737C155.885 238.907 153.404 238.956 150.926 238.993C144.985 239.08 139.043 239.025 133.101 238.945C131.154 238.92 129.206 238.887 127.258 238.86C123.361 238.806 119.461 239.018 115.564 238.915C109.635 238.757 103.736 238.435 97.8011 238.437C95.6175 238.437 93.4168 238.343 91.2396 238.516C90.5082 238.574 89.736 238.66 89.0067 238.559C89.4678 238.624 88.863 238.529 88.8201 238.484C89.1654 238.838 88.9058 238.049 89.5086 239.042C89.9783 239.816 89.4078 240.728 89.9312 239.782C90.1156 239.449 90.2679 239.093 90.3966 238.735C90.8621 237.433 91.0938 236.046 91.5056 234.725C91.8724 233.547 92.4151 232.79 93.2688 231.913C95.1585 229.967 96.8509 228.192 99.3026 226.948C100.639 226.27 101.902 225.551 103.161 224.743C104.262 224.035 105.358 223.701 106.563 223.224C107.923 222.688 109.208 221.983 110.633 221.622C112.042 221.266 113.483 221.08 114.875 220.659C117.511 219.866 116.39 215.724 113.736 216.526Z" fill="#1A53E6"/>
<path d="M138.837 219.469C141.754 219.847 144.6 219.821 147.294 221.151C148.747 221.867 150.182 222.596 151.685 223.199C152.781 223.639 153.895 224.027 154.937 224.587C155.874 225.089 156.737 225.696 157.288 226.626C158.045 227.905 158.461 229.44 158.959 230.834C160.014 233.794 161.2 236.556 161.222 239.739C161.241 242.497 165.531 242.504 165.512 239.739C165.501 238.026 165.338 236.297 164.849 234.646C164.315 232.842 163.592 231.075 162.955 229.305C162.348 227.615 161.823 225.713 160.829 224.203C160.004 222.946 158.897 221.947 157.612 221.172C156.381 220.432 155.016 219.918 153.682 219.399C152.108 218.785 150.624 218.011 149.105 217.275C145.806 215.675 142.395 215.643 138.832 215.182C137.681 215.034 136.688 216.274 136.688 217.327C136.692 218.609 137.683 219.321 138.837 219.469Z" fill="#1A53E6"/>
<path d="M87.4301 202.989C86.866 205.502 86.3941 208.039 85.757 210.536C85.4588 211.705 85.1414 212.882 84.7167 214.01C84.2383 215.284 83.7193 216.367 83.6206 217.746C83.5369 218.902 84.6673 219.891 85.7656 219.891C86.9968 219.891 87.8269 218.907 87.9106 217.746C87.9835 216.751 88.6527 215.741 88.9745 214.812C89.3734 213.661 89.6973 212.481 89.9912 211.297C90.5811 208.921 91.0337 206.514 91.5699 204.125C92.1684 201.44 88.035 200.29 87.4301 202.989Z" fill="#1A53E6"/>
<path d="M99.0066 208.589C98.5176 211.042 97.6188 213.365 97.4365 215.881C97.3528 217.037 98.4833 218.026 99.5815 218.026C100.813 218.026 101.643 217.041 101.726 215.881C101.879 213.783 102.732 211.784 103.144 209.73C103.372 208.595 102.82 207.413 101.647 207.092C100.59 206.8 99.234 207.448 99.0066 208.589Z" fill="#1A53E6"/>
<path d="M165.776 200.945C166.102 204.355 166.447 207.778 167.157 211.132C167.498 212.745 167.957 214.326 168.382 215.919C168.562 216.593 168.8 217.296 168.891 217.991C168.837 217.575 168.914 218.257 168.88 218.266C168.871 217.839 169.081 217.496 169.513 217.236C169.706 217.047 169.892 216.994 170.072 217.075C169.98 217.47 167.887 215.724 167.732 215.557C166.988 214.755 166.387 213.847 165.761 212.955C164.995 211.861 164.159 210.821 163.432 209.699C162.651 208.494 162.134 206.926 160.761 206.261C159.852 205.82 158.918 205.92 158.161 206.596C156.819 207.795 156.99 209.927 156.984 211.559C156.975 213.311 156.743 215.471 157.855 216.964C158.545 217.892 159.712 218.364 160.789 217.734C161.705 217.197 162.254 215.735 161.559 214.8C161.269 214.409 161.282 214.124 161.259 213.509C161.235 212.921 161.263 212.335 161.272 211.748C161.278 211.293 161.261 210.838 161.272 210.384C161.274 210.268 161.319 209.541 161.293 209.708C161.379 209.157 161.512 209.35 161.199 209.631C160.332 209.742 159.465 209.854 158.599 209.965C158.487 209.912 158.734 210.167 158.824 210.332C159.017 210.688 159.217 211.038 159.427 211.383C159.922 212.19 160.469 212.962 161.036 213.719C161.849 214.806 162.597 215.941 163.419 217.022C165.118 219.256 168.131 222.315 171.269 221.114C174.749 219.784 172.516 214.815 171.876 212.395C170.885 208.636 170.439 204.809 170.07 200.949C169.961 199.795 169.163 198.804 167.925 198.804C166.846 198.8 165.664 199.784 165.776 200.945Z" fill="#1A53E6"/>
<path d="M193.161 86.6605C196.291 91.7006 199.367 96.775 202.346 101.905C203.79 104.389 205.257 106.868 206.602 109.408C207.239 110.613 207.837 111.842 208.361 113.101C208.786 114.124 209.59 115.496 209.45 116.618C209.307 117.77 210.54 118.763 211.595 118.763C212.874 118.763 213.597 117.772 213.74 116.618C213.921 115.181 213.23 113.802 212.715 112.5C212.172 111.128 211.58 109.772 210.926 108.449C209.575 105.719 207.994 103.091 206.469 100.453C203.359 95.0807 200.143 89.7682 196.868 84.4943C195.414 82.1565 191.701 84.3077 193.161 86.6605Z" fill="#1A53E6"/>
<path d="M208.331 97.5964C209.909 101.094 212.299 104.588 212.625 108.507C212.722 109.661 213.543 110.651 214.77 110.651C215.855 110.651 217.011 109.667 216.915 108.507C216.518 103.728 213.966 99.7025 212.035 95.4323C211.559 94.3771 210.025 94.1219 209.101 94.6624C208.015 95.2972 207.852 96.5347 208.331 97.5964Z" fill="#1A53E6"/>
<path d="M150.401 120.371C152.372 120.195 154.341 120.015 156.31 119.809C158.252 119.605 160.279 119.5 162.166 118.992C164.83 118.276 163.7 114.136 161.025 114.855C159.363 115.301 157.595 115.387 155.888 115.561C154.06 115.747 152.231 115.917 150.401 116.08C149.247 116.182 148.256 116.991 148.256 118.224C148.256 119.307 149.24 120.474 150.401 120.371Z" fill="#1A53E6"/>
<path d="M15.7393 54.9468C17.5258 54.9468 26.5448 57.0778 32.4121 59.128C34.2917 59.7848 36.6544 61.0383 38.6921 62.4751C40.6078 63.7935 42.5163 64.9846 44.6706 66.9577C45.1531 67.381 45.5083 67.6178 45.8742 67.8618" stroke="#1A53E6" stroke-width="5" stroke-linecap="round"/>
<path d="M44.4395 47.772C45.1534 48.8446 47.2951 50.9864 48.7409 52.7891C49.6987 54.2259 50.4162 55.3021 50.9526 56.0178C51.2521 56.3784 51.6073 56.7335 52.3319 57.817" stroke="#1A53E6" stroke-width="5" stroke-linecap="round"/>
<path d="M224.937 4.6547C224.937 8.8391 224.43 17.3154 223.66 18.8529C222.727 20.7165 220.721 21.9221 219.184 23.0142C217.805 23.9936 216.115 24.4865 214.577 24.999C213.04 25.5114 211.888 25.8953 211.502 26.1506C210.523 26.7989 214.18 25.8992 220.56 25.8953C223.499 25.8936 225.182 27.4271 226.85 28.452C228.425 29.4195 229.919 30.7515 231.457 32.6076C232.819 34.252 234.649 37.5157 236.002 39.9668C236.211 40.3448 236.323 40.7327 236.451 40.6751C238.173 39.9042 236.584 36.5252 236.517 34.3505C236.459 32.5018 237.474 30.5135 237.987 28.8455C238.463 27.2964 239.517 25.7763 240.799 24.2388C242.312 22.4251 244.377 21.423 246.363 20.398C246.825 20.1599 247.194 19.8875 246.567 19.7569C242.299 18.8695 240.684 18.7358 239.146 18.0928C237.61 17.4503 236.077 16.6858 234.54 15.8547C233.052 15.0505 231.47 14.1291 229.359 12.0849C227.874 10.6471 227.117 8.88517 226.411 7.34769C225.965 6.58183 225.451 5.81021 225.004 5.04435C224.81 4.65854 224.683 4.27849 224.169 3.11914" stroke="#1A53E6" stroke-width="5" stroke-linecap="round"/>
<path d="M165.986 3.00049C167.231 3.41337 169.314 5.49032 171.088 7.89257C172.23 8.83094 173.074 9.87567 173.697 11.0205C174.113 11.546 174.732 11.9589 175.996 13.6354" stroke="#1A53E6" stroke-width="5" stroke-linecap="round"/>
<path d="M175.37 3.00049C173.918 3.82626 171.003 6.3286 169.017 8.51815C168.495 9.04364 167.875 9.45653 167.247 9.97889C166.618 10.5013 165.999 11.1206 164.735 12.3843" stroke="#1A53E6" stroke-width="5" stroke-linecap="round"/>
<path d="M2.7085 162.525C3.95341 162.525 6.4495 163.351 9.26463 165.434C13.3372 169.194 15.0075 170.651 15.9428 171.796C16.4651 172.322 17.0844 172.734 18.3481 173.785" stroke="#1A53E6" stroke-width="5" stroke-linecap="round"/>
<path d="M14.5945 162.525C14.388 163.77 13.556 166.266 12.0984 168.771C11.6792 169.4 11.2664 170.019 10.8472 170.648C10.4281 171.277 10.0152 171.896 8.33862 173.785" stroke="#1A53E6" stroke-width="5" stroke-linecap="round"/>
</svg>
