<svg width="1000" height="780" viewBox="0 0 1000 780" fill="none" xmlns="http://www.w3.org/2000/svg">
<path d="M513.057 274.193C489.912 263.778 464.452 258.57 436.677 258.57H373.606C356.633 258.57 340.431 260.306 325 263.778C309.57 267.249 295.876 273.036 283.917 281.137C272.345 289.238 263.086 299.846 256.143 312.962C249.199 326.078 245.727 342.279 245.727 361.567C245.727 381.241 249.199 397.636 256.143 410.751C263.086 423.867 272.345 434.475 283.917 442.576C295.49 450.291 308.992 455.885 324.422 459.357C339.852 462.829 356.247 464.564 373.606 464.564H436.677C464.452 464.564 489.912 459.55 513.057 449.52C523.073 445.013 532.438 439.314 541.153 432.424C543.004 430.96 544.826 429.443 546.618 427.872L544.882 408.31C543.434 409.707 541.971 411.066 540.494 412.386C530.478 421.335 519.79 428.505 508.428 433.897C486.054 444.698 462.137 450.099 436.677 450.099H373.606C363.576 450.099 353.932 449.52 344.674 448.363C335.416 447.205 326.736 445.277 318.635 442.576C317.092 436.404 316.321 428.689 316.321 419.431C316.321 402.458 319.407 388.184 325.579 376.612C331.751 365.039 340.045 355.781 350.46 348.837C361.262 341.894 373.606 336.879 387.493 333.793C401.38 330.707 416.039 329.164 431.469 329.164H482.862H494.541L520.579 313.54L530.573 283.451C529.095 282.517 527.6 281.615 526.089 280.744C521.875 278.315 517.531 276.132 513.057 274.193Z" fill="white"/>
<path d="M566.87 180.454C586.158 188.555 603.903 199.935 620.105 214.594C626.313 220.062 632.294 226.126 638.049 232.784C639.213 234.131 640.368 235.503 641.514 236.899L657.138 238.318L668.132 248.733L669.289 261.463L664.081 269.564L584.808 316.43L589.437 361.567L594.692 366.822L609.802 381.932L614.897 387.027L609.689 349.995L620.684 330.9L643.25 326.849L658.874 339L662.345 361.567V377.443L667.331 374.502L717.486 344.924L728.511 338.422L736.139 326.849C734.999 324.994 733.821 323.103 732.607 321.175C731.042 318.691 729.417 316.146 727.731 313.54C723.488 306.597 719.245 299.846 715.001 293.288C710.758 286.73 706.322 280.558 701.693 274.772C697.064 268.985 692.82 263.971 688.963 259.727C665.046 232.338 642.672 210.929 621.841 195.499C601.01 180.068 580.565 168.496 560.505 160.78C540.446 153.065 520.194 148.436 499.749 146.893C479.689 144.964 458.665 144 436.677 144H373.606C338.116 144 305.327 148.05 275.238 156.151C245.534 163.866 219.882 176.404 198.279 193.763C176.677 211.122 159.896 233.689 147.938 261.463C135.979 288.852 130 322.22 130 361.567C130 381.627 131.157 400.336 133.472 417.695C135.786 435.054 140.608 452.027 147.938 468.615C155.267 484.817 165.49 501.404 178.605 518.378C191.721 534.965 209.273 552.903 231.261 572.191C242.063 582.992 254.793 592.25 269.451 599.965C284.496 608.066 300.698 614.624 318.057 619.639C335.802 625.04 354.125 628.897 373.027 631.212C392.315 633.912 411.796 635.262 431.469 635.262H494.541C520.001 635.262 544.111 633.333 566.87 629.476C589.63 626.004 611.232 619.446 631.678 609.802C652.123 600.544 671.218 587.621 688.963 571.034C707.093 554.446 723.874 533.036 739.304 506.805L716.029 482.06L711.819 477.584L708.636 495.232L707.479 524.743L695.328 542.102L668.71 540.366L657.138 524.743L642.56 485.395C635.437 494.299 627.952 502.207 620.105 509.119C612.18 516.101 603.886 522.39 595.224 527.987L598.117 543.259L601.589 565.247L591.752 585.499L562.82 590.707L543.725 573.927L537.939 553.371C536.698 553.714 535.452 554.047 534.2 554.371C524.955 556.765 515.4 558.655 505.535 560.039C483.933 563.125 460.98 564.669 436.677 564.669H373.606C340.045 564.669 309.184 561.004 281.024 553.674C253.25 545.959 229.14 534.001 208.695 517.799C188.635 501.597 172.819 480.766 161.246 455.306C150.059 429.461 144.466 398.214 144.466 361.567C144.466 324.92 150.059 293.867 161.246 268.407C172.819 242.561 188.635 221.537 208.695 205.335C229.14 189.134 253.25 177.368 281.024 170.039C309.184 162.323 340.045 158.466 373.606 158.466H436.677C460.98 158.466 483.933 160.009 505.535 163.095C527.523 166.181 547.968 171.967 566.87 180.454Z" fill="white"/>
<path d="M595.568 413.066L593.488 394.764L598.526 397.736L616.725 408.474L622.547 411.909L627.627 432.019L595.568 413.066Z" fill="white"/>
<path d="M645.942 231.586C652.936 231.303 659.358 232.996 664.375 236.918C669.425 240.865 672.575 246.698 673.653 253.765C674.629 260.156 673.616 265.436 670.952 270.17C668.421 274.669 664.538 278.398 660.439 282C655.038 286.746 648.457 290.04 641.758 292.627C635.084 295.204 627.912 297.213 621.384 299.164C614.713 301.157 608.694 303.096 603.702 305.584C598.73 308.062 595.223 310.873 593.16 314.353C592.484 315.494 591.855 317.389 591.46 320.285C591.072 323.13 590.949 326.626 591.06 330.739C591.282 338.98 592.424 349.15 593.883 360.577C594.144 362.622 594.415 364.706 594.692 366.822C594.836 367.923 594.982 369.033 595.129 370.151C596.287 378.969 597.512 388.292 598.526 397.736C599.871 410.266 600.846 423.01 600.803 435.072C600.745 451.279 598.593 464.147 597.156 476.288C595.717 488.457 594.926 500.286 597.271 515.291C598.482 523.043 599.887 528.948 601.316 535.074C602.747 541.211 604.191 547.533 605.381 555.86C606.046 560.515 606.354 564.442 605.636 568.371C604.907 572.36 603.205 575.917 600.62 580.05C595.447 588.321 586.545 592.592 578.627 594.473C574.604 595.429 570.628 595.823 567.144 595.768C563.775 595.716 560.435 595.238 557.91 594.125C553.886 592.351 550.134 589.468 547.089 586.432C544.044 583.398 541.428 579.934 539.831 576.741C538.77 574.619 537.726 571.263 536.772 567.38C535.872 563.721 534.981 559.29 534.2 554.371C534.163 554.138 534.126 553.904 534.089 553.669C534.053 553.438 534.018 553.206 533.983 552.973C532.324 542.036 531.204 528.678 531.787 515.836C532.154 507.755 533.368 501.552 534.671 495.58C534.843 494.79 535.016 494.008 535.189 493.227C536.322 488.104 537.437 483.063 538.181 476.713C540.245 459.088 541.411 448.656 541.153 432.424C541.129 430.899 541.092 429.322 541.042 427.683C540.892 422.728 540.719 417.579 540.494 412.386C539.988 400.727 539.215 388.849 537.825 378.466C536.819 370.952 535.515 364.428 533.838 359.426C532.08 354.179 530.235 351.616 528.849 350.715C527.062 349.553 524.125 349.454 518.979 351.61C514.775 353.371 510.314 356.106 505.613 358.99C504.725 359.534 503.828 360.084 502.923 360.634C487.245 370.152 481.093 376.301 468.567 388.827C463.552 393.841 460.865 399.023 458.149 404.262C457.296 405.908 456.44 407.559 455.508 409.213C453.651 412.507 451.394 415.901 448.066 418.453C444.604 421.106 440.372 422.564 435.064 422.693C427.221 422.884 420.649 421.435 415.677 417.078C410.794 412.798 408.333 406.464 406.887 398.969C406.02 394.474 405.404 390.085 406.144 385.819C406.925 381.313 409.115 377.43 412.89 373.655C419.309 367.236 426.327 364.816 432.867 362.838C433.512 362.643 434.15 362.452 434.784 362.263C434.787 362.262 434.79 362.261 434.793 362.26C440.659 360.51 446.113 358.883 451.857 355.083C457.735 351.194 461.801 347.422 466.045 343.375C466.317 343.115 466.59 342.854 466.865 342.592C470.878 338.76 475.194 334.637 481.205 330.312C481.757 329.916 482.309 329.533 482.862 329.164C490.474 324.074 498.126 321.478 503.748 318.88C509.873 316.049 514.7 312.884 518.509 305.93C520.919 301.531 521.13 297.835 521.818 292.965C522.357 289.141 523.206 284.967 526.089 280.744C526.935 279.505 527.956 278.262 529.195 277.022C533.741 272.477 537.605 268.885 542.242 267.031C547.105 265.087 552.143 265.284 558.461 266.373C562.903 267.139 566.176 268.88 568.809 270.281C568.85 270.303 568.891 270.325 568.932 270.346C571.621 271.777 573.655 272.832 576.419 273.319C581.562 274.226 585.468 273.181 589.524 271.007C591.644 269.87 593.779 268.436 596.196 266.742C596.693 266.394 597.204 266.033 597.728 265.663C599.684 264.281 601.818 262.773 604.088 261.31C610.232 257.351 613.037 254.155 615.861 250.703C616.106 250.404 616.352 250.101 616.601 249.794C619.404 246.346 622.586 242.431 628.648 237.812C631.302 235.79 633.868 234.248 636.759 233.208C637.187 233.054 637.617 232.913 638.049 232.784C640.534 232.042 643.103 231.701 645.942 231.586ZM658.217 244.797C655.448 242.632 651.504 241.369 646.346 241.578C643.679 241.686 641.794 242.024 640.146 242.617C638.497 243.21 636.83 244.15 634.708 245.766C629.157 249.996 626.636 253.324 623.601 257.035C620.389 260.96 616.829 264.997 609.505 269.717C606.845 271.431 604.452 273.166 601.937 274.93C599.485 276.649 596.934 278.381 594.249 279.82C588.694 282.799 582.514 284.549 574.682 283.168C570.18 282.374 566.88 280.583 564.234 279.176C561.554 277.75 559.522 276.703 556.763 276.227C550.962 275.227 548.188 275.423 545.954 276.316C543.496 277.299 540.979 279.381 536.267 284.094C533.051 287.31 532.295 290.282 531.72 294.361C531.134 298.515 530.767 304.367 527.279 310.735C522.057 320.269 515.13 324.635 507.943 327.957C500.663 331.322 494.158 333.313 487.045 338.43C481.273 342.583 477.269 346.489 472.945 350.612C468.616 354.74 464.025 359.022 457.374 363.423C449.534 368.61 441.947 370.539 435.763 372.41C429.509 374.302 424.536 376.151 419.961 380.726C417.341 383.347 416.359 385.438 415.996 387.528C415.592 389.858 415.86 392.688 416.706 397.074C418.001 403.785 419.879 407.465 422.268 409.558C424.568 411.574 428.199 412.858 434.82 412.696C438.299 412.611 440.414 411.719 441.982 410.517C443.682 409.214 445.137 407.246 446.797 404.302C449.932 398.741 453.619 389.632 461.495 381.756C474.174 369.076 481.007 362.241 497.733 352.086C502.97 348.906 509.227 344.853 515.115 342.387C520.855 339.982 528.074 338.285 534.299 342.331C538.699 345.191 541.434 350.619 543.32 356.248C545.289 362.12 546.695 369.357 547.736 377.139C549.823 392.725 550.55 411.339 551.037 427.38C551.64 447.218 550.383 458.488 548.112 477.876C547.185 485.797 545.7 491.94 544.441 497.712C543.181 503.483 542.106 509.044 541.776 516.29C541.23 528.317 542.281 540.999 543.869 551.473C544.662 556.701 545.581 561.326 546.483 564.992C547.413 568.777 548.245 571.209 548.776 572.269C549.783 574.284 551.681 576.89 554.149 579.349C556.615 581.808 559.373 583.842 561.943 584.974C562.716 585.315 564.53 585.726 567.3 585.769C569.954 585.811 573.101 585.508 576.316 584.744C582.873 583.186 588.901 579.928 592.142 574.747C594.423 571.1 595.395 568.783 595.799 566.573C596.214 564.303 596.114 561.704 595.482 557.274C594.357 549.4 592.995 543.43 591.576 537.346C590.155 531.25 588.667 525.003 587.391 516.835C584.847 500.555 585.735 487.711 587.226 475.113C588.719 462.487 590.748 450.494 590.803 435.036C590.887 411.349 586.903 384.876 583.963 361.843C582.507 350.436 581.302 339.81 581.064 331.01C580.944 326.602 581.063 322.515 581.552 318.932C582.034 315.401 582.919 312.021 584.558 309.256C587.982 303.478 593.366 299.562 599.241 296.634C605.096 293.715 611.881 291.567 618.521 289.583C625.303 287.556 631.951 285.694 638.155 283.299C644.334 280.913 649.69 278.132 653.837 274.488C657.889 270.927 660.611 268.157 662.237 265.266C663.732 262.611 664.429 259.61 663.768 255.274C663.011 250.319 660.954 246.936 658.217 244.797ZM657.346 381.819C657.346 371.299 657.336 362.27 656.307 354.721C655.277 347.169 653.314 341.885 650.019 338.37C646.911 335.056 643.586 333.208 640.098 332.44C636.568 331.663 632.537 331.92 627.969 333.355C624.684 334.388 621.795 336.892 619.595 340.483C617.394 344.077 616.082 348.462 615.838 352.602C615.405 359.972 617.337 370.942 620.846 385.092C624.325 399.12 629.15 415.535 634.182 433.721C643.953 469.038 646.29 486.173 662.914 526.301C666.274 534.411 673.732 537.866 684.246 537.681C688.826 537.601 691.562 536.97 693.509 535.842C695.356 534.771 697.096 532.897 698.889 529.013C703.635 518.729 703.941 510.415 704.089 501.526C704.238 492.574 704.207 482.8 709.264 471.24C725.604 433.889 736.851 415.711 755.842 383.887C761.436 374.512 765.977 365.655 770.226 357.144C774.451 348.682 778.444 340.444 782.833 332.582C791.703 316.694 802.34 302.053 820.774 288.14C827.912 282.753 834.656 279.961 840.034 277.252C845.428 274.535 850.053 271.67 854.566 265.904C859.155 260.04 862.138 255.34 863.7 250.571C865.217 245.942 865.506 240.892 864.034 234.181C862.762 228.381 860.329 223.504 857.535 219.912C854.678 216.239 851.714 214.238 849.564 213.602C844.897 212.223 841.376 212.088 838.024 212.709C834.527 213.357 830.914 214.876 826.026 217.327C818.556 221.074 815.272 224.57 808.91 231.329C804.739 235.76 800.49 242.705 795.401 251.345C790.428 259.784 784.801 269.564 778.073 278.86C772.304 286.833 767.378 292.738 762.54 298.529C757.708 304.314 752.967 309.982 747.399 317.638C735.27 334.316 729.611 343.68 719.347 361.724C712.359 374.008 706.583 389.905 701.381 403.609C698.825 410.342 696.376 416.623 694.023 421.419C692.847 423.814 691.608 426.022 690.287 427.796C689.063 429.44 687.295 431.37 684.859 432.24C679.816 434.041 675.253 431.178 672.682 428.984C669.824 426.545 667.427 423.287 666.017 420.594C662.7 414.261 660.48 408.778 659.127 402.653C657.784 396.574 657.346 390.086 657.346 381.819ZM667.346 381.819C667.346 389.779 667.775 395.442 668.892 400.496C669.998 405.503 671.827 410.135 674.875 415.954C675.774 417.67 677.41 419.873 679.173 421.378C680.44 422.459 681.171 422.704 681.456 422.765C681.61 422.621 681.884 422.338 682.267 421.823C683.06 420.757 683.988 419.169 685.046 417.013C687.161 412.704 689.451 406.859 692.032 400.06C692.503 398.819 692.983 397.549 693.472 396.255L693.472 396.253L693.474 396.251C698.248 383.609 703.884 368.684 710.655 356.78C713.141 352.411 715.367 348.532 717.486 344.924C722.458 336.458 726.843 329.483 732.607 321.175C734.641 318.243 736.847 315.145 739.311 311.757C745.031 303.89 749.921 298.037 754.702 292.314C754.756 292.248 754.811 292.183 754.865 292.118C759.694 286.338 764.424 280.664 769.972 272.998C775.819 264.918 780.809 256.431 785.489 248.472L785.49 248.47C785.924 247.731 786.356 246.997 786.785 246.268C791.724 237.885 796.54 229.881 801.628 224.475C801.725 224.373 801.821 224.27 801.917 224.169C808.169 217.524 812.497 212.926 821.544 208.388C826.56 205.873 831.233 203.797 836.201 202.876C841.314 201.928 846.44 202.251 852.398 204.013C857.191 205.429 861.766 209.065 865.428 213.772C869.153 218.561 872.216 224.809 873.802 232.039C875.591 240.195 875.364 247.09 873.203 253.685C871.088 260.14 867.232 265.945 862.441 272.067C856.657 279.456 850.59 283.132 844.532 286.183C843.26 286.824 842.014 287.428 840.782 288.024C836.136 290.275 831.694 292.426 826.797 296.122C809.762 308.979 799.96 322.417 791.565 337.456C788.058 343.738 784.822 350.25 781.376 357.185C781.194 357.551 781.011 357.918 780.828 358.287C780.283 359.384 779.732 360.492 779.173 361.611C774.895 370.18 770.22 379.306 764.429 389.011C763.317 390.874 762.232 392.689 761.173 394.462C761.146 394.508 761.118 394.554 761.091 394.6C744.103 423.031 733.522 440.739 718.425 475.248C717.394 477.604 716.617 479.86 716.029 482.06C714.247 488.726 714.201 494.871 714.087 501.693C713.934 510.83 713.637 520.92 707.968 533.203C705.653 538.219 702.746 542.045 698.524 544.493C694.4 546.883 689.643 547.588 684.422 547.68C671.675 547.903 659.221 543.511 653.676 530.128C636.739 489.247 634.139 471.07 624.544 436.388C621.852 426.656 619.174 417.281 616.725 408.474C614.657 401.035 612.752 394.001 611.14 387.499C610.672 385.611 610.224 383.754 609.802 381.932C607.076 370.17 605.394 359.869 605.856 352.015C606.191 346.319 607.964 340.327 611.068 335.261C614.172 330.192 618.805 325.753 624.971 323.815C630.809 321.981 636.647 321.44 642.248 322.674C647.891 323.916 652.961 326.887 657.314 331.53C662.697 337.273 665.075 345.008 666.215 353.369C667.082 359.725 667.284 366.899 667.331 374.502C667.346 376.82 667.346 379.178 667.346 381.565C667.346 381.65 667.346 381.734 667.346 381.819Z" fill="white"/>
<path fill-rule="evenodd" clip-rule="evenodd" d="M0 0H1000V780H0V0ZM231.261 572.191C209.273 552.903 191.721 534.965 178.605 518.378C165.49 501.404 155.267 484.817 147.938 468.615C140.608 452.027 135.786 435.054 133.472 417.695C131.157 400.336 130 381.627 130 361.567C130 322.22 135.979 288.852 147.938 261.463C159.896 233.689 176.677 211.122 198.279 193.763C219.882 176.404 245.534 163.866 275.238 156.151C305.327 148.05 338.116 144 373.606 144H436.677C458.665 144 479.689 144.964 499.749 146.893C520.194 148.436 540.446 153.065 560.505 160.78C580.565 168.496 601.01 180.068 621.841 195.499C642.672 210.929 665.046 232.338 688.963 259.727C692.82 263.971 697.064 268.985 701.693 274.772C706.322 280.558 710.758 286.73 715.001 293.288C719.245 299.846 723.488 306.597 727.731 313.54C729.417 316.146 731.042 318.691 732.607 321.175C734.641 318.243 736.847 315.145 739.311 311.757C745.031 303.89 749.921 298.037 754.702 292.314L754.865 292.118C759.694 286.338 764.424 280.664 769.972 272.998C775.819 264.918 780.809 256.431 785.489 248.472L785.49 248.47C785.924 247.731 786.356 246.997 786.785 246.268C791.724 237.885 796.54 229.881 801.628 224.475L801.917 224.169C808.169 217.524 812.497 212.926 821.544 208.388C826.56 205.873 831.233 203.797 836.201 202.876C841.314 201.928 846.44 202.251 852.398 204.013C857.191 205.429 861.766 209.065 865.428 213.772C869.153 218.561 872.216 224.809 873.802 232.039C875.591 240.195 875.364 247.09 873.203 253.685C871.088 260.14 867.232 265.945 862.441 272.067C856.657 279.456 850.59 283.132 844.532 286.183C843.26 286.824 842.014 287.428 840.782 288.024C836.136 290.275 831.694 292.426 826.797 296.122C809.762 308.979 799.96 322.417 791.565 337.456C788.058 343.738 784.822 350.25 781.376 357.185C781.194 357.551 781.011 357.918 780.828 358.287C780.283 359.384 779.732 360.492 779.173 361.611C774.895 370.18 770.22 379.306 764.429 389.011C763.317 390.874 762.232 392.689 761.173 394.462L761.091 394.6C744.103 423.031 733.522 440.739 718.425 475.248C717.394 477.604 716.617 479.86 716.029 482.06L739.304 506.805C723.874 533.036 707.093 554.446 688.963 571.034C671.218 587.621 652.123 600.544 631.678 609.802C611.232 619.446 589.63 626.004 566.87 629.476C544.111 633.333 520.001 635.262 494.541 635.262H431.469C411.796 635.262 392.315 633.912 373.027 631.212C354.125 628.897 335.802 625.04 318.057 619.639C300.698 614.624 284.496 608.066 269.451 599.965C254.793 592.25 242.063 582.992 231.261 572.191Z" fill="#0500FF"/>
<path d="M609.802 381.932L594.692 366.822C594.836 367.923 594.982 369.033 595.129 370.151C596.287 378.969 597.512 388.292 598.526 397.736L616.725 408.474C614.657 401.035 612.752 394.001 611.14 387.499C610.672 385.611 610.224 383.754 609.802 381.932Z" fill="#0500FF"/>
<path d="M431.469 329.164C416.039 329.164 401.38 330.707 387.493 333.793C373.606 336.879 361.262 341.894 350.46 348.837C340.045 355.781 331.751 365.039 325.579 376.612C319.407 388.184 316.321 402.458 316.321 419.431C316.321 428.689 317.092 436.404 318.635 442.576C326.736 445.277 335.416 447.205 344.674 448.363C353.932 449.52 363.576 450.099 373.606 450.099H436.677C462.137 450.099 486.054 444.698 508.428 433.897C519.79 428.505 530.478 421.335 540.494 412.386C539.988 400.727 539.215 388.849 537.825 378.466C536.819 370.952 535.515 364.428 533.838 359.426C532.08 354.179 530.235 351.616 528.849 350.715C527.062 349.553 524.125 349.454 518.979 351.61C514.775 353.371 510.314 356.106 505.613 358.99C504.725 359.534 503.828 360.084 502.923 360.634C487.245 370.152 481.093 376.301 468.567 388.827C463.552 393.841 460.865 399.023 458.149 404.262C457.296 405.908 456.44 407.559 455.508 409.213C453.651 412.507 451.394 415.901 448.066 418.453C444.604 421.106 440.372 422.564 435.064 422.693C427.221 422.884 420.649 421.435 415.677 417.078C410.794 412.798 408.333 406.464 406.887 398.969C406.02 394.474 405.404 390.085 406.144 385.819C406.925 381.313 409.115 377.43 412.89 373.655C419.309 367.236 426.327 364.816 432.867 362.838C433.512 362.643 434.15 362.452 434.784 362.263L434.793 362.26C440.659 360.51 446.113 358.883 451.857 355.083C457.735 351.194 461.801 347.422 466.045 343.375C466.317 343.115 466.59 342.854 466.865 342.592C470.878 338.76 475.194 334.637 481.205 330.312C481.757 329.916 482.309 329.533 482.862 329.164H431.469Z" fill="#0500FF"/>
<path d="M667.346 381.819C667.346 389.779 667.775 395.442 668.892 400.496C669.998 405.503 671.827 410.135 674.875 415.954C675.774 417.67 677.41 419.873 679.173 421.378C680.44 422.459 681.171 422.704 681.456 422.765C681.61 422.621 681.884 422.338 682.267 421.823C683.06 420.757 683.988 419.169 685.046 417.013C687.161 412.704 689.451 406.859 692.032 400.06C692.503 398.819 692.983 397.549 693.472 396.255L693.472 396.253L693.474 396.251C698.248 383.609 703.884 368.684 710.655 356.78C713.141 352.411 715.367 348.532 717.486 344.924L667.331 374.502C667.346 376.82 667.346 379.178 667.346 381.565V381.819Z" fill="#0500FF"/>
</svg>
