<svg width="300" height="317" viewBox="0 0 300 317" fill="none" xmlns="http://www.w3.org/2000/svg">
<path d="M81.9407 154.499C83.1849 151.928 84.3553 149.248 86.0589 146.938C87.7726 144.614 90.1805 142.958 92.746 141.697C97.5919 139.309 103.746 137.958 108.29 141.543C110.49 143.28 112.452 145.399 113.827 147.85C114.41 148.89 114.916 150.04 115.088 151.233C115.148 151.673 114.96 152.628 115.121 153.014C115.245 153.312 114.923 153.383 115.403 152.819C116.094 152.008 115.322 152.736 115.158 152.89C113.223 154.704 111.674 156.216 109.031 156.863C105.885 157.635 102.622 157.695 99.4095 157.913C96.2773 158.128 93.0981 158.054 90.1436 156.86C87.9839 155.992 85.509 154.506 85.6498 151.877C85.8812 147.565 79.1707 147.578 78.9426 151.877C78.7347 155.79 81.1426 159.19 84.238 161.273C87.4842 163.459 91.3844 164.432 95.2511 164.676C99.3793 164.938 103.766 164.465 107.85 163.882C111.781 163.322 115.111 162.051 118.076 159.365C119.145 158.396 120.507 157.356 121.204 156.069C122.096 154.416 121.942 152.135 121.691 150.341C121.121 146.291 118.82 142.679 116.11 139.698C113.645 136.986 110.574 134.468 107.059 133.294C103.132 131.983 98.5007 132.647 94.6273 133.817C90.328 135.115 86.1428 137.261 82.8999 140.409C79.8213 143.404 77.9936 147.303 76.1525 151.113C75.3644 152.742 75.7065 154.737 77.3564 155.7C78.8219 156.562 81.1493 156.136 81.9407 154.499Z" fill="#1A53E6"/>
<path d="M91.9209 145.852C91.8505 148.869 91.4682 151.998 92.3804 154.939C93.7118 159.217 98.5443 161.588 102.307 158.426C105.131 156.052 105.852 151.545 105.644 148.045C105.416 144.219 103.947 139.192 99.9226 137.824C97.8165 137.106 95.4187 137.633 93.8493 139.222C92.3737 140.718 91.8573 142.77 91.6091 144.785C91.2435 147.78 91.4884 151.17 92.4542 154.037C93.0981 155.951 94.1142 157.842 95.962 158.825C98.5812 160.223 101.656 159.043 103.293 156.749C105.989 152.97 106.331 147.464 104.648 143.223C103.84 141.184 102.773 138.964 100.751 137.894C97.6757 136.272 94.9794 138.813 94.1209 141.647C93.3529 144.188 93.5944 146.998 93.8426 149.597C94.1276 152.568 94.4798 155.341 97.1861 157.101C98.2056 157.765 99.5436 157.651 100.57 157.101C103.068 155.764 103.571 152.974 103.853 150.412C104.195 147.273 103.692 144.339 102.223 141.536C101.73 140.594 100.422 139.745 99.329 139.876C93.9063 140.517 94.131 147.233 94.2383 151.411C94.3489 155.72 101.056 155.737 100.945 151.411C100.915 150.224 100.909 149.034 100.976 147.847C101.019 147.089 101.08 146.593 101.133 146.341C101.187 146.1 101.371 145.714 101.358 145.463C101.173 145.841 101.163 145.875 101.324 145.56C100.892 146.214 100.224 146.556 99.3257 146.583C98.3598 146.029 97.394 145.476 96.4315 144.923C97.2498 146.482 97.3672 148.061 97.2129 149.792C97.1727 150.261 97.1157 150.69 97.0922 150.804C97.0385 151.069 96.8406 151.471 96.8641 151.74C96.8541 151.622 97.1157 151.351 97.1894 151.311C98.3162 151.311 99.4464 151.311 100.573 151.311C101.22 151.733 100.852 151.924 100.855 151.592C100.855 151.565 100.63 150.737 100.684 151.012C100.583 150.492 100.583 149.939 100.533 149.413C100.385 147.894 100.248 146.358 100.355 144.832C100.385 144.396 100.553 143.773 100.563 143.451C100.553 143.457 100.546 143.467 100.536 143.474C101.311 142.27 100.322 142.371 97.5718 143.776C97.2297 143.702 97.3739 143.286 97.5013 143.769C97.3973 143.377 97.4275 143.682 97.5449 143.866C97.6992 144.111 97.8367 144.363 97.9675 144.618C98.0982 144.866 98.219 145.121 98.333 145.379C98.1217 144.899 98.3531 145.426 98.4168 145.624C98.8226 146.874 99.0272 148.105 98.9333 149.426C98.893 149.969 98.8059 150.486 98.6482 151.012C98.4906 151.532 97.9407 152.306 97.8669 152.819C97.7964 153.309 97.3169 152.679 98.2257 152.736C98.437 152.749 98.5812 152.726 98.8025 152.793C99.2821 152.94 99.6208 153.591 99.2016 152.88C98.8897 152.357 99.0339 152.652 98.8126 151.917C98.6482 151.371 98.5208 150.814 98.4168 150.254C98.3699 150.009 98.3363 149.768 98.2961 149.523C98.2022 148.97 98.3766 150.358 98.3162 149.644C98.2894 149.315 98.2525 148.987 98.229 148.658C98.1553 147.595 98.1486 146.522 98.2391 145.459C98.3297 144.396 98.1553 145.791 98.276 145.184C98.3297 144.919 98.39 144.658 98.4571 144.393C98.504 144.202 98.6214 143.994 98.6516 143.803C98.5107 144.658 98.665 143.716 98.6986 143.819C98.6315 143.9 98.5644 143.98 98.4973 144.058C98.7287 143.836 98.7455 143.806 98.5476 143.97C98.3598 144.145 97.7495 144.202 98.3598 144.128C98.162 144.151 98.0312 144.172 97.8299 144.178C97.3504 144.192 97.5919 143.628 97.7227 144.195C97.6422 143.84 98.1921 144.996 98.172 144.956C98.2726 145.171 98.5007 145.905 98.6147 146.321C98.7421 146.804 98.836 147.293 98.9266 147.783C99.0305 148.35 98.8897 146.968 98.9199 147.776C98.9299 148.055 98.9534 148.333 98.9568 148.611C98.9635 149.044 98.95 149.476 98.9232 149.906C98.8729 150.704 98.9299 150.338 98.769 151.139C98.6751 151.609 98.5544 152.075 98.4068 152.528C98.0547 153.594 98.5007 152.233 98.2861 152.826C98.2156 152.97 98.1351 153.115 98.0479 153.249C98.2424 153.034 98.2626 153.014 98.1083 153.185C97.8065 153.664 97.7361 153.229 98.001 153.302C98.0245 153.309 99.1178 153.168 98.2827 153.178C98.5611 153.175 98.7522 153.413 98.39 153.161C98.5879 153.192 98.7522 153.272 98.8897 153.406C99.0943 153.577 99.0842 153.557 98.8629 153.346C98.9601 153.319 99.2083 153.849 98.9434 153.393C98.5845 152.779 99.0372 153.822 98.8494 153.151C98.779 152.903 98.7254 152.655 98.6617 152.407C98.6281 152.253 98.5979 152.095 98.5745 151.938C98.6114 152.236 98.6147 152.263 98.5879 152.015C98.3632 149.956 98.5812 147.904 98.6315 145.841C98.7287 141.536 92.0216 141.536 91.9209 145.852Z" fill="#1A53E6"/>
<path d="M194.339 135.074C190.372 133.146 186.459 131.332 181.961 131.309C177.957 131.289 173.668 131.902 169.875 133.193C162.756 135.614 156.729 140.289 152.829 146.717C148.546 153.775 158.892 158.751 164.191 160.247C171.378 162.275 179.607 162.433 186.422 159.076C190.225 157.202 193.343 153.661 195.818 150.298C197.861 147.525 199.984 143.558 199.266 140.004C198.726 137.334 194.286 136.567 193.136 139.202C193.089 139.306 193.045 139.413 192.998 139.517C192.274 141.177 192.508 143.115 194.202 144.104C195.621 144.936 198.062 144.571 198.79 142.901C198.837 142.797 198.88 142.689 198.927 142.586C196.885 142.317 194.839 142.052 192.797 141.784C192.629 140.949 192.773 141.315 192.606 141.932C192.465 142.455 192.284 142.971 192.089 143.474C191.818 144.178 191.952 143.799 192.019 143.648C191.948 143.799 191.881 143.96 191.801 144.108C191.362 144.916 190.895 145.697 190.359 146.448C188.826 148.594 186.764 150.989 184.534 152.43C179.986 155.368 173.933 155.418 168.785 154.436C166.082 153.919 163.205 153.165 160.854 151.686C160.123 151.227 159.694 150.871 159.01 150.164C158.872 150.019 158.332 149.332 158.359 149.329C158.735 149.258 157.661 151.673 158.621 150.093C161.397 145.52 165.623 141.945 170.653 140.014C173.876 138.776 177.31 138.2 180.751 138.035C184.547 137.858 187.612 139.232 190.959 140.855C192.589 141.647 194.584 141.298 195.547 139.651C196.405 138.193 195.976 135.869 194.339 135.074Z" fill="#1A53E6"/>
<path d="M169.815 140.45C167.343 144.882 168.145 151.277 172.008 154.711C174.188 156.649 177.206 157.306 179.711 155.549C181.696 154.154 182.947 151.763 183.343 149.403C184.091 144.963 183.45 136.342 178.054 134.826C173.292 133.488 170.636 138.823 169.852 142.636C168.899 147.257 171.082 157.266 177.783 155.707C182.132 154.694 182.759 149.238 182.542 145.533C182.397 143.099 182.099 140.302 180.281 138.488C177.719 135.936 174.104 136.838 172.876 140.154C171.693 143.353 171.307 148.987 173.832 151.632C174.838 152.689 176.451 153.336 177.907 152.937C179.631 152.464 180.788 150.489 181.224 148.863C181.921 146.247 181.596 142.314 180.197 139.926C179.151 138.136 176.589 137.693 174.838 138.635C173.534 139.336 172.776 140.567 172.286 141.925C171.203 144.916 172.236 148.034 173.195 150.915C174.553 154.989 181.032 153.242 179.664 149.131C179.161 147.625 178.604 146.137 178.5 144.544C178.477 144.208 178.35 145.221 178.467 144.742C178.514 144.547 178.557 144.353 178.608 144.158C178.655 143.97 178.658 143.632 178.718 143.826C178.705 143.92 178.661 143.997 178.588 144.058C178.105 144.678 177.38 144.943 176.415 144.852C175.633 144.071 174.852 143.29 174.074 142.512C174.379 143.441 174.691 144.41 174.805 145.382C174.845 145.738 174.885 146.462 174.855 146.676C174.815 146.961 174.728 147.25 174.654 147.334C175.74 147.045 176.83 146.76 177.917 146.472C177.354 146.348 177.602 146.515 178.658 146.978C178.856 147.156 178.983 147.371 179.04 147.629C178.99 147.635 178.829 146.817 178.822 146.784C178.95 147.458 178.812 146.428 178.809 146.361C178.792 145.955 178.796 145.546 178.812 145.141C178.826 144.745 178.856 144.349 178.889 143.954C178.903 143.776 179.054 142.85 178.92 143.649C178.96 143.414 178.993 143.179 179.047 142.948C179.071 142.834 179.097 142.72 179.131 142.606C179.47 141.727 179.235 141.922 178.43 143.192C177.867 143.347 177.303 143.498 176.736 143.652C176.146 143.672 175.693 143.451 175.378 142.991C175.408 142.783 175.455 142.901 175.526 143.337C175.549 143.769 175.724 144.192 175.771 144.608C175.854 145.325 175.881 146.056 175.875 146.777C175.871 147.2 175.851 147.622 175.821 148.045C175.777 148.45 175.777 148.49 175.828 148.162C175.794 148.387 175.754 148.608 175.707 148.826C175.66 149.04 175.606 149.252 175.546 149.463C175.412 149.845 175.412 149.865 175.549 149.52C175.345 149.852 175.368 149.855 175.616 149.527C175.808 149.369 176.025 149.258 176.264 149.195C177.159 148.96 177.766 150.117 177.347 149.067C177.146 148.564 176.78 148.142 176.589 147.625C176.441 147.233 176.331 146.777 176.277 146.358C176.24 146.073 176.284 144.591 176.25 144.856C176.344 144.128 176.582 143.414 176.8 142.716C176.871 142.505 176.948 142.294 177.025 142.086C176.901 142.361 176.924 142.317 177.092 141.952C177.283 141.563 177.555 141.217 177.749 140.835C177.535 141.124 177.551 141.13 177.803 140.862C177.639 141.043 177.437 141.167 177.203 141.238C177.571 141.107 175.569 141.466 175.667 140.922C175.647 141.033 176.156 141.888 176.227 142.086C176.411 142.589 176.555 143.122 176.666 143.649C177.032 145.382 177.089 147.924 176.485 149.185C176.401 149.359 176.002 150.103 175.928 150.043C175.858 149.989 176.723 149.875 176.683 149.926C176.622 150.006 175.744 148.742 175.583 148.38C174.932 146.898 174.969 145.003 175.623 143.83C177.709 140.064 171.917 136.677 169.815 140.45Z" fill="#1A53E6"/>
<path d="M135.018 150.174C134.327 156.129 134.666 162.104 135.152 168.06C135.383 170.906 135.702 173.753 135.702 176.614C135.702 179.641 135.481 182.659 135.564 185.687C135.682 189.993 142.392 190.013 142.272 185.687C142.188 182.659 142.409 179.641 142.409 176.614C142.409 173.753 142.094 170.906 141.859 168.06C141.373 162.101 141.034 156.129 141.725 150.174C141.933 148.373 140.035 146.821 138.371 146.821C136.383 146.821 135.226 148.366 135.018 150.174Z" fill="#1A53E6"/>
<path d="M129.079 211.443C133.395 211.443 133.401 204.737 129.079 204.737C124.766 204.737 124.756 211.443 129.079 211.443Z" fill="#1A53E6"/>
<path d="M125.202 209.891C129.481 211.919 133.757 213.545 138.569 212.818C140.977 212.452 143.173 211.547 145.246 210.283C147.05 209.183 149.139 208.214 150.575 206.635C153.472 203.446 148.74 198.691 145.833 201.893C144.864 202.959 143.321 203.587 142.1 204.344C140.598 205.277 139.112 206.018 137.338 206.266C134.25 206.698 131.308 205.391 128.585 204.1C126.949 203.325 124.967 203.647 123.998 205.303C123.146 206.765 123.558 209.113 125.202 209.891Z" fill="#1A53E6"/>
<path d="M53.7171 137.951C54.7701 143.481 55.1591 149.111 55.2665 154.734C55.3771 160.441 54.8606 166.132 54.6997 171.832C54.532 177.687 54.9982 183.501 55.4777 189.332C55.9405 194.922 56.3933 200.478 57.8219 205.924C59.2237 211.252 61.5779 216.084 64.6799 220.624C67.6512 224.97 70.9109 229.158 74.8849 232.639C83.1179 239.848 93.8762 243.714 104.239 246.745C109.725 248.352 115.446 248.888 121.134 249.2C126.433 249.492 131.751 249.404 137.037 248.911C147.657 247.916 158.09 245.431 167.937 241.317C177.327 237.393 186.66 232.434 194.551 225.959C202.411 219.507 208.9 210.635 213.247 201.474C218.083 191.287 220.38 180.262 222.362 169.233C223.385 163.543 224.176 157.809 224.434 152.028C224.696 146.19 224.991 140.366 225.293 134.531C225.434 131.775 225.263 129.035 224.662 126.336C223.727 122.124 217.261 123.908 218.193 128.12C219.323 133.217 218.173 138.672 217.989 143.83C217.794 149.265 217.724 154.687 217.053 160.092C216.392 165.414 215.309 170.685 214.256 175.94C213.206 181.174 211.925 186.368 210.165 191.411C206.922 200.693 201.647 209.25 194.933 216.429C188.447 223.364 180.046 228.078 171.642 232.296C153.714 241.293 132.724 244.606 112.861 241.773C107.502 241.008 102.411 239.167 97.327 237.377C92.7292 235.757 88.2489 233.852 84.124 231.237C79.9957 228.618 76.4476 225.178 73.4328 221.342C70.4548 217.556 67.4534 213.307 65.7497 208.777C63.9958 204.113 63.0065 199.137 62.5672 194.181C62.0742 188.605 61.5444 182.995 61.3901 177.395C61.2392 171.882 61.6953 166.386 61.8998 160.884C62.1044 155.395 61.9367 149.885 61.3767 144.42C61.095 141.657 60.7026 138.907 60.1861 136.181C59.8474 134.4 57.7045 133.388 56.0612 133.84C54.1933 134.34 53.375 136.168 53.7171 137.951Z" fill="#1A53E6"/>
<path d="M53.1235 148.46C49.8805 148.494 46.7248 148.886 43.7535 150.237C40.8661 151.552 38.3241 153.822 36.3623 156.29C34.2663 158.922 32.7102 162.161 32.9148 165.608C33.0992 168.71 34.4843 171.534 36.5165 173.847C40.3296 178.19 47.0635 180.463 52.1811 176.959C56.638 173.908 60.8702 167.091 55.9438 162.477C53.9719 160.629 51.0107 160.046 48.415 159.774C45.3733 159.459 42.2142 160.334 41.1512 163.489C39.7661 167.587 46.2419 169.347 47.6202 165.273C47.3586 166.048 46.8355 166.061 46.4264 166.517C46.5538 166.376 47.3117 166.373 46.6946 166.423C47.03 166.396 47.3721 166.403 47.7041 166.42C48.1836 166.443 48.3345 166.474 48.4217 166.487C49.1059 166.604 49.7833 166.765 50.4473 166.97C50.6787 167.04 51.5204 167.453 50.8397 167.067C51.0073 167.161 51.2119 167.268 51.3662 167.349C51.5607 167.453 51.6613 167.808 51.4836 167.469C51.5439 167.587 51.4735 167.58 51.4601 167.674C51.3964 168.12 51.4467 167.674 51.4567 167.654C51.383 167.822 51.3796 168.016 51.2991 168.18C51.232 168.318 51.0979 168.593 50.8799 168.945C50.1689 170.095 49.2031 171.004 48.0629 171.621C47.1642 172.107 45.816 172.114 44.5417 171.601C43.2606 171.088 41.993 170.051 41.1076 168.925C38.8942 166.105 39.3671 162.996 41.7649 160.24C43.2036 158.587 44.9139 156.981 46.9562 156.112C48.908 155.284 51.0442 155.187 53.1302 155.167C57.4362 155.123 57.4496 148.417 53.1235 148.46Z" fill="#1A53E6"/>
<path d="M228.878 149.034C233.261 148.242 237.6 149.52 240.125 153.44C241.333 155.311 240.927 157.145 240.431 159.204C239.854 161.598 239.072 164.22 237.027 165.786C235.283 167.121 233.063 167.439 230.94 167.62C229.005 167.785 227.02 168.08 226.201 165.987C226.044 165.585 226.061 165.344 226.02 164.968C226.037 165.136 226.054 164.878 226.198 164.66C226.329 164.462 226.989 163.939 227.593 163.61C229.015 162.835 230.906 162.42 232.701 162.148C234.491 161.876 235.481 159.623 235.041 158.024C234.515 156.109 232.714 155.408 230.917 155.683C226.537 156.35 221.023 158.302 219.625 163.016C218.78 165.87 219.776 168.921 221.587 171.178C223.7 173.81 226.906 174.575 230.155 174.387C236.393 174.032 242.262 172.026 245.146 166.031C247.829 160.455 248.955 153.775 244.877 148.635C242.889 146.127 240.152 144.115 237.164 142.975C233.911 141.734 230.454 141.962 227.093 142.569C225.309 142.891 224.303 145.06 224.753 146.693C225.269 148.571 227.09 149.359 228.878 149.034Z" fill="#1A53E6"/>
<path d="M183.014 77.45C175.475 87.3922 166.843 96.2748 156.471 103.246C151.249 106.757 145.763 109.818 140.119 112.588C137.167 114.037 134.163 115.374 131.188 116.769C129.622 117.504 128.076 118.275 126.526 119.04C125.644 119.475 123.907 120.679 123.069 120.592C121.265 120.404 119.715 122.269 119.715 123.945C119.715 125.914 121.258 127.111 123.069 127.298C125.604 127.563 128.304 125.625 130.494 124.545C132.975 123.318 135.477 122.155 137.992 120.994C142.781 118.788 147.523 116.461 152.104 113.852C161.082 108.739 169.788 102.552 176.85 94.967C181.056 90.4503 185.077 85.7525 188.806 80.8334C189.902 79.3882 189.034 77.0812 187.602 76.2462C185.881 75.2403 184.114 76.0014 183.014 77.45Z" fill="#1A53E6"/>
<path d="M161.136 82.7816C156.34 86.9094 151.685 90.9164 146.179 94.0852C140.729 97.2204 135.172 100.215 129.582 103.088C123.7 106.113 117.724 108.953 111.65 111.565C105.785 114.09 99.755 116.139 93.7521 118.302C90.355 119.526 87.0148 120.87 83.6813 122.262C82.0515 122.943 80.321 123.513 78.7583 124.338C78.2988 124.579 77.8662 124.864 77.4135 125.115C77.2156 125.226 76.8669 125.354 76.6824 125.501C76.7126 125.488 76.7462 125.474 76.7763 125.461C76.1325 125.615 76.3437 125.635 77.4135 125.515C77.9065 127.382 78.3994 129.25 78.8924 131.118C81.4445 128.677 84.0569 126.38 86.3307 123.664C88.6245 120.924 90.744 118.044 93.0948 115.348C95.563 112.518 97.9441 109.607 100.419 106.78C102.17 104.782 105.198 102.911 105.667 100.124C106.056 97.8072 104.752 96.134 102.435 95.8791C100.074 95.6209 98.6819 97.7535 97.213 99.1786C95.382 100.959 93.296 102.455 91.2872 104.021C86.8236 107.505 82.4606 111.113 77.9568 114.543C69.1436 121.249 60.1493 127.959 50.6385 133.653C47.8853 135.302 45.0582 136.818 42.2244 138.327C40.7958 139.088 39.3705 139.846 37.9553 140.634C37.3047 140.996 36.6675 141.362 36.0438 141.767C35.8291 141.905 35.6213 142.049 35.4066 142.183C35.088 142.378 34.3905 142.498 35.0914 142.448C33.2838 142.572 31.7378 143.9 31.7378 145.801C31.7378 147.518 33.2737 149.282 35.0914 149.154C37.7977 148.967 39.887 147.22 42.1909 145.959C44.6491 144.611 47.1408 143.327 49.5989 141.979C54.5824 139.249 59.3579 136.178 64.0193 132.935C73.2551 126.51 82.2393 119.737 91.0324 112.722C93.4906 110.761 95.9655 108.822 98.4472 106.894C99.5807 106.012 100.704 105.117 101.744 104.128C102.166 103.729 102.555 103.31 102.941 102.877C103.058 102.746 103.206 102.606 103.306 102.465C103.927 101.576 104.011 102.763 102.431 102.589C101.355 101.174 100.275 99.7587 99.1983 98.3437C99.1447 98.6723 99.0541 98.5818 99.2017 98.4711C99.4163 98.3068 98.9535 98.7528 98.9736 98.736C98.4907 99.125 98.0514 99.6213 97.5886 100.04C96.5054 101.023 95.5731 102.153 94.6207 103.259C92.2665 106.002 89.9156 108.752 87.5748 111.508C85.452 114.003 83.5103 116.649 81.3975 119.154C79.1775 121.786 76.6321 124.009 74.1505 126.383C72.2658 128.187 73.2886 131.248 75.6294 131.986C78.1982 132.798 80.254 131.004 82.4238 129.988C85.4218 128.583 88.5876 127.386 91.6796 126.202C98.0917 123.747 104.651 121.695 111 119.066C123.656 113.825 135.779 107.558 147.741 100.909C150.884 99.1619 153.956 97.3076 156.816 95.1246C159.952 92.7305 162.889 90.1049 165.877 87.5297C167.249 86.346 167.091 84.0022 165.877 82.7883C164.516 81.4202 162.51 81.5979 161.136 82.7816Z" fill="#1A53E6"/>
<path d="M184.741 75.3174C184.731 78.56 184.527 81.8293 184.701 85.0685C184.862 88.036 185.757 90.8996 186.545 93.7499C188.091 99.353 190.07 104.852 193.226 109.768C196.251 114.479 199.993 118.761 204.215 122.433C206.385 124.321 208.639 126.135 210.899 127.915C211.623 128.485 212.358 129.049 213.096 129.599C214.739 130.823 212.616 129.226 213.74 130.102C214.786 130.916 215.889 131.902 217.257 132.093C219.048 132.342 220.859 131.658 221.382 129.753C221.812 128.184 220.846 125.88 219.042 125.629C218.602 125.568 217.831 124.824 217.217 124.358C216.268 123.64 215.323 122.926 214.397 122.178C212.277 120.465 210.131 118.765 208.109 116.937C204.507 113.684 201.288 110.023 198.716 105.902C196.013 101.576 194.366 96.8616 193.018 91.966C192.337 89.4947 191.468 86.9932 191.398 84.4179C191.311 81.3867 191.445 78.3487 191.455 75.3141C191.462 71.0019 184.755 70.9952 184.741 75.3174Z" fill="#1A53E6"/>
<path d="M200.711 93.1463C203.357 101.127 206.06 109.231 210.463 116.444C212.707 120.119 215.413 123.503 218.472 126.537C220.011 128.066 221.621 129.592 223.381 130.866C224.994 132.036 226.876 132.754 228.482 133.944C229.938 135.024 232.225 134.186 233.07 132.741C234.069 131.034 233.328 129.233 231.866 128.153C230.407 127.074 228.7 126.427 227.218 125.394C225.685 124.327 224.314 122.899 222.996 121.581C220.273 118.852 217.925 115.871 215.95 112.558C212.009 105.945 209.585 98.6321 207.177 91.3657C205.825 87.2883 199.346 89.0353 200.711 93.1463Z" fill="#1A53E6"/>
<path d="M229.673 109.54C231.976 115.009 235.223 120.569 235.018 126.678C234.874 130.994 241.581 130.99 241.725 126.678C241.957 119.838 238.721 113.872 236.142 107.756C235.437 106.09 233.925 104.889 232.017 105.416C230.441 105.845 228.962 107.86 229.673 109.54Z" fill="#1A53E6"/>
<path d="M166.568 0.0150733C160.827 0.0117201 155.079 -0.142526 149.371 0.615293C143.781 1.3597 138.318 2.85186 132.895 4.35409C122.13 7.33171 111.452 10.3529 101.053 14.4606C90.8579 18.4877 80.5222 22.934 71.5581 29.3252C67.2655 32.3833 63.1037 35.8036 59.1867 39.3311C55.2496 42.8788 52.2046 47.0635 48.8041 51.0907C45.2526 55.2989 41.728 59.4736 38.6964 64.0809C35.6815 68.6613 32.9785 73.4363 30.3158 78.2246C27.6128 83.0867 25.651 88.2204 23.8501 93.4715C22.0559 98.6958 20.1545 103.873 18.6387 109.188C12.3507 131.238 11.851 154.221 11.8409 176.989C11.8342 188.46 11.6498 199.875 10.5699 211.302C10.0568 216.721 9.37942 222.133 8.1017 227.431C6.83405 232.682 5.66365 238.037 3.71858 243.09C2.82653 245.404 1.56223 247.557 0.468961 249.777C2.55153 250.34 4.6341 250.903 6.71668 251.47C6.72674 251.326 6.74014 251.182 6.7502 251.037C6.89105 249.23 5.10695 247.684 3.39663 247.684C1.46497 247.684 0.1839 249.223 0.04305 251.037C0.0329893 251.182 0.0195831 251.326 0.00952242 251.47C-0.248703 254.746 4.81855 256.094 6.25724 253.163C8.63492 248.328 10.8147 243.67 12.24 238.446C13.6452 233.296 14.9832 228.078 15.8451 222.81C17.6627 211.691 18.32 200.341 18.4844 189.087C18.8097 166.688 17.8505 144.071 22.3946 121.99C24.5812 111.367 28.1091 101.087 31.8383 90.9164C33.6694 85.9235 36.2047 81.3565 38.8372 76.7526C41.4966 72.1051 44.2533 67.4609 47.4727 63.1722C50.7123 58.86 54.4112 54.9066 57.7178 50.6447C60.7629 46.7148 64.5156 43.4421 68.3554 40.3102C72.3596 37.0409 76.3772 33.9291 80.8408 31.3036C85.4553 28.5875 90.2978 26.2839 95.1941 24.1211C105.211 19.6949 115.58 16.0567 126.138 13.1595C136.691 10.2624 147.128 6.89915 158.161 6.72143C160.961 6.67784 163.765 6.72143 166.568 6.72143C170.884 6.72478 170.891 0.0184265 166.568 0.0150733Z" fill="#1A53E6"/>
<path d="M23.3303 254.045C26.5967 249.176 29.5646 244.492 31.4996 238.916C32.2475 236.756 33.163 234.644 33.8672 232.474C34.1288 231.666 34.3602 230.845 34.6788 230.053C34.7358 229.909 34.88 229.788 35.0108 229.373C35.2355 229.027 35.2321 229.004 35.0041 229.309C34.7895 229.47 34.5581 229.601 34.3032 229.694C32.9282 228.913 31.5533 228.132 30.1783 227.354C30.8658 230.707 30.7954 234.131 30.8188 237.541C30.8457 241.169 31.1475 244.78 31.3655 248.398C31.5734 251.835 31.6271 255.279 31.3822 258.716C31.2615 260.386 31.0871 262.063 30.7316 263.702C30.3393 265.503 30.0006 267.072 30.3996 268.913C30.7383 270.472 32.2072 271.214 33.6325 271.374C36.0839 271.653 38.1229 269.55 39.5448 267.834C41.4899 265.49 43.5088 263.22 45.3163 260.762C47.2983 258.069 48.8041 255.199 49.951 252.06C50.501 250.551 50.9839 249.015 51.5674 247.517C51.7921 246.936 52.0268 246.363 52.2381 245.776C52.446 245.189 52.6506 245.243 52.275 245.421C53.9115 244.646 54.3341 242.299 53.4789 240.834C52.4997 239.157 50.5345 238.855 48.8913 239.63C46.5169 240.753 45.8496 243.768 44.991 246.018C43.9045 248.868 43.1063 251.752 41.5301 254.387C40.0244 256.902 38.1699 259.159 36.2617 261.375C35.6211 262.12 35.0007 262.881 34.3602 263.622C34.0382 263.991 33.5486 264.346 33.2803 264.749C33.4715 264.638 33.4011 264.682 33.0724 264.883C33.9947 264.772 34.1825 264.698 33.6325 264.668C34.709 265.49 35.7888 266.308 36.8653 267.129C36.7714 266.7 37.0464 266.15 37.1403 265.738C37.3181 264.953 37.4455 264.155 37.5629 263.36C37.8379 261.506 38.0391 259.645 38.143 257.774C38.3442 254.206 38.2202 250.645 37.9821 247.081C37.7507 243.58 37.5327 240.089 37.5159 236.579C37.4991 232.877 37.3851 229.208 36.6406 225.57C36.2717 223.773 34.1791 222.804 32.5157 223.23C30.0508 223.86 28.9475 226.281 28.1393 228.454C27.368 230.526 26.7576 232.27 26.0198 234.305C24.9903 237.139 24.1284 239.989 22.6763 242.648C21.1538 245.438 19.306 248.03 17.5387 250.665C15.1308 254.253 20.9359 257.616 23.3303 254.045Z" fill="#1A53E6"/>
<path d="M184.024 10.534C188.917 12.0329 193.843 13.4446 198.622 15.2855C203.307 17.0895 207.677 19.5473 211.899 22.2467C216.255 25.0331 220.591 27.8599 224.921 30.69C229.368 33.6005 233.496 36.9235 237.537 40.3706C251.837 52.5594 263.457 67.4173 271.844 84.2335C280.456 101.496 285.386 120.585 286.895 139.789C287.737 150.506 287.361 161.082 285.463 171.664C283.538 182.391 282.029 193.343 281.268 204.217C280.526 214.84 279.534 225.567 279.742 236.223C279.842 241.293 280.382 246.457 282.086 251.259C283.759 255.97 286.204 260.376 289.155 264.403C290.627 266.415 292.2 268.353 293.874 270.204C295.088 271.549 297.381 271.438 298.616 270.204C299.984 268.836 299.789 266.848 298.616 265.463C296.607 263.095 291.975 264.396 289.252 264.038C284.276 263.384 279.433 261.496 275.02 259.159C266.307 254.542 259.154 247.61 252.816 240.153C251.642 238.771 249.281 238.946 248.074 240.153C246.706 241.521 246.897 243.51 248.074 244.894C254.513 252.473 261.887 259.541 270.633 264.403C275.141 266.908 280.067 269.004 285.124 270.08C287.24 270.533 289.48 270.939 291.654 270.885C292.344 270.868 293.035 270.828 293.726 270.821C294.078 270.818 294.427 270.825 294.779 270.831C295.212 270.868 295.202 270.855 294.752 270.791C295.379 270.952 295.084 270.754 293.874 270.197C295.453 268.618 297.036 267.035 298.616 265.456C292.1 258.257 287.324 249.686 286.61 239.871C285.845 229.319 287.103 218.629 287.74 208.1C288.394 197.276 289.621 186.375 291.523 175.698C292.509 170.152 293.505 164.626 293.833 158.993C294.145 153.661 294.125 148.313 293.817 142.985C292.67 123.016 288.005 103.243 279.651 85.0551C271.774 67.9069 260.509 52.1838 246.585 39.425C242.641 35.8103 238.506 32.3867 234.271 29.114C230.025 25.8346 225.417 23.1051 220.93 20.1744C216.644 17.3778 212.439 14.4773 207.885 12.1268C203.173 9.69571 198.169 7.89505 193.122 6.30229C190.687 5.53441 188.243 4.80678 185.805 4.05902C181.67 2.79822 179.902 9.26986 184.024 10.534Z" fill="#1A53E6"/>
<path d="M230.055 232.042C229.207 239.362 228.606 247.017 230.94 254.142C233.083 260.681 237.225 267.569 242.859 271.629C244.328 272.689 246.595 271.884 247.447 270.426C248.436 268.736 247.718 266.901 246.243 265.838C243.986 264.212 242.339 261.825 240.927 259.471C239.368 256.869 237.896 254.189 237.074 251.255C235.323 245.018 236.031 238.379 236.765 232.042C236.973 230.241 235.075 228.689 233.412 228.689C231.42 228.689 230.263 230.234 230.055 232.042Z" fill="#1A53E6"/>
<path d="M210.513 256.52C211.087 258.488 211.59 260.487 212.274 262.421C212.609 263.367 212.985 264.306 213.407 265.218C213.575 265.584 213.77 265.926 213.964 266.278C214.139 266.596 214.383 267.662 214.326 266.771C214.444 268.578 215.785 270.124 217.68 270.124C219.404 270.124 221.151 268.588 221.034 266.771C220.896 264.635 219.692 263.139 218.954 261.218C218.143 259.112 217.613 256.902 216.982 254.739C215.778 250.602 209.303 252.362 210.513 256.52Z" fill="#1A53E6"/>
<path d="M75.7166 180.235C77.9769 179.32 80.2707 178.451 82.4137 177.277C83.9999 176.406 84.513 174.223 83.6176 172.69C82.6819 171.088 80.6229 170.611 79.0299 171.487C77.3766 172.395 75.6763 173.063 73.9325 173.77C72.2557 174.451 71.0719 176.003 71.5917 177.894C72.0276 179.484 74.0297 180.919 75.7166 180.235Z" fill="#1A53E6"/>
<path d="M90.2777 183.172C91.4649 182.633 92.6722 182.143 93.8627 181.606C94.7816 181.191 95.7575 180.436 96.6864 180.232C98.4571 179.843 99.49 177.787 99.0272 176.107C98.5242 174.283 96.6763 173.374 94.9023 173.767C93.477 174.079 92.2597 174.987 90.9518 175.601C89.6137 176.228 88.2387 176.768 86.8939 177.381C85.2473 178.133 84.8416 180.52 85.69 181.969C86.6793 183.662 88.6244 183.927 90.2777 183.172Z" fill="#1A53E6"/>
<path d="M185.952 176.62C187.582 175.467 189.134 174.213 190.563 172.821C191.821 171.594 191.888 169.294 190.563 168.08C189.212 166.839 187.163 166.769 185.821 168.08C185.244 168.643 184.651 169.19 184.034 169.709C183.889 169.83 183.742 169.951 183.594 170.072C183.544 170.112 183.071 170.484 183.376 170.249C183.682 170.015 183.202 170.377 183.148 170.417C182.957 170.558 182.763 170.695 182.568 170.833C181.14 171.842 180.325 173.807 181.364 175.42C182.28 176.835 184.423 177.703 185.952 176.62Z" fill="#1A53E6"/>
<path d="M204.299 174.655C205.896 173.576 207.743 172.399 209.397 171.718C211.07 171.027 212.261 169.491 211.738 167.594C211.302 166.011 209.296 164.556 207.613 165.253C205.228 166.236 203.048 167.423 200.916 168.868C199.416 169.88 198.756 171.819 199.712 173.455C200.58 174.94 202.794 175.675 204.299 174.655Z" fill="#1A53E6"/>
<path d="M159.418 37.5841C140.924 52.9785 118.783 63.0448 97.0118 72.8528C93.7689 74.3115 90.5192 75.7533 87.2294 77.098C85.6197 77.7552 83.9831 78.342 82.3835 79.0227C81.5484 79.3781 80.7201 79.7436 79.9052 80.1393C79.6335 80.2701 79.3585 80.3975 79.0936 80.545C78.7683 80.6758 78.4766 80.8569 78.2183 81.0882C77.5376 81.5476 77.8092 81.5208 79.0266 81.0044C79.8079 82.3792 80.5893 83.754 81.3673 85.1288C81.4579 84.4817 81.4076 84.6091 81.7429 84.2335C82.2762 83.64 82.8261 83.0733 83.4063 82.5268C84.5633 81.4437 85.67 80.3606 86.7331 79.1803C89.7446 75.8372 92.5616 72.323 95.5697 68.9799C98.0279 66.2504 100.506 63.5008 103.115 60.9189C105.288 58.7695 107.612 56.2445 106.184 53.0355C105.584 51.6876 103.716 51.1544 102.398 51.4931C99.9495 52.1268 97.7428 53.3507 95.563 54.5981C93.3731 55.8489 91.1229 56.9889 88.9162 58.2095C84.2078 60.8149 79.5765 63.5612 74.9888 66.3678C70.5219 69.104 66.283 72.1688 62.1782 75.418C60.0755 77.0845 57.9929 78.788 55.9774 80.5584C54.1631 82.1545 52.5736 84.0491 50.6218 85.4809C49.163 86.5506 48.4352 88.3881 49.4178 90.0681C50.2596 91.5066 52.54 92.3482 54.0055 91.2718C56.1317 89.7093 57.9292 87.8583 59.8609 86.0744C61.6584 84.4112 63.5699 82.8587 65.4714 81.3196C69.4085 78.1274 73.5233 75.1498 77.8394 72.484C82.3231 69.7143 86.8638 67.0284 91.465 64.4598C93.6213 63.256 95.8246 62.1327 97.9843 60.9323C99.9998 59.8123 101.918 58.5415 104.175 57.958C102.914 57.445 101.65 56.9319 100.389 56.4155C100.409 56.4625 100.429 56.5094 100.453 56.5564C100.298 55.993 100.147 55.4297 99.9931 54.863C99.9663 54.5612 100.352 53.9543 100.204 54.0717C100.043 54.2024 99.9327 54.5143 99.7986 54.692C100.104 54.2863 99.6343 54.8563 99.5739 54.92C99.3828 55.1246 99.1949 55.3358 99.0004 55.537C98.2995 56.2647 97.5752 56.9655 96.8843 57.7032C93.9131 60.8753 90.9317 64.034 88.1047 67.3335C85.5124 70.3614 83.0341 73.5603 80.1936 76.3603C78.2116 78.3152 75.3075 80.374 74.8916 83.3449C74.6267 85.2395 75.3343 86.8088 77.2324 87.4693C79.1708 88.1433 80.5893 87.4593 82.2091 86.4533C83.3828 85.7223 84.7847 85.1992 86.0791 84.703C89.2214 83.5025 92.3235 82.1948 95.4088 80.8502C101.465 78.2112 107.478 75.4515 113.478 72.6785C124.85 67.4207 136.068 61.7471 146.658 55.0307C152.748 51.1678 158.607 46.9428 164.15 42.3288C165.542 41.1686 165.348 38.7845 164.15 37.5874C162.782 36.2059 160.817 36.4205 159.418 37.5841Z" fill="#1A53E6"/>
<path d="M268.021 145.198C265.046 166.386 264.382 187.8 267.34 209.032C267.984 213.666 268.45 218.428 269.389 223.012C269.5 223.548 269.614 224.085 269.714 224.621C269.785 224.983 269.852 225.349 269.912 225.711C270.1 226.844 269.902 225.148 269.979 226.177C269.989 226.321 269.942 226.858 270.016 226.972C269.765 226.573 271.14 225.017 270.486 225.593C270.915 225.215 271.307 225.07 271.881 225.047C271.525 225.044 271.643 225.067 272.226 225.121C271.894 225.02 271.968 225.067 272.451 225.258C272.293 225.131 272.028 225.023 271.85 224.923C271.146 224.517 272.354 225.396 271.703 224.816C271.334 224.49 270.985 224.148 270.65 223.789C269.54 222.606 269.268 222.19 268.349 220.842C267.219 219.186 266.166 217.469 265.257 215.681C262.709 210.682 260.717 205.427 259.013 200.086C258.352 198.02 257.869 196.022 257.467 193.899C257.068 191.793 256.478 189.812 255.062 188.159C253.885 186.78 251.531 186.948 250.321 188.159C248.956 189.523 249.14 191.522 250.321 192.9C249.955 192.474 250.381 193.198 250.287 192.866C250.398 193.252 250.542 193.628 250.642 194.017C250.891 194.966 251.048 195.938 251.219 196.904C251.591 199.016 252.269 201.035 252.936 203.07C254.637 208.244 256.629 213.344 259.047 218.227C260.103 220.359 261.307 222.405 262.655 224.366C264.291 226.747 266.193 229.45 268.775 230.898C271.673 232.525 275.684 231.572 276.599 228.068C277.032 226.415 276.505 224.47 276.193 222.841C275.848 221.037 275.67 220.098 275.439 218.381C274.678 212.774 273.712 207.201 273.145 201.568C272.585 196.018 272.253 190.445 272.135 184.869C271.874 172.204 272.739 159.519 274.5 146.978C274.751 145.188 274.064 143.377 272.159 142.854C270.576 142.425 268.276 143.394 268.021 145.198Z" fill="#1A53E6"/>
<path d="M115.701 249.217C115.788 256.835 116.747 267.904 109.588 272.877C108.102 273.909 107.418 275.814 108.384 277.464C109.246 278.936 111.476 279.704 112.971 278.668C122.603 271.978 122.522 259.769 122.405 249.217C122.358 244.901 115.651 244.891 115.701 249.217Z" fill="#1A53E6"/>
<path d="M131.896 250.511C131.876 256.872 131.929 263.434 133.737 269.591C135.018 273.946 137.858 279.11 143.023 279.124C147.339 279.134 147.346 272.427 143.023 272.417C142.308 272.414 142.768 272.404 142.976 272.491C142.624 272.347 142.657 272.354 142.322 271.995C141.879 271.522 141.567 271.012 141.212 270.345C140.494 269.004 140.038 267.334 139.669 265.661C138.576 260.688 138.586 255.574 138.603 250.508C138.616 246.195 131.909 246.189 131.896 250.511Z" fill="#1A53E6"/>
<path d="M108.91 281.38C111.157 284.267 113.568 287.024 116.644 289.062C119.977 291.272 123.585 291.903 127.492 291.316C130.993 290.789 134.082 289.28 137.043 287.396C138.633 286.383 140.306 285.243 141.551 283.811C142.06 283.225 142.49 282.581 142.909 281.93C143.117 281.605 143.479 281.179 143.63 280.827C143.824 280.368 144.445 280.579 143.268 280.948C147.376 279.667 145.622 273.192 141.483 274.479C139.77 275.013 138.707 276.186 137.714 277.625C136.748 279.023 136.728 279.355 135.363 280.435C133.15 282.185 130.454 283.771 127.707 284.459C124.92 285.156 122.677 284.972 120.242 283.409C117.596 281.712 115.564 279.093 113.652 276.639C112.539 275.207 110.077 275.469 108.91 276.639C107.498 278.051 107.793 279.945 108.91 281.38Z" fill="#1A53E6"/>
<path d="M105.902 274.426C103.903 275.029 101.844 275.324 99.8187 275.801C97.4645 276.351 95.3853 277.417 93.1652 278.336C91.4079 279.063 89.5634 279.506 87.8632 280.374C85.8544 281.404 84.0803 282.826 82.0749 283.872C78.2149 285.88 74.7473 287.919 71.6922 291.084C70.3776 292.446 69.0026 293.797 67.7786 295.239C66.2091 297.09 65.3003 299.055 64.596 301.375C64.0528 303.166 63.7845 305.097 63.1238 306.841C62.3391 308.903 60.9407 310.513 62.148 312.826C63.6369 315.677 67.2521 315.764 70.059 315.573C73.9156 315.311 77.7756 315.398 81.6423 315.395C86.4782 315.395 91.3107 315.398 96.1432 315.583C101.013 315.77 105.882 316.123 110.755 316.176C115.641 316.23 120.524 316.012 125.41 316.035C127.915 316.045 130.417 316.106 132.922 316.139C142.687 316.284 152.456 316.391 162.222 316.284C166.957 316.23 171.706 316.173 176.431 315.804C179.644 315.556 184.45 315.549 184.872 311.374C185.057 309.57 183.199 308.021 181.518 308.021C179.553 308.021 178.349 309.564 178.165 311.374C178.292 310.127 178.822 309.222 179.59 308.756C179.151 309.021 180.556 308.548 179.989 308.585C179.604 308.608 179.168 308.782 178.782 308.856C178.504 308.91 177.551 308.977 178.779 308.866C178.49 308.893 178.202 308.933 177.913 308.964C177.166 309.041 176.414 309.101 175.663 309.151C171.8 309.416 167.92 309.493 164.046 309.55C154.757 309.688 145.468 309.601 136.178 309.477C133.133 309.436 130.088 309.386 127.043 309.342C120.95 309.259 114.853 309.591 108.759 309.43C99.49 309.181 90.2677 308.679 80.9883 308.682C77.5744 308.682 74.1336 308.534 70.7297 308.806C69.5862 308.896 68.3789 309.031 67.2387 308.873C67.9597 308.974 67.014 308.826 66.9469 308.756C67.4868 309.309 67.081 308.075 68.0234 309.627C68.7578 310.838 67.8658 312.263 68.6841 310.784C68.9725 310.265 69.2106 309.708 69.4118 309.148C70.1395 307.113 70.5017 304.943 71.1456 302.878C71.7191 301.037 72.5675 299.853 73.9022 298.481C76.8567 295.44 79.5027 292.664 83.3358 290.719C85.4251 289.659 87.4004 288.536 89.3689 287.272C91.0893 286.165 92.803 285.642 94.6877 284.898C96.8138 284.059 98.8227 282.956 101.049 282.393C103.253 281.836 105.506 281.545 107.683 280.887C111.804 279.647 110.05 273.172 105.902 274.426Z" fill="#1A53E6"/>
<path d="M145.145 279.026C149.706 279.617 154.156 279.576 158.369 281.655C160.639 282.775 162.882 283.915 165.233 284.858C166.947 285.545 168.688 286.152 170.317 287.027C171.783 287.812 173.131 288.761 173.993 290.216C175.177 292.214 175.827 294.615 176.605 296.795C178.255 301.422 180.11 305.741 180.143 310.717C180.174 315.029 186.881 315.04 186.851 310.717C186.834 308.038 186.579 305.335 185.814 302.753C184.979 299.933 183.849 297.17 182.853 294.404C181.904 291.762 181.082 288.788 179.53 286.427C178.239 284.462 176.508 282.899 174.499 281.689C172.574 280.532 170.441 279.727 168.356 278.916C165.894 277.957 163.573 276.746 161.199 275.596C156.041 273.095 150.709 273.044 145.139 272.323C143.338 272.092 141.785 274.03 141.785 275.677C141.792 277.682 143.341 278.795 145.145 279.026Z" fill="#1A53E6"/>
<path d="M64.7738 253.261C63.8918 257.191 63.154 261.157 62.158 265.06C61.6919 266.888 61.1956 268.729 60.5315 270.493C59.7837 272.484 58.9721 274.178 58.8179 276.334C58.6871 278.141 60.4544 279.687 62.1715 279.687C64.0964 279.687 65.3942 278.148 65.525 276.334C65.6391 274.778 66.6854 273.199 67.1884 271.747C67.8122 269.946 68.3185 268.102 68.778 266.251C69.7002 262.535 70.4079 258.773 71.2462 255.038C72.1819 250.84 65.7195 249.042 64.7738 253.261Z" fill="#1A53E6"/>
<path d="M82.873 262.016C82.1084 265.852 80.7033 269.483 80.4182 273.417C80.2874 275.224 82.0548 276.77 83.7718 276.77C85.6967 276.77 86.9946 275.231 87.1254 273.417C87.3635 270.137 88.6982 267.012 89.3421 263.8C89.6976 262.026 88.8357 260.178 87.0013 259.675C85.348 259.219 83.2285 260.232 82.873 262.016Z" fill="#1A53E6"/>
<path d="M187.263 250.065C187.773 255.397 188.313 260.748 189.423 265.993C189.956 268.514 190.674 270.985 191.338 273.477C191.619 274.53 191.992 275.63 192.132 276.716C192.049 276.066 192.169 277.132 192.116 277.145C192.102 276.478 192.431 275.941 193.105 275.536C193.407 275.241 193.699 275.157 193.98 275.284C193.836 275.901 190.563 273.172 190.321 272.91C189.158 271.656 188.219 270.238 187.24 268.843C186.042 267.133 184.734 265.506 183.598 263.753C182.377 261.868 181.569 259.417 179.422 258.378C178 257.687 176.542 257.844 175.358 258.901C173.258 260.775 173.527 264.108 173.517 266.66C173.503 269.399 173.141 272.776 174.878 275.11C175.958 276.562 177.782 277.299 179.466 276.314C180.898 275.475 181.756 273.188 180.67 271.727C180.217 271.116 180.237 270.67 180.2 269.708C180.163 268.789 180.207 267.874 180.221 266.955C180.231 266.244 180.204 265.533 180.221 264.822C180.224 264.641 180.294 263.505 180.254 263.766C180.388 262.904 180.596 263.206 180.107 263.645C178.752 263.82 177.397 263.994 176.042 264.168C175.868 264.085 176.253 264.484 176.394 264.742C176.696 265.298 177.008 265.845 177.336 266.385C178.111 267.646 178.966 268.853 179.852 270.037C181.123 271.737 182.293 273.51 183.577 275.2C186.233 278.694 190.945 283.476 195.852 281.598C201.291 279.519 197.8 271.75 196.801 267.968C195.251 262.089 194.554 256.107 193.977 250.072C193.806 248.268 192.558 246.718 190.623 246.718C188.936 246.712 187.089 248.251 187.263 250.065Z" fill="#1A53E6"/>
<path d="M230.078 71.3875C234.971 79.2674 239.78 87.2011 244.438 95.2219C246.695 99.1049 248.989 102.981 251.092 106.951C252.088 108.836 253.023 110.757 253.842 112.725C254.506 114.325 255.763 116.471 255.545 118.225C255.321 120.025 257.249 121.578 258.899 121.578C260.898 121.578 262.028 120.029 262.252 118.225C262.534 115.978 261.454 113.822 260.649 111.787C259.801 109.641 258.875 107.521 257.853 105.452C255.74 101.184 253.268 97.0762 250.884 92.9518C246.021 84.5521 240.994 76.2462 235.873 68.0008C233.599 64.3458 227.794 67.709 230.078 71.3875Z" fill="#1A53E6"/>
<path d="M253.795 88.4853C256.263 93.9544 259.999 99.4167 260.509 105.543C260.66 107.347 261.944 108.896 263.862 108.896C265.559 108.896 267.367 107.357 267.216 105.543C266.596 98.0721 262.605 91.7782 259.587 85.102C258.842 83.4522 256.444 83.0532 254.999 83.8982C253.302 84.8907 253.047 86.8255 253.795 88.4853Z" fill="#1A53E6"/>
<path d="M163.225 124.093C166.307 123.818 169.385 123.536 172.464 123.214C175.499 122.896 178.668 122.731 181.619 121.937C185.784 120.817 184.017 114.345 179.835 115.468C177.236 116.166 174.473 116.3 171.803 116.572C168.946 116.863 166.085 117.128 163.225 117.383C161.42 117.544 159.871 118.808 159.871 120.736C159.871 122.43 161.41 124.254 163.225 124.093Z" fill="#1A53E6"/>
</svg>
